<?xml version="1.0" encoding="UTF-8"?>
<svg id="Layer_2" data-name="Layer 2" xmlns="http://www.w3.org/2000/svg" viewBox="0 0 42.94 38.17">
  <defs>
    <style>
      .cls-1 {
        fill: #fff;
      }
    </style>
  </defs>
  <g id="Capa_1" data-name="Capa 1">
    <g>
      <path class="cls-1" d="M38.17,0H4.77C2.12,0,0,2.14,0,4.77v28.63c0,2.62,2.12,4.77,4.77,4.77H38.17c2.62,0,4.77-2.15,4.77-4.77V4.77c0-2.63-2.12-4.77-4.77-4.77Zm-2.19,3.45c.61,0,1.11,.5,1.11,1.11s-.5,1.1-1.11,1.1-1.1-.49-1.1-1.1,.49-1.11,1.1-1.11Zm-2.98,0c.61,0,1.1,.5,1.1,1.11s-.49,1.1-1.1,1.1-1.1-.49-1.1-1.1,.49-1.11,1.1-1.11Zm-2.98,0c.61,0,1.1,.5,1.1,1.11s-.49,1.1-1.1,1.1-1.11-.49-1.11-1.1,.5-1.11,1.11-1.11Zm8.15,29.95H4.77V9.54H38.17v23.86Z"/>
      <path class="cls-1" d="M27.66,21.31c.03-.27,.06-.53,.06-.82s-.02-.55-.06-.82l1.76-1.38c.16-.12,.2-.35,.1-.53l-1.67-2.88c-.1-.18-.33-.25-.51-.18l-2.07,.83c-.43-.33-.9-.61-1.41-.82l-.32-2.21c-.03-.2-.2-.35-.41-.35h-3.33c-.21,0-.38,.15-.41,.35l-.32,2.21c-.51,.21-.97,.49-1.41,.82l-2.08-.83c-.19-.07-.41,0-.51,.18l-1.67,2.88c-.11,.18-.06,.41,.1,.53l1.76,1.38c-.03,.27-.06,.54-.06,.82s.03,.55,.06,.82l-1.76,1.37c-.16,.13-.2,.35-.1,.53l1.67,2.88c.1,.18,.33,.25,.51,.18l2.08-.83c.43,.33,.9,.61,1.41,.82l.32,2.21c.03,.2,.2,.35,.41,.35h3.33c.21,0,.38-.15,.41-.35l.32-2.21c.51-.21,.97-.49,1.41-.82l2.07,.83c.19,.08,.41,0,.51-.18l1.67-2.88c.1-.18,.06-.41-.1-.53l-1.76-1.37Zm-6.19,2.1c-1.61,0-2.92-1.31-2.92-2.92s1.31-2.92,2.92-2.92,2.92,1.31,2.92,2.92-1.31,2.92-2.92,2.92Z"/>
    </g>
  </g>
</svg>