<?xml version="1.0" encoding="UTF-8"?>
<svg id="Layer_2" data-name="Layer 2" xmlns="http://www.w3.org/2000/svg" viewBox="0 0 35.69 32.12">
  <defs>
    <style>
      .cls-1 {
        fill: #fff;
      }
    </style>
  </defs>
  <g id="Capa_1" data-name="Capa 1">
    <path class="cls-1" d="M32.55,0H3.23C1.47,0,0,1.39,0,3.15V25.35c0,1.76,1.47,3.2,3.23,3.2H15.06l.59,1.01h0c.06,.11,.51,.82,.63,.99,.68,1.03,1.48,1.56,2.38,1.56h5.87c1.7,0,3.09-1.66,3.18-3.57h4.83c1.76,0,3.14-1.44,3.14-3.2V3.15c0-1.76-1.38-3.15-3.14-3.15ZM4.17,16.33c-1.15,0-2.09-.93-2.09-2.08s.93-2.09,2.09-2.09,2.09,.93,2.09,2.09-.93,2.08-2.09,2.08Zm27.69,8.39h-4.21v-4.37c0-.97-.66-1.76-1.51-1.76-.48,0-.92,.26-1.21,.69-.07-1.03-.82-1.84-1.74-1.84-.61,0-1.16,.36-1.48,.94-.32-.58-.89-.94-1.49-.94-.46,0-.97,.2-1.23,.56v-4.41c0-1.1-.82-1.99-1.78-1.99s-1.78,.9-1.78,1.99v8.71l-.63-1.39c-.31-.64-.88-1.04-1.52-1.04-.29,0-.58,.09-.83,.25-.84,.53-1.15,1.75-.69,2.71l1.09,1.88h-4.18V3.82H31.86V24.73Z"/>
  </g>
</svg>