<?xml version="1.0" encoding="UTF-8"?>
<svg id="Layer_2" data-name="Layer 2" xmlns="http://www.w3.org/2000/svg" viewBox="0 0 42.94 38.17">
  <defs>
    <style>
      .cls-1 {
        fill: #fff;
      }
    </style>
  </defs>
  <g id="Capa_1" data-name="Capa 1">
    <g>
      <path class="cls-1" d="M38.17,0H4.77C2.12,0,0,2.14,0,4.77v28.63c0,2.62,2.12,4.77,4.77,4.77H38.17c2.62,0,4.77-2.15,4.77-4.77V4.77c0-2.63-2.12-4.77-4.77-4.77Zm-2.19,3.45c.61,0,1.11,.5,1.11,1.11s-.5,1.1-1.11,1.1-1.1-.49-1.1-1.1,.49-1.11,1.1-1.11Zm-2.98,0c.61,0,1.1,.5,1.1,1.11s-.49,1.1-1.1,1.1-1.1-.49-1.1-1.1,.49-1.11,1.1-1.11Zm-2.98,0c.61,0,1.1,.5,1.1,1.11s-.49,1.1-1.1,1.1-1.11-.49-1.11-1.1,.5-1.11,1.11-1.11Zm8.15,29.95H4.77V9.54H38.17v23.86Z"/>
      <g>
        <rect class="cls-1" x="12.16" y="12.94" width="18.62" height="3.92" rx=".93" ry=".93"/>
        <g>
          <rect class="cls-1" x="22.7" y="18.55" width="12.9" height="3.92" rx=".93" ry=".93"/>
          <rect class="cls-1" x="7.34" y="18.55" width="12.9" height="3.92" rx=".93" ry=".93"/>
        </g>
        <g>
          <rect class="cls-1" x="22.7" y="24.22" width="12.9" height="3.92" rx=".93" ry=".93"/>
          <path class="cls-1" d="M11.82,28.14H7.69c-.19,0-.35-.41-.35-.93v-2.07c0-.51,.15-.93,.35-.93h4.13c.19,0,.35,.41,.35,.93v2.07c0,.51-.15,.93-.35,.93Z"/>
          <path class="cls-1" d="M19.9,28.14h-4.13c-.19,0-.35-.41-.35-.93v-2.07c0-.51,.15-.93,.35-.93h4.13c.19,0,.35,.41,.35,.93v2.07c0,.51-.15,.93-.35,.93Z"/>
        </g>
      </g>
    </g>
  </g>
</svg>