<?xml version="1.0" encoding="UTF-8"?>
<svg id="Layer_2" data-name="Layer 2" xmlns="http://www.w3.org/2000/svg" viewBox="0 0 42.89 31.19">
  <defs>
    <style>
      .cls-1 {
        fill: #fff;
      }
    </style>
  </defs>
  <g id="Capa_1" data-name="Capa 1">
    <path class="cls-1" d="M3.9,3.9H38.99V0H3.9C1.75,0,0,1.75,0,3.9V27.29c0,2.14,1.75,3.9,3.9,3.9h7.8v-3.9H3.9V3.9ZM23.39,15.59h-7.8v3.47c-1.19,1.07-1.95,2.59-1.95,4.33s.76,3.26,1.95,4.33v3.47h7.8v-3.47c1.19-1.07,1.95-2.61,1.95-4.33s-.76-3.26-1.95-4.33v-3.47Zm-3.9,10.72c-1.62,0-2.92-1.31-2.92-2.92s1.31-2.92,2.92-2.92,2.92,1.31,2.92,2.92-1.31,2.92-2.92,2.92ZM40.94,7.8h-11.7c-.97,0-1.95,.97-1.95,1.95V29.24c0,.97,.98,1.95,1.95,1.95h11.7c.98,0,1.95-.98,1.95-1.95V9.75c0-.97-.97-1.95-1.95-1.95Zm-1.95,19.49h-7.8V11.7h7.8v15.6Z"/>
  </g>
</svg>