<?xml version="1.0" encoding="UTF-8"?>
<svg id="Layer_2" data-name="Layer 2" xmlns="http://www.w3.org/2000/svg" viewBox="0 0 124.98 129.52">
  <defs>
    <style>
      .cls-1 {
        fill: #010002;
      }

      .cls-2 {
        fill: #fff;
      }

      .cls-3 {
        fill: #d3d3d3;
      }

      .cls-4 {
        fill: #34537d;
      }

      .cls-5 {
        fill: #3c5fa2;
      }
    </style>
  </defs>
  <g id="Capa_1" data-name="Capa 1">
    <g>
      <polygon class="cls-4" points="123.91 122.7 .2 122.7 5.95 129.52 84.08 129.52 84.88 129.52 115.97 129.52 124.22 122.7 123.91 122.7"/>
      <path class="cls-5" d="M124.22,122.7h.75V0H0V122.7H124.22Zm-60.52-23.32c-12.11,0-23-5.27-30.4-13.69,0,0,0,0-.01,0-6.43-7.17-10.31-16.68-10.31-27.03,0-6.16,1.41-11.99,3.86-17.22,7.79-.96,17.86-2.5,28.13-4.86,2.47-.57,4.95-1.18,7.41-1.85,8.92-2.41,17.57-5.5,24.59-9.42,1.3,.92,2.57,1.88,3.76,2.95,4.01,4.48,7.03,9.86,8.74,15.8-1.7-5.93-4.73-11.32-8.73-15.8,8.42,7.41,13.7,18.3,13.7,30.41,0,22.49-18.23,40.72-40.72,40.72Z"/>
      <path class="cls-5" d="M60.31,96.01c-8.72,0-16.79-2.77-23.4-7.46,6.61,4.69,14.68,7.46,23.4,7.46,22.49,0,40.73-18.23,40.73-40.72h0c0,22.49-18.23,40.72-40.72,40.72Z"/>
      <path class="cls-3" d="M90.72,28.25c4.01,4.48,7.03,9.87,8.73,15.8,0,0,0,.01,0,.02,.07,.23,.11,.47,.17,.71,.9,3.36,1.4,6.87,1.4,10.5h0c0,22.49-18.23,40.72-40.73,40.72-8.72,0-16.79-2.77-23.4-7.47-1.25-.89-2.47-1.82-3.62-2.84,7.41,8.42,18.3,13.69,30.4,13.69,22.49,0,40.72-18.23,40.72-40.72,0-12.1-5.28-23-13.7-30.41Z"/>
      <path class="cls-2" d="M60.31,96.01c22.49,0,40.72-18.23,40.72-40.72h0c0-3.63-.5-7.14-1.4-10.5-.06-.23-.1-.48-.17-.71,0,0,0-.01,0-.02-1.7-5.93-4.73-11.32-8.74-15.8-1.18-1.06-2.46-2.03-3.76-2.95-7.02,3.92-15.67,7.01-24.59,9.42,.44-.03,.88-.07,1.33-.07,12.91,0,23.39,10.47,23.39,23.39s-10.47,23.39-23.39,23.39-23.39-10.47-23.39-23.39c0-3.2,.64-6.25,1.81-9.03,1.41,.87,3.06,1.4,4.84,1.4,5.11,0,9.26-4.15,9.26-9.26,0-1.68-.48-3.23-1.26-4.59-10.27,2.36-20.34,3.9-28.13,4.86-2.45,5.24-3.86,11.06-3.86,17.22,0,10.35,3.89,19.86,10.31,27.03,0,0,0,0,.01,0,1.14,1.02,2.36,1.95,3.62,2.84,6.62,4.69,14.68,7.46,23.41,7.46Z"/>
      <path class="cls-1" d="M46.97,50.43c-1.78,0-3.43-.53-4.84-1.4-1.16,2.78-1.81,5.82-1.81,9.03,0,12.92,10.47,23.39,23.39,23.39s23.39-10.47,23.39-23.39-10.47-23.39-23.39-23.39c-.45,0-.89,.04-1.33,.07-2.46,.67-4.94,1.28-7.41,1.85,.78,1.36,1.26,2.91,1.26,4.59,0,5.11-4.14,9.26-9.26,9.26Z"/>
    </g>
  </g>
</svg>