<?xml version="1.0" encoding="UTF-8"?>
<svg id="Layer_2" data-name="Layer 2" xmlns="http://www.w3.org/2000/svg" viewBox="0 0 1611.5 491.73">
  <defs>
    <style>
      .cls-1 {
        fill: #024;
      }
    </style>
  </defs>
  <g id="BACKGROUND_2" data-name="BACKGROUND 2">
    <path class="cls-1" d="M1611.5,218.26l-14.15-35.65,10.51,10.48c.96,.96,2.57,0,2.15-1.33l-17.37-55.37c.97,1.36,16.21,22.79,17.73,23.4,1.56,.6-19.34-40.6-19.97-41.84,.31,.33,5.24,5.86,8.33,9.61,.49,.61,1.45,.1,1.23-.64-3.39-11.96-12.73-46.41-12.73-46.41l10.57,12.18c.32,.39,.93-.03,.71-.48l-13.51-28.5,10.12,6.84c.65,.42,1.39-.29,1.04-.94l-12.41-21.5c.55,.3,1.83,.78,4.57,1.42,.87,.23,1.58-.71,1.1-1.48-10.35-17.57-13.21-47.89-13.21-47.89l-.1-.16s-2.35,30.61-12.73,48.18c-.45,.71,.22,1.58,1.03,1.38,2.84-.67,4.16-1.12,4.74-1.45l-12.41,21.5c-.39,.65,.39,1.36,1,.94l10.15-6.84-13.54,28.5c-.22,.45,.39,.87,.74,.48l10.57-12.16c-.34,1.05-11.27,34.43-15.14,46.32-.29,.84,.77,1.49,1.38,.87,3.94-3.9,10.58-9.8,10.58-9.8,0,0-21.57,42.48-19.95,41.87,1.51-.61,16.72-22.04,17.69-23.4l-17.37,55.37c-.42,1.33,1.22,2.29,2.19,1.33l10.47-10.48-20.75,52.31c-.26,.68,.67,1.16,1.06,.55l9.54-15.12-13.37,38.48-5.19-14.95,5.44,8.67c.23,.35,.78,.06,.62-.32l-11.9-29.98,6.03,6.03c.55,.55,1.48-.03,1.22-.77l-9.95-31.78s9.25,13.08,10.15,13.47c.9,.35-10.7-22.56-11.41-23.95,.45,.36,3.93,3.45,6.03,5.55,.35,.38,.96,0,.8-.49-2.19-6.7-8.28-25.33-8.64-26.49l6.03,6.9c.19,.22,.55,0,.42-.26l-7.77-16.34,5.84,3.93c.35,.26,.77-.16,.58-.55l-7.13-12.31c.33,.19,1.1,.45,2.71,.84,.48,.13,.84-.39,.61-.81-5.96-10.05-7.31-27.62-7.31-27.62l-.07,.1s-1.61,17.4-7.57,27.46c-.26,.45,.13,.97,.64,.87,1.58-.39,2.29-.65,2.65-.84l-7.13,12.31c-.22,.39,.23,.81,.58,.55l5.8-3.93-7.73,16.34c-.13,.26,.22,.48,.42,.26l6.03-6.9c-.29,1.16-5.42,19.92-7.29,26.53-.13,.41,.42,.7,.71,.38,1.71-2.06,4.32-5.03,4.74-5.48-.71,1.39-12.28,24.3-11.41,23.95,.9-.39,10.18-13.47,10.18-13.47l-9.99,31.78c-.22,.74,.71,1.32,1.26,.77l5.99-6.03-11.5,29.04-13.6-34.26,8.83,8.8c.8,.84,2.19,0,1.84-1.1l-14.64-46.6c.81,1.13,13.6,19.18,14.93,19.69,1.28,.52-15.93-33.45-16.76-35.16,.61,.55,5.73,5.06,8.83,8.15,.54,.55,1.41,0,1.19-.74-3.27-9.99-12.47-38.06-12.75-38.94l8.88,10.19c.29,.33,.81,0,.61-.42l-11.37-23.94,8.54,5.73c.51,.36,1.16-.22,.84-.77l-10.45-18.11c.49,.26,1.61,.68,4,1.22,.68,.2,1.22-.54,.87-1.16-8.73-14.76-10.73-40.58-10.73-40.58l-.07,.17s-2.41,25.52-11.15,40.32c-.39,.64,.23,1.41,.94,1.25,2.32-.58,3.38-.96,3.86-1.22l-10.44,18.11c-.32,.55,.32,1.13,.84,.77l8.54-5.73-11.38,23.94c-.19,.42,.33,.75,.62,.42l8.88-10.19c-.23,.88-7.89,29.11-10.72,39.01-.16,.64,.64,1.06,1.06,.55,2.45-3,6.29-7.29,6.93-8-1,2.03-18.05,35.65-16.73,35.13,1.29-.51,14.09-18.56,14.89-19.69l-14.6,46.6c-.35,1.1,1,1.94,1.84,1.1l8.8-8.8-17.34,43.71c-3.29-6.87-8.35-16.86-8.67-17.51,.45,.39,3.93,3.49,6.03,5.58,.35,.39,.96,0,.8-.48-2.19-6.71-8.28-25.34-8.63-26.5l6.02,6.9c.2,.23,.55,0,.42-.26l-7.77-16.34,5.84,3.94c.35,.25,.77-.17,.58-.55l-7.13-12.31c.33,.19,1.1,.45,2.71,.83,.49,.13,.84-.38,.61-.8-5.96-10.06-7.31-27.62-7.31-27.62l-.07,.09s-1.61,17.41-7.57,27.46c-.26,.45,.13,.97,.64,.87,1.58-.38,2.29-.64,2.65-.83l-7.13,12.31c-.22,.38,.23,.8,.58,.55l5.81-3.94-7.74,16.34c-.13,.26,.23,.49,.42,.26l6.03-6.9c-.29,1.16-5.42,19.92-7.29,26.53-.13,.42,.42,.71,.71,.39,1.71-2.07,4.32-5.03,4.74-5.48-.71,1.38-12.28,24.3-11.41,23.94,.9-.38,10.18-13.47,10.18-13.47l-9.99,31.78c-.22,.74,.71,1.32,1.26,.77l6-6.02-11.9,29.97c-.16,.39,.39,.68,.61,.32l5.48-8.67-5.19,14.93c-3.22-6.84-8.92-18.09-9.28-18.79,.45,.38,3.93,3.48,6.03,5.57,.35,.39,.97,0,.81-.48-2.2-6.71-8.29-25.33-8.64-26.49l6.02,6.89c.2,.23,.55,0,.42-.26l-7.76-16.34,5.83,3.94c.35,.25,.77-.17,.58-.55l-7.12-12.31c.32,.19,1.09,.45,2.7,.83,.49,.13,.84-.38,.62-.8-5.97-10.06-7.32-27.62-7.32-27.62l-.06,.09s-1.62,17.41-7.58,27.46c-.26,.46,.13,.97,.65,.87,1.58-.38,2.29-.64,2.64-.83l-7.12,12.31c-.23,.38,.22,.8,.58,.55l5.8-3.94-7.74,16.34c-.13,.26,.23,.49,.42,.26l6.03-6.89c-.29,1.16-5.42,19.91-7.28,26.52-.13,.42,.41,.71,.7,.39,1.71-2.07,4.32-5.03,4.74-5.48-.71,1.38-12.28,24.3-11.41,23.94,.91-.38,10.19-13.47,10.19-13.47l-9.99,31.78c-.23,.74,.71,1.32,1.25,.78l6-6.03-8.93,22.49-13.57-34.19,11.96,11.92c1.09,1.13,2.96,0,2.48-1.51l-19.84-63.18c.56,.79,18.45,26.03,20.23,26.73,1.77,.71-22.05-46.29-22.76-47.7,.33,.38,6,6.67,9.48,10.95,.58,.68,1.64,.13,1.42-.74-3.87-13.63-14.54-52.89-14.54-52.89l12.05,13.86c.39,.45,1.1-.03,.84-.55l-15.4-32.48,11.54,7.83c.7,.45,1.57-.36,1.16-1.1l-14.15-24.52c.64,.35,2.09,.9,5.22,1.64,1,.26,1.8-.81,1.25-1.71-11.79-20.01-15.08-54.6-15.08-54.6l-.06-.19s-2.71,34.94-14.54,54.92c-.51,.84,.23,1.84,1.19,1.61,3.23-.77,4.71-1.29,5.39-1.67l-14.15,24.52c-.45,.74,.42,1.55,1.12,1.1l11.58-7.83-15.41,32.48c-.26,.52,.45,1,.84,.55l12.02-13.86s-12.76,39.03-17.28,52.83c-.29,.97,.91,1.71,1.62,.97,4.28-4.23,11.37-10.54,12.02-11.12-.71,1.41-24.5,48.41-22.72,47.7,1.77-.7,19.67-25.94,20.23-26.73l-19.85,63.18c-.48,1.51,1.36,2.64,2.48,1.51l11.96-11.92-23.69,59.62c-.29,.78,.78,1.33,1.23,.62l10.89-17.25-12.47,35.91-10.7-26.91,6.02,6.02c.55,.55,1.49-.03,1.23-.77l-9.96-31.78s9.25,13.09,10.15,13.47c.9,.36-10.7-22.56-11.41-23.94,.45,.35,3.94,3.44,6.03,5.54,.35,.39,.97,0,.81-.48-2.2-6.71-8.29-25.34-8.64-26.5l6.03,6.9c.19,.23,.54,0,.41-.26l-7.76-16.34,5.83,3.93c.35,.26,.77-.16,.58-.54l-7.12-12.32c.32,.2,1.09,.45,2.7,.84,.49,.13,.84-.39,.62-.8-5.97-10.06-7.32-27.63-7.32-27.63l-.06,.1s-1.61,17.41-7.58,27.46c-.26,.45,.13,.97,.65,.87,1.58-.39,2.29-.64,2.64-.84l-7.12,12.32c-.23,.38,.22,.8,.58,.54l5.8-3.93-7.74,16.34c-.13,.26,.23,.49,.42,.26l6.03-6.9c-.29,1.16-5.42,19.92-7.28,26.53-.13,.42,.41,.71,.7,.38,1.71-2.06,4.32-5.02,4.74-5.47-.71,1.38-12.28,24.3-11.41,23.94,.91-.38,10.19-13.47,10.19-13.47l-9.99,31.78c-.23,.74,.71,1.32,1.25,.77l6-6.02-10.96,27.62-13.31-33.59,7.41,7.42c.71,.7,1.87,0,1.58-.94l-12.38-39.38s11.48,16.21,12.61,16.66c1.1,.44-13.72-28.82-14.17-29.7,.28,.24,4.81,4.26,7.5,6.94,.45,.42,1.19-.03,.99-.64-2.7-8.32-10.28-31.39-10.73-32.84l7.48,8.57c.22,.29,.68,0,.51-.32l-9.6-20.24,7.22,4.86c.42,.3,.97-.19,.71-.67l-8.83-15.28c.42,.23,1.35,.58,3.35,1.03,.58,.16,1.06-.48,.74-1-7.38-12.44-9.06-34.19-9.06-34.19l-.03,.09s-2.03,21.57-9.41,34.04c-.32,.55,.16,1.19,.77,1.06,1.97-.48,2.87-.8,3.29-1.03l-8.83,15.28c-.26,.48,.29,.97,.71,.67l7.22-4.86-9.61,20.24c-.16,.32,.26,.61,.52,.32l7.48-8.57c-.39,1.45-6.67,24.69-9.03,32.9-.16,.52,.52,.87,.87,.46,2.17-2.63,5.65-6.52,5.92-6.82-.45,.88-15.28,30.14-14.17,29.7,1.13-.45,12.6-16.66,12.6-16.66l-12.37,39.38c-.29,.94,.87,1.64,1.55,.94l7.44-7.42-9.76,24.66-12.48-27.85c.74,.71,12.35,12.15,13.51,12.51,1.2,.32-14.81-21.76-15.24-22.36,.31,.19,5.17,3.21,8.05,5.21,.48,.36,1.29,0,1.09-.45-2.97-6.38-11.3-24.18-11.56-24.74l8.05,6.46c.26,.23,.74,0,.58-.25l-10.34-15.22,7.76,3.68c.45,.23,1.03-.16,.74-.52l-9.47-11.47c.45,.16,1.45,.42,3.61,.77,.64,.1,1.13-.35,.8-.74-7.92-9.38-9.73-25.75-9.73-25.75l-.06,.1s-2.16,16.21-10.09,25.59c-.36,.38,.19,.9,.84,.77,2.09-.32,3.06-.58,3.51-.74l-9.48,11.47c-.29,.36,.29,.75,.78,.52l7.73-3.68-10.31,15.22c-.16,.25,.29,.48,.55,.25l8.04-6.46c-.21,.56-7.15,18.49-9.69,24.77-.16,.39,.55,.68,.94,.36,2.25-1.94,5.86-4.77,6.32-5.13-.75,1.03-16.38,22.66-15.22,22.34,1.2-.36,12.8-11.8,13.54-12.51l-13.28,29.59c-.29,.71,.94,1.22,1.68,.71l7.99-5.61-13.89,24.53-10.86-31.27,8.02,12.73c.32,.52,1.13,.13,.9-.45l-17.46-44.02,8.83,8.8c.8,.83,2.19,0,1.83-1.1l-14.63-46.6c.81,1.12,13.6,19.17,14.92,19.69,1.29,.51-15.92-33.46-16.76-35.16,.62,.54,5.74,5.06,8.84,8.15,.54,.55,1.41,0,1.19-.74-3.27-9.99-12.47-38.07-12.75-38.95l8.88,10.2c.29,.32,.81,0,.61-.42l-11.37-23.95,8.54,5.74c.51,.36,1.16-.22,.83-.77l-10.44-18.12c.49,.26,1.61,.68,4,1.23,.68,.19,1.22-.55,.87-1.16-8.74-14.76-10.73-40.58-10.73-40.58l-.07,.16s-2.42,25.53-11.15,40.32c-.39,.65,.23,1.42,.94,1.26,2.32-.58,3.38-.97,3.86-1.23l-10.44,18.12c-.32,.55,.32,1.13,.84,.77l8.54-5.74-11.38,23.95c-.19,.42,.32,.74,.61,.42l8.89-10.2c-.23,.88-7.89,29.12-10.72,39.01-.16,.65,.64,1.07,1.06,.55,2.45-3,6.29-7.28,6.93-7.99-1,2.03-18.05,35.64-16.73,35.13,1.29-.52,14.09-18.57,14.89-19.69l-14.6,46.6c-.35,1.1,1,1.93,1.84,1.1l8.8-8.8-12.28,30.94-16.5-41.64,10.47,10.5c.97,.97,2.61-.03,2.19-1.35l-17.4-55.37c.97,1.35,16.21,22.79,17.73,23.4,1.59,.63-19.31-40.57-19.94-41.81,.31,.33,5.21,5.83,8.3,9.58,.48,.61,1.45,.1,1.26-.65-3.37-11.76-12.47-45.3-12.75-46.35l10.56,12.13c.35,.38,.96-.04,.74-.49l-13.54-28.49,10.15,6.87c.62,.41,1.39-.29,1-.97l-12.41-21.5c.58,.32,1.84,.78,4.58,1.45,.87,.2,1.58-.74,1.13-1.51-10.38-17.54-13.25-47.9-13.25-47.9l-.06-.16s-2.35,30.65-12.77,48.19c-.41,.71,.23,1.61,1.07,1.41,2.83-.67,4.12-1.16,4.7-1.48l-12.4,21.5c-.36,.68,.38,1.38,1.03,.97l10.12-6.87-13.51,28.49c-.22,.45,.39,.87,.71,.49l10.56-12.13c-.34,1.04-11.26,34.39-15.13,46.29-.29,.84,.77,1.51,1.41,.87,3.9-3.9,10.57-9.77,10.57-9.77,0,0-21.56,42.48-19.98,41.84,1.52-.61,16.76-22.05,17.73-23.4l-17.37,55.37c-.42,1.32,1.19,2.32,2.16,1.35l10.47-10.5-20.72,52.31c-.29,.67,.67,1.16,1.06,.54l9.54-15.11-10.8,31.04-20.08-50.61,10.51,10.48c.97,.97,2.58,0,2.16-1.32l-17.37-55.37c.97,1.35,16.21,22.78,17.73,23.4,1.55,.6-19.35-40.6-19.98-41.84,.31,.33,5.25,5.86,8.34,9.61,.48,.61,1.45,.09,1.22-.65-3.38-11.96-12.73-46.41-12.73-46.41l10.58,12.18c.32,.39,.93-.03,.7-.48l-13.5-28.49,10.12,6.83c.65,.42,1.39-.29,1.03-.93l-12.41-21.5c.55,.29,1.84,.77,4.58,1.42,.87,.22,1.58-.71,1.1-1.49-10.35-17.56-13.22-47.89-13.22-47.89l-.1-.16s-2.35,30.62-12.73,48.18c-.45,.71,.23,1.58,1.04,1.39,2.83-.68,4.15-1.13,4.73-1.45l-12.41,21.5c-.38,.64,.39,1.35,1,.93l10.16-6.83-13.54,28.49c-.23,.45,.39,.87,.74,.48l10.56-12.16c-.34,1.05-11.26,34.43-15.14,46.33-.29,.83,.78,1.48,1.39,.87,3.93-3.9,10.57-9.8,10.57-9.8,0,0-21.56,42.48-19.95,41.87,1.52-.62,16.73-22.05,17.7-23.4l-17.38,55.37c-.42,1.32,1.23,2.29,2.2,1.32l10.47-10.48-16.41,41.36c-4.09-6.16-12.6-17.89-13.11-18.63,.45,.35,4.06,3.19,6.31,5.12,.39,.32,1.13,.03,.97-.35-2.57-6.28-9.51-24.22-9.72-24.78l8.05,6.47c.25,.23,.74,0,.58-.26l-10.35-15.21,7.73,3.67c.49,.23,1.07-.16,.78-.51l-9.48-11.51c.45,.2,1.42,.42,3.52,.78,.67,.13,1.19-.39,.83-.78-7.89-9.38-10.08-25.62-10.08-25.62l-.07-.06s-1.8,16.37-9.73,25.75c-.32,.38,.16,.84,.8,.74,2.16-.36,3.16-.61,3.61-.81l-9.47,11.51c-.29,.35,.29,.74,.77,.51l7.74-3.67-10.32,15.21c-.16,.26,.29,.49,.55,.26l8.05-6.47c-.26,.56-8.58,18.37-11.56,24.74-.2,.46,.61,.81,1.09,.46,2.88-2.01,7.74-5.03,8.05-5.22-.43,.6-16.41,22.68-15.23,22.36,1.19-.35,12.79-11.79,13.53-12.5l-12.66,28.2-9.8-17.31,7.99,5.61c.74,.51,1.97,0,1.68-.71l-13.28-29.59c.74,.71,12.34,12.15,13.54,12.51,1.16,.32-14.48-21.31-15.22-22.34,.45,.36,4.06,3.16,6.32,5.1,.39,.32,1.1,.06,.93-.33-2.53-6.28-9.51-24.21-9.72-24.77l8.08,6.47c.26,.19,.71,0,.55-.26l-10.31-15.21,7.73,3.64c.48,.22,1.06-.13,.77-.49l-9.47-11.5c.42,.16,1.42,.42,3.51,.77,.65,.13,1.19-.39,.84-.8-7.93-9.38-10.09-25.59-10.09-25.59l-.06-.07s-1.81,16.34-9.74,25.72c-.32,.39,.16,.87,.78,.77,2.19-.38,3.19-.61,3.61-.8l-9.48,11.5c-.26,.36,.32,.71,.77,.49l7.74-3.64-10.31,15.21c-.16,.26,.32,.45,.58,.26l8.04-6.47c-.26,.56-8.61,18.36-11.56,24.71-.22,.48,.58,.8,1.07,.48,2.83-2,7.57-4.9,8.05-5.19-.67,.94-11.5,15.89-14.5,20.76l-12.05-38.45c.77,1.09,13.21,18.63,14.47,19.11,1.3,.51-15.81-33.19-16.33-34.21,.25,.27,4.29,4.79,6.82,7.85,.39,.51,1.19,.09,1-.52-2.73-9.61-10.17-37.09-10.4-37.95l8.63,9.94c.29,.33,.77-.03,.61-.38l-11.06-23.31,8.29,5.58c.51,.35,1.13-.23,.84-.74l-10.19-17.63c.48,.26,1.52,.64,3.77,1.19,.71,.16,1.29-.58,.9-1.22-8.47-14.35-10.83-39.19-10.83-39.19l-.06-.13s-1.93,25.07-10.41,39.41c-.35,.62,.16,1.32,.84,1.16,2.32-.54,3.38-.93,3.87-1.22l-10.16,17.63c-.32,.51,.33,1.09,.84,.74l8.28-5.58-11.05,23.31c-.19,.35,.32,.71,.58,.38l8.64-9.89c-.52,1.61-8.96,27.43-12.22,37.35l-14.69-37.03,10.24,10.25c.94,.97,2.52,0,2.13-1.29l-16.98-54.15c.93,1.33,15.82,22.31,17.3,22.89,1.52,.58-18.27-38.45-19.46-40.8,.67,.7,5.22,5.8,8.09,9.31,.48,.58,1.41,.1,1.22-.65-3.27-11.48-12.19-44.29-12.46-45.32l10.33,11.87c.33,.35,.94-.03,.71-.48l-13.21-27.85,9.89,6.7c.62,.42,1.36-.29,1-.93l-12.15-21.01c.58,.29,1.84,.74,4.51,1.38,.84,.23,1.52-.68,1.07-1.45-10.12-17.15-12.93-46.83-12.93-46.83l-.06-.16s-2.32,29.97-12.47,47.12c-.42,.71,.22,1.55,1.03,1.35,2.77-.64,4.03-1.12,4.61-1.41l-12.15,21.01c-.36,.64,.38,1.35,.99,.93l9.93-6.7-13.24,27.85c-.2,.45,.38,.83,.74,.48l10.3-11.87c-.33,1.02-11.01,33.61-14.78,45.26-.29,.84,.74,1.45,1.38,.84,3.58-3.58,9.51-8.83,10.25-9.48-.77,1.58-20.98,41.45-19.47,40.84,1.49-.58,16.41-21.56,17.34-22.89l-16.98,54.15c-.42,1.29,1.16,2.26,2.13,1.29l10.25-10.25-20.31,51.15c-.26,.64,.68,1.13,1.06,.52l9.32-14.77-15.7,45.13-14.02-35.39,8.8,8.8c.84,.83,2.19,0,1.84-1.1l-14.6-46.6c.8,1.12,13.6,19.17,14.89,19.69,1.32,.51-15.73-33.1-16.73-35.13,.65,.71,4.48,4.99,6.93,7.99,.42,.52,1.23,.1,1.06-.55-2.82-9.89-10.49-38.13-10.72-39.01l8.89,10.2c.29,.32,.8,0,.61-.42l-11.38-23.95,8.54,5.74c.52,.36,1.16-.22,.84-.77l-10.44-18.12c.48,.26,1.55,.65,3.87,1.23,.71,.16,1.32-.61,.93-1.26-8.73-14.79-11.15-40.32-11.15-40.32l-.06-.16s-2,25.82-10.74,40.58c-.35,.61,.2,1.35,.87,1.16,2.39-.55,3.52-.97,4-1.23l-10.44,18.12c-.33,.55,.32,1.13,.83,.77l8.55-5.74-11.38,23.95c-.19,.42,.32,.74,.61,.42l8.89-10.2c-.28,.88-9.49,28.96-12.76,38.95-.22,.74,.65,1.29,1.2,.74,3.09-3.09,8.21-7.61,8.83-8.15-.84,1.7-18.05,35.67-16.76,35.16,1.32-.52,14.11-18.57,14.92-19.69l-14.63,46.6c-.36,1.1,1.03,1.93,1.83,1.1l8.84-8.8-17.47,44.02c-.23,.58,.58,.97,.9,.45l8.02-12.73-10.86,31.27-13.89-24.53,7.99,5.61c.75,.51,1.97,0,1.68-.71l-13.28-29.59c.74,.71,12.35,12.15,13.54,12.51,1.16,.32-14.47-21.31-15.21-22.34,.45,.36,4.06,3.19,6.31,5.13,.39,.32,1.1,.03,.94-.36-2.54-6.28-9.48-24.21-9.69-24.77l8.04,6.46c.26,.23,.71,0,.55-.25l-10.31-15.22,7.73,3.68c.49,.23,1.07-.16,.78-.52l-9.48-11.47c.45,.16,1.42,.42,3.51,.74,.65,.13,1.2-.39,.84-.77-7.93-9.38-10.09-25.59-10.09-25.59l-.06-.1s-1.8,16.37-9.73,25.75c-.33,.39,.16,.84,.8,.74,2.16-.35,3.16-.61,3.61-.77l-9.47,11.47c-.29,.36,.29,.75,.74,.52l7.77-3.68-10.35,15.22c-.16,.25,.32,.48,.58,.25l8.05-6.46c-.26,.56-8.58,18.36-11.56,24.74-.2,.45,.61,.81,1.09,.45,2.88-2,7.74-5.02,8.05-5.21-.43,.6-16.44,22.68-15.23,22.36,1.16-.36,12.76-11.8,13.5-12.51l-12.47,27.85-9.77-24.66,7.45,7.42c.67,.7,1.83,0,1.54-.94l-12.37-39.38s11.47,16.21,12.6,16.66c1.11,.44-13.72-28.82-14.17-29.7,.27,.3,3.75,4.19,5.92,6.82,.35,.41,1.03,.06,.87-.46-2.35-8.21-8.64-31.45-9.03-32.9l7.48,8.57c.26,.29,.68,0,.52-.32l-9.61-20.24,7.22,4.86c.42,.3,.97-.19,.71-.67l-8.83-15.28c.42,.23,1.32,.55,3.29,1.03,.61,.13,1.09-.51,.77-1.06-7.38-12.47-9.41-34.04-9.41-34.04l-.03-.09s-1.68,21.75-9.06,34.19c-.32,.52,.16,1.16,.74,1,2-.45,2.93-.8,3.35-1.03l-8.83,15.28c-.26,.48,.29,.97,.71,.67l7.22-4.86-9.6,20.24c-.16,.32,.29,.61,.51,.32l7.48-8.57c-.45,1.45-8.03,24.52-10.73,32.84-.2,.61,.55,1.06,1,.64,2.68-2.68,7.22-6.7,7.5-6.94-.45,.88-15.28,30.14-14.18,29.7,1.13-.45,12.61-16.66,12.61-16.66l-12.38,39.38c-.29,.94,.87,1.64,1.55,.94l7.44-7.42-13.31,33.59-10.96-27.62,6,6.02c.55,.55,1.48-.03,1.26-.77l-10-31.78s9.29,13.09,10.19,13.47c.87,.36-10.7-22.56-11.41-23.94,.42,.45,3.03,3.41,4.74,5.47,.29,.33,.83,.04,.71-.38-1.87-6.61-7-25.37-7.29-26.53l6.03,6.9c.19,.23,.55,0,.42-.26l-7.74-16.34,5.8,3.93c.36,.26,.81-.16,.58-.54l-7.12-12.32c.36,.2,1.07,.45,2.64,.84,.52,.1,.91-.42,.65-.87-5.96-10.05-7.58-27.46-7.58-27.46l-.06-.1s-1.35,17.57-7.32,27.63c-.22,.41,.13,.93,.62,.8,1.61-.39,2.38-.64,2.7-.84l-7.12,12.32c-.19,.38,.23,.8,.58,.54l5.84-3.93-7.77,16.34c-.13,.26,.22,.49,.42,.26l6.02-6.9c-.35,1.16-6.44,19.79-8.63,26.5-.17,.48,.45,.87,.8,.48,2.1-2.1,5.58-5.19,6.03-5.54-.71,1.38-12.31,24.3-11.41,23.94,.9-.38,10.15-13.47,10.15-13.47l-9.96,31.78c-.26,.74,.68,1.32,1.23,.77l6.02-6.02-9.44,23.75c-3.8-2.26-7.35-4.51-10.67-6.74l-11.86-34.16,8.03,12.73c.32,.52,1.13,.1,.9-.45l-17.47-44.03,8.83,8.8c.81,.84,2.19,0,1.84-1.09l-14.63-46.61c.8,1.13,13.6,19.18,14.92,19.69,1.29,.52-15.76-33.1-16.76-35.13,.64,.71,4.51,5,6.96,8,.42,.51,1.23,.09,1.03-.55-2.79-9.9-10.48-38.13-10.72-39.01l8.89,10.19c.29,.33,.8,0,.61-.41l-11.38-23.95,8.54,5.74c.52,.35,1.16-.23,.87-.78l-10.47-18.11c.48,.26,1.58,.64,3.87,1.22,.74,.16,1.32-.61,.93-1.25-8.73-14.8-11.12-40.32-11.12-40.32l-.1-.16s-1.96,25.78-10.7,40.57c-.38,.62,.16,1.36,.87,1.16,2.39-.54,3.48-.96,3.97-1.22l-10.44,18.11c-.33,.55,.32,1.13,.83,.78l8.54-5.74-11.37,23.95c-.2,.41,.32,.74,.61,.41l8.89-10.19c-.28,.88-9.46,28.95-12.73,38.94-.25,.74,.65,1.29,1.16,.74,3.1-3.09,8.22-7.6,8.84-8.15-.84,1.71-18.05,35.68-16.73,35.16,1.29-.51,14.08-18.56,14.89-19.69l-14.6,46.61c-.36,1.09,1,1.93,1.84,1.09l8.79-8.8-8.38,21.18c-4.77-1.52-10.02-2.68-15.98-3.39l-12.47-39.8c.8,1.13,13.6,19.18,14.92,19.69,1.29,.52-15.76-33.1-16.76-35.13,.64,.71,4.48,5,6.93,7.99,.42,.52,1.22,.1,1.06-.54-2.83-9.9-10.49-38.13-10.72-39.01l8.88,10.19c.29,.32,.81,0,.62-.38l-11.38-23.98,8.54,5.77c.52,.35,1.16-.26,.84-.81l-10.44-18.11c.48,.29,1.54,.67,3.86,1.22,.74,.16,1.32-.61,.94-1.26-8.74-14.76-11.15-40.31-11.15-40.31l-.07-.13s-1.96,25.78-10.73,40.54c-.36,.61,.19,1.36,.9,1.19,2.39-.58,3.48-.96,3.97-1.25l-10.45,18.11c-.32,.55,.33,1.16,.84,.81l8.54-5.77-11.37,23.98c-.2,.38,.32,.7,.61,.38l8.88-10.19c-.28,.88-9.48,28.95-12.75,38.97-.23,.71,.68,1.26,1.19,.71,3.1-3.06,8.22-7.6,8.83-8.15-.83,1.71-18.05,35.68-16.72,35.16,1.29-.51,14.08-18.56,14.89-19.69l-12.35,39.35c-3.12-6.31-6.41-12.86-6.83-13.66,.45,.48,3.35,3.74,5.19,5.96,.29,.39,.9,.06,.77-.39-2.06-7.25-7.6-27.72-7.93-28.97l6.58,7.54c.19,.26,.58,0,.45-.29l-8.44-17.82,6.31,4.28c.39,.26,.87-.19,.65-.58l-7.77-13.47c.35,.19,1.16,.48,2.87,.9,.55,.13,.97-.45,.71-.93-6.51-10.96-8.29-29.98-8.29-29.98l-.06-.09s-1.45,19.17-7.96,30.13c-.29,.49,.13,1.03,.64,.91,1.78-.42,2.61-.75,2.97-.94l-7.77,13.47c-.22,.39,.23,.84,.61,.58l6.35-4.28-8.44,17.82c-.13,.29,.26,.55,.45,.29l6.57-7.54c-.38,1.25-7.02,21.59-9.44,28.91-.16,.55,.48,.93,.9,.55,2.26-2.26,6.1-5.68,6.58-6.1-.39,.78-13.47,26.56-12.47,26.14,.99-.38,11.12-14.66,11.12-14.66l-6.71,21.27c-4.12,1.68-8.15,3.29-12.05,4.83l-10.03-25.3,10.48,10.48c.97,1,2.61,0,2.19-1.32l-17.4-55.37c.96,1.35,16.21,22.78,17.72,23.4,1.59,.63-19.31-40.6-19.94-41.84,.31,.33,5.22,5.86,8.31,9.61,.48,.61,1.45,.09,1.25-.65-3.41-11.96-12.76-46.38-12.76-46.38l10.57,12.15c.36,.39,.97-.03,.74-.48l-13.53-28.49,10.15,6.86c.61,.42,1.39-.29,1-.96l-12.41-21.5c.58,.32,1.84,.77,4.58,1.42,.87,.22,1.58-.71,1.13-1.49-10.38-17.53-13.25-47.89-13.25-47.89l-.07-.16s-2.35,30.62-12.76,48.18c-.42,.71,.23,1.61,1.06,1.39,2.84-.65,4.13-1.13,4.71-1.45l-12.41,21.5c-.35,.67,.39,1.38,1,.96l10.15-6.86-13.5,28.49c-.23,.45,.39,.87,.71,.48l10.56-12.13c-.34,1.04-11.27,34.4-15.14,46.3-.29,.83,.77,1.48,1.42,.87,3.9-3.9,10.57-9.8,10.57-9.8,0,0-21.56,42.51-19.98,41.87,1.51-.62,16.76-22.05,17.72-23.4l-17.37,55.37c-.42,1.32,1.2,2.32,2.16,1.32l10.48-10.48-10.19,25.72-12.63-31.87,6.54,6.54c.61,.61,1.64,0,1.39-.8l-10.9-34.68s10.09,14.27,11.09,14.66c.97,.39-11.67-24.59-12.44-26.11,.45,.49,3.35,3.71,5.16,5.97,.32,.35,.9,.03,.77-.42-2.03-7.25-7.61-27.69-7.93-28.94l6.58,7.54c.22,.22,.61-.04,.45-.32l-8.45-17.8,6.35,4.26c.39,.29,.87-.16,.61-.58l-7.76-13.44c.38,.19,1.16,.48,2.87,.9,.54,.13,1-.45,.71-.93-6.48-10.99-8.29-29.98-8.29-29.98l-.03-.09s-1.48,19.14-7.99,30.13c-.26,.45,.16,1,.67,.87,1.78-.42,2.58-.71,2.94-.9l-7.77,13.44c-.23,.42,.26,.87,.64,.58l6.35-4.26-8.47,17.8c-.13,.28,.25,.54,.48,.32l6.57-7.54c-.38,1.25-7.05,21.56-9.44,28.91-.19,.51,.48,.93,.87,.51,2.29-2.26,6.09-5.64,6.58-6.06-.39,.78-13.44,26.53-12.48,26.14,1-.39,11.12-14.66,11.12-14.66l-7.54,23.94c-4.61-2.99-9.18-5.73-13.66-8.18l-6.39-16.05,8.83,8.83c.81,.8,2.2-.04,1.84-1.13l-14.63-46.61c.81,1.13,13.6,19.18,14.92,19.7,1.29,.51-15.76-33.1-16.76-35.13,.65,.71,4.51,4.99,6.96,7.99,.42,.52,1.23,.1,1.04-.55-2.8-9.89-10.49-38.13-10.73-39.01l8.89,10.2c.29,.32,.8,0,.61-.39l-11.38-23.98,8.54,5.77c.52,.36,1.16-.26,.87-.8l-10.47-18.12c.48,.26,1.58,.68,3.87,1.23,.74,.16,1.32-.62,.93-1.26-8.73-14.79-11.12-40.32-11.12-40.32l-.06-.13s-2,25.79-10.73,40.55c-.39,.61,.16,1.35,.87,1.19,2.38-.58,3.48-.97,3.96-1.26l-10.44,18.12c-.32,.54,.32,1.16,.84,.8l8.54-5.77-11.38,23.98c-.19,.39,.32,.71,.61,.39l8.89-10.2c-.28,.88-9.45,28.95-12.72,38.95-.26,.74,.64,1.29,1.16,.74,3.09-3.06,8.22-7.61,8.83-8.16-.84,1.71-18.05,35.68-16.73,35.17,1.29-.52,14.12-18.57,14.92-19.7l-11.5,36.62c-1.23-.26-2.42-.49-3.61-.68l-20.86-52.57,11.93,11.93c1.1,1.13,2.93,0,2.48-1.48l-19.81-63.09c.56,.79,18.42,25.97,20.2,26.7,1.77,.71-22.01-46.19-22.72-47.61,.32,.39,5.96,6.64,9.47,10.93,.55,.68,1.65,.1,1.39-.74-3.84-13.6-14.47-52.79-14.47-52.79l12.02,13.82c.38,.45,1.06,0,.8-.54l-15.37-32.4,11.54,7.8c.71,.49,1.58-.35,1.16-1.09l-14.12-24.46c.65,.35,2.1,.9,5.22,1.64,.97,.22,1.78-.84,1.26-1.71-11.83-19.98-15.05-54.5-15.05-54.5l-.1-.19s-2.67,34.87-14.5,54.82c-.52,.84,.26,1.84,1.19,1.61,3.22-.77,4.71-1.32,5.35-1.67l-14.12,24.46c-.41,.74,.46,1.58,1.17,1.09l11.53-7.8L1.55,148.58c-.23,.54,.45,.99,.84,.54l12.01-13.8c-.27,.82-8.95,27.35-14.4,44.04v8.44c4.25-4.13,10.19-9.38,10.77-9.9-.33,.65-5.45,10.8-10.77,21.57v10.86c4.24-5.84,8.04-11.2,8.27-11.52L0,225.15v29.17l2.87-2.87-2.87,7.26v233.02H1611.5v-225.19l-4-7.83,4,5.6v-32.45l-4-11.51,4,6.32v-8.41ZM65.07,303.12l-3.03-8.74,5.74,9.09c-.9-.13-1.81-.26-2.71-.35Zm220.33,48.5s-.04,.04-.07,.04l-3.16-10.09s2,2.8,4.29,5.99l-1.1,3.48c-.06,.23,0,.42,.04,.58Zm8.34-2.51c-1.03,.29-2.06,.58-3.09,.9-.13-.29-.26-.58-.42-.87l5.8-5.8-2.29,5.77Zm37.62-5.48l-.1-.29,.29,.29h-.19Zm101.46,56.89c-.26-.13-.49-.29-.75-.42l1.97-3.13-1.22,3.55Zm42.35,12.28l-5.52-15.83,4.61,7.32-.87,2.22c-.19,.49,.49,.84,.78,.39l.87-1.39,.09,.13c.23,.36,.78,.07,.62-.32l-.23-.55,5.42-8.6-5.77,16.63Zm53.11-7.38l-3.22-9.25,4.48,7.05-1.26,2.2Zm2.29-4.03l-1.97-4.97,7.93-5.54-5.96,10.51Zm50.15,18.72l-4.51-9.05,5.54,6.12-1.03,2.93Zm68.2-26.23l-3.39-9.74,4.35,6.93-.96,2.81Zm4.35,12.57l-1.74-5.03,15.18-21.27-13.44,26.3Zm76.32-22.11l-2.13-4.19,2.39,3.38-.26,.81Zm-2.13-41.68l6.19,9.8c-.55,1.1-1.1,2.23-1.64,3.32l-4.55-13.12Zm6.83,50.93l-.93-1.87,1.35-1.36,.58,.78-1,2.45Zm1.17-27.88l-1.94-5.58c.9-1.29,1.81-2.51,2.64-3.67l.62,.97c.38,.61,1.29,.12,1.03-.52l-.68-1.77c1.6-2.24,2.78-3.88,2.92-4.08l-4.59,14.65Zm-.49-15.95l-2.19-5.58c.16,0,.32-.07,.45-.19,3.03-3,8.12-7.55,8.61-7.93-.39,.74-3.45,6.83-6.87,13.7Zm45.96,65.68l-2.64-6.64c.32,.32,1.03,.48,1.51,.13l8.03-5.61-6.9,12.12Zm-2.77-7.22s-.03,.06-.03,.1l-7.74-19.41,8.58,8.58c.8,.77,2.12,0,1.8-1.1l-1.87-5.96c3.22-2.64,12.54-11.83,12.54-11.83l-13.28,29.62Zm52.86,22.34l-3.52-7.1,4.61,5.13-1.09,1.97Zm2.09-3.68l-2.38-4.22,7.89-5.54-5.51,9.76Zm44.67-24.14l-2.9,7.35-7.93-17.69s6.84,6.76,10.83,10.34Zm-2.67,22.37l-4.55-7.99,5.87,4.12-1.32,3.87Zm8.64,12.66h-.39l1.29-1.8-.9,1.8Zm-5.81-20.85l-2.28-5.06,4.51-7.12c.13,.1,.26,.16,.32,.19,.13,.03,.03-.19-.13-.51l4.29-6.8-6.71,19.3Zm69.49,20.27l-.64-1.22,.71,1-.07,.22Zm5.09,9.96l-.29-.51h.55l-.26,.51Zm1.49-28.84l-7.22-20.69,9.28,14.69-2.06,6Zm7.05,45.6l-.38-.77h4.22c-1.29,.26-2.55,.52-3.84,.77Zm-1.7-30.16l-1.07-3.03,9.22-12.93-8.15,15.96Zm70.29-54.31l4.83,7.7-1.16,2.93-3.67-10.63Zm4.71,47.57l-.91-1.74,.74-1.06,.94,1.29-.77,1.51Zm1.16-30.68l-1.23-3.52,1.9-2.99,1.03,1.61-1.7,4.9Zm2.64-7.61l-.52-1.26,2.1-3.32-1.58,4.58Zm66.39,31.39l-1.03-2.93,5.54-6.12-4.51,9.05Zm44.19-29.23l7.93,5.54-1.97,4.97-5.96-10.51Zm8.25,14.54l-1.26-2.2,4.48-7.05-3.22,9.25Zm53.12,7.38l-5.77-16.63,5.41,8.6-.22,.55c-.17,.39,.38,.68,.61,.32l.09-.13,.87,1.39c.29,.45,.97,.1,.78-.39l-.87-2.22,4.61-7.32-5.51,15.83Zm44.47-6.19l-3.35-9.64,4.32,6.87-.97,2.77Zm13.31,4.83h-.29l.97-1.32-.68,1.32Zm72.39-42.54l-.87-2.55,1.13,1.81-.26,.74Zm3.74,10.76l-.06-.19,.58-.8-.52,.99Zm-1.1-18.33l-.51-1.26,2.13-3.39-1.62,4.65Zm36.07-42.65l-2.22,6.35-5.15-16.48c.26,.36,4.43,6.26,7.37,10.13Zm-2.58,21.66l-1.19-2.99,.58-.81,1.68,1.71-1.07,2.09Zm3.19-6.28l-.61-2,5.83-8.19-5.22,10.19Zm36.39-50.34l-1.39-3.45,1.91,1.9-.52,1.55Zm-4.09-29.98s8.12,11.51,9.89,13.25l-3.03,8.67-6.86-21.92Zm8.8,41.87l-1.07-2.64,8.48-11.9-7.41,14.54Zm1.25-29.04c-.32-.87-1.13-2.61-2.16-4.84,.1-.03,.23-.09,.29-.22l8.03-12.73-6.16,17.79Zm63.01-4.77l-4.54-13.02,5.83,9.25-1.29,3.77Zm3.35,9.67l-.38-1.07,3.25-4.54-2.87,5.61Zm-1.16-15.99l-1.29-3.19,5.32-8.41-4.03,11.6Zm41.29,13.6l-1.64-3.22,1.83,2.61-.19,.61Zm10.57,2.1c-.9,.06-1.77,.13-2.67,.22v-.03l9.02-12.66-6.35,12.47Z"/>
  </g>
</svg>