<?xml version="1.0" encoding="UTF-8"?>
<svg id="Layer_2" data-name="Layer 2" xmlns="http://www.w3.org/2000/svg" viewBox="0 0 308.63 396.66">
  <defs>
    <style>
      .cls-1 {
        fill: #fff;
      }

      .cls-2 {
        opacity: .6;
      }

      .cls-3 {
        isolation: isolate;
      }
    </style>
  </defs>
  <g id="Capa_1" data-name="Capa 1">
    <g>
      <g class="cls-2">
        <path class="cls-1" d="M201.58,177.94H99.41l-7.07-8.46h119.38l-10.14,8.46Zm-101.17-2.12h100.4l5.05-4.21H96.89l3.52,4.21Z"/>
        <g>
          <g>
            <path class="cls-1" d="M217.26,242.49l-11.75-12.36,1.55-1.45,.41,.44,9.95,10.46,19.41-16.29-34.73-41.33h0s-.17-.2-.17-.2v-.39h.53l-.6-.7,1.16-.99,.71,.93h0s.08,.09,.11,.13l3.28,3.88,32.7,38.94-22.56,18.94Z"/>
            <path class="cls-1" d="M234.73,296.38h-.96l-15.45-2.35-.13-3.67-1.94-48,26.25-8.73-7.77,62.75Zm-14.34-4.18l12.48,1.91,.3-2.5,6.8-54.89-21.54,7.17,1.95,48.32Z"/>
            <path class="cls-1" d="M236.47,301.74l-20.72-4.01v-9.36l20.72,4.02v9.35Zm-18.6-5.76l16.47,3.19v-5.03l-16.47-3.19v5.03Z"/>
            <path class="cls-1" d="M228.42,321.39c-2,0-3.81-1.11-4.71-2.9-1.28-2.6-.23-5.77,2.35-7.08,1.61-.79,2.71-2.34,2.96-4.15,.07-.55,.05-1.12-.05-1.67-.16-.86-.52-1.63-1.05-2.29-.51-.66-1.17-1.2-1.92-1.58-.54-.25-1.1-.41-1.66-.48-.25-.03-.48-.05-.71-.05-2.7,0-4.99,2.02-5.33,4.71-.23,1.78,.44,3.55,1.77,4.72,2.15,1.92,2.34,5.24,.42,7.42-1.87,2.1-5.35,2.3-7.44,.43-3.91-3.49-5.86-8.69-5.2-13.9,.67-5.2,3.83-9.72,8.47-12.11,1.34-.72,2.84-1.24,4.43-1.54,1.58-.29,3.23-.33,4.9-.14,.61,.07,1.2,.18,1.8,.34,2.31,.56,4.43,1.62,6.29,3.16,.95,.77,1.8,1.63,2.51,2.56,2.05,2.64,3.2,5.8,3.32,9.14,.04,.86,0,1.75-.12,2.63-.66,5.25-3.9,9.83-8.66,12.22-.75,.37-1.56,.56-2.36,.56Zm-4.79-22.32c.32,0,.64,.02,.97,.06,.77,.09,1.55,.31,2.32,.67,1.07,.53,1.98,1.28,2.67,2.18,.73,.92,1.23,2,1.46,3.21,.14,.77,.16,1.55,.07,2.34-.34,2.52-1.88,4.68-4.12,5.78-1.53,.77-2.17,2.67-1.4,4.23,.75,1.48,2.65,2.16,4.23,1.39,4.12-2.07,6.92-6.03,7.5-10.6,.11-.77,.14-1.51,.11-2.26-.11-2.9-1.1-5.64-2.88-7.93-.61-.8-1.34-1.54-2.17-2.22-1.62-1.33-3.45-2.25-5.47-2.74-.51-.14-1-.23-1.52-.29-1.48-.17-2.91-.13-4.27,.11-1.37,.26-2.66,.71-3.83,1.33-4.04,2.08-6.78,6-7.35,10.5-.57,4.51,1.11,9.02,4.5,12.04,1.25,1.11,3.33,1,4.44-.25,1.14-1.3,1.03-3.28-.24-4.42-1.86-1.64-2.78-4.1-2.47-6.57,.47-3.74,3.66-6.57,7.44-6.57Z"/>
            <g>
              <g>
                <polygon class="cls-1" points="204.61 279.8 204.52 279.46 206.57 278.93 206.66 279.26 204.61 279.8"/>
                <polygon class="cls-1" points="160.73 366.75 158.6 366.75 158.6 360.65 166.03 356.55 159.25 350.52 166.03 342.86 159.42 337.47 160.04 336.35 166.04 328.88 159.12 322.87 165.04 314.81 164.86 314.69 157.57 307.78 162.52 300.87 157.78 296.53 159.21 294.96 164.98 300.23 164.98 301.04 164.78 301.36 160.37 307.51 166.17 313.03 168.09 314.25 161.99 322.55 168.68 328.36 168.25 329.52 162.23 337.02 169.14 342.65 167.92 343.92 162.23 350.36 170.56 357.72 167.79 358 160.73 361.9 160.73 366.75"/>
                <polygon class="cls-1" points="207.46 366.75 201.09 366.75 201.09 364.62 205.34 364.62 205.34 361.9 198.19 357.96 195.86 357.65 204.22 350.35 197.4 342.61 204.22 337.05 197.56 328.73 198.21 327.92 204.27 322.57 198.09 314.47 204.21 307.72 198.6 302.07 194.79 303.44 203.11 295 204.61 296.5 200.33 300.8 207.13 307.66 200.86 314.6 207.15 322.85 200.38 328.84 207.23 337.34 200.44 342.88 207.21 350.53 200.29 356.61 207.46 360.66 207.46 366.75"/>
              </g>
              <polygon class="cls-1" points="160.13 280.3 159.48 279.67 160.39 278.13 161.3 278.13 161.3 278.9 161.51 278.67 161.3 278.92 161.3 279.44 161.83 279.8 161.66 280.04 161.3 279.8 161.3 280.26 160.95 280.26 160.95 279.56 160.83 279.48 160.13 280.3"/>
              <polygon class="cls-1" points="206.47 280.2 205.67 279.48 204.84 280.04 204.67 279.8 205.44 279.27 204.88 278.78 205.47 279.25 206.42 278.6 207.09 279.57 206.47 280.2"/>
              <path class="cls-1" d="M200.63,314.85h-34.77l-7.47-8.28h49.71l-7.47,8.28Zm-33.82-2.12h32.88l3.63-4.03h-40.15l3.64,4.03Z"/>
              <path class="cls-1" d="M199.02,329.92h-33.66l.79-1.06-8.18-7.22h50.55l-8.17,7.21,.7,.92-2.02,.15Zm-30.86-2.12h30.17l4.57-4.03h-39.31l4.57,4.03Z"/>
              <path class="cls-1" d="M201.71,344.24h-36.94l1.27-1.38-6.74-5.5,1.11-1.39h45.68l1.11,1.39-6.75,5.51,1.26,1.38Zm-33.22-2.12h29.5l4.94-4.03h-39.39l4.94,4.03Z"/>
              <path class="cls-1" d="M198.45,358.04h-34.42l2.31-1.31-8-6.99h49.81l-8,6.99,2.19,1.25-3.89,.07Zm-29.81-2.12h29.21l4.64-4.06h-38.49l4.64,4.06Z"/>
            </g>
            <g>
              <g>
                <rect class="cls-1" x="141.77" y="279.19" width="2.12" height=".34" transform="translate(-66 45.2) rotate(-14.65)"/>
                <polygon class="cls-1" points="101.25 366.75 99.12 366.75 99.12 360.73 104.43 357.01 97.57 351.33 96.55 350.66 103.35 342.88 96.66 337.44 97.25 336.47 103.37 328.84 96.58 322.85 102.88 314.59 102.81 314.52 95.33 307.76 100.95 300.74 97.35 296.43 98.97 295.07 103.37 300.32 103.37 301.07 103.14 301.4 98.24 307.53 105.65 314.46 99.47 322.57 106.24 328.54 105.55 329.52 99.52 337.03 106.39 342.62 99.71 350.28 106.5 355.92 109.15 356.31 101.25 361.83 101.25 366.75"/>
                <polygon class="cls-1" points="143.73 366.75 135.23 366.75 135.23 364.62 141.61 364.62 141.61 361.88 134.97 357.88 133.28 357.25 134.67 356.1 141.38 350.32 134.65 342.6 141.47 337.04 134.75 328.54 141.51 322.57 135.34 314.46 141.5 307.67 134.77 300.79 135.35 300.01 139.59 295.06 141.2 296.44 137.6 300.65 144.42 307.62 138.11 314.59 144.4 322.85 137.62 328.84 144.44 337.36 137.66 342.89 144.44 350.58 143.11 351.63 137.19 356.73 143.73 360.68 143.73 366.75"/>
              </g>
              <polygon class="cls-1" points="97.36 280.28 96.74 279.66 97.62 278.13 98.55 278.13 98.55 278.92 98.78 278.69 98.55 278.95 98.55 279.43 99.08 279.78 98.91 280.03 98.55 279.79 98.55 280.26 98.19 280.26 98.19 279.56 98.08 279.48 97.36 280.28"/>
              <polygon class="cls-1" points="143.72 280.18 142.91 279.48 142.08 280.04 141.91 279.79 142.67 279.27 142.11 278.79 142.71 279.25 143.67 278.6 144.32 279.56 143.72 280.18"/>
              <path class="cls-1" d="M137.87,314.85h-34.77l-7.48-8.28h49.72l-7.47,8.28Zm-33.82-2.12h32.88l3.64-4.03h-40.16l3.64,4.03Z"/>
              <path class="cls-1" d="M136.26,329.92h-33.68l.8-1.07-8.18-7.22h50.55l-8.18,7.22,.66,.91-1.98,.15Zm-30.86-2.12h30.17l4.57-4.03h-39.32l4.57,4.03Z"/>
              <path class="cls-1" d="M138.94,344.24h-36.91l1.26-1.38-6.76-5.52,1.14-1.38h45.65l1.14,1.38-6.76,5.52,1.25,1.38Zm-33.21-2.12h29.51l4.94-4.03h-39.4l4.94,4.03Z"/>
              <path class="cls-1" d="M135.69,358.04h-34.21l2.13-1.29-8.02-7.02h49.8l-8.02,7.02,1.99,1.21-3.66,.07Zm-29.81-2.12h29.22l4.64-4.06h-38.5l4.64,4.06Z"/>
            </g>
            <path class="cls-1" d="M214.63,396.66h-63.83v-8.32h63.83v8.32Zm-61.7-2.12h59.58v-4.07h-59.58v4.07Z"/>
            <path class="cls-1" d="M184.31,390.47h-33.5v-4.2c0-14.42,11.74-26.16,26.16-26.16h7.34v30.36Zm-31.37-2.12h29.25v-26.12h-5.21c-13.25,0-24.04,10.78-24.04,24.04v2.08Z"/>
            <path class="cls-1" d="M173.2,186.91h-42.33v-15.2h42.33v15.2Zm-40.21-2.12h38.09v-10.95h-38.09v10.95Z"/>
            <polygon class="cls-1" points="90.47 244.19 67.19 226.19 94.57 190.77 96.25 192.07 70.17 225.81 90.19 241.28 94.61 236.24 96.21 237.64 90.47 244.19"/>
            <path class="cls-1" d="M207.46,292.4H92.75v-104.51c0-4.55,5.39-6.6,9.33-8.09,1.62-.63,3.85-.4,6.02-.18,1.01,.1,1.96,.2,2.77,.2h81.41c.78,0,1.57-.16,2.33-.31,1.28-.26,2.61-.52,3.98-.08,4.39,1.39,8.87,3.48,8.87,8.46v104.51Zm-112.58-2.12h110.46v-102.39c0-2.91-2.14-4.77-7.39-6.44h0c-.85-.28-1.8-.09-2.91,.14-.82,.16-1.75,.35-2.74,.35H110.87c-.92,0-1.92-.1-2.99-.21-1.82-.18-3.89-.39-5.04,.05-4.36,1.65-7.96,3.25-7.96,6.11v102.39Z"/>
            <path class="cls-1" d="M207.76,189.97h-2.12c0-3.29-2.96-6.36-7.54-7.81l-.74-.24v-2.76h6.42c3.15,0,3.99,6.8,3.99,10.81Zm-6.24-8.69c1.31,.68,2.45,1.5,3.39,2.42-.41-1.51-.91-2.32-1.18-2.43h-2.2Z"/>
            <path class="cls-1" d="M207.76,293.34h-10.41v-113.65l1.38,.44c5.48,1.74,9.02,5.6,9.02,9.84v103.37Zm-8.28-2.12h6.16v-101.25c0-2.95-2.37-5.72-6.16-7.3v108.55Z"/>
            <path class="cls-1" d="M105.59,291.4h-10.2v-101.43c0-3.97,3.07-7.6,8.01-9.46l1.1-.42,.3,1.14c.51,1.91,.79,4.33,.79,6.8v103.37Zm-8.08-2.12h5.95v-101.25c0-1.79-.16-3.54-.45-5.06-3.43,1.62-5.51,4.22-5.51,7v99.31Z"/>
            <path class="cls-1" d="M191.91,249.95H111.2l-1.86-4.49v-51.44h84.48l-.09,51.79-1.82,4.14Zm-79.32-2.12h77.93l1.17-2.67v-49.01H111.47v49.1l1.13,2.58Z"/>
            <path class="cls-1" d="M192.78,258.67H110.38v-5.09h82.4v5.09Zm-80.28-2.12h78.15v-.84H112.5v.84Z"/>
            <path class="cls-1" d="M192.78,246.2H110.38v-55.93h82.4v55.93Zm-80.27-2.12h78.15v-51.69H112.5v51.69Z"/>
            <path class="cls-1" d="M192.78,270.32H110.38v-5.09h82.4v5.09Zm-80.28-2.12h78.15v-.84H112.5v.84Z"/>
            <path class="cls-1" d="M192.78,281.12H110.38v-5.09h82.4v5.09Zm-80.27-2.12h78.15v-.84H112.5v.84Z"/>
            <path class="cls-1" d="M151.18,396.66h-63.83v-8.32h63.83v8.32Zm-61.71-2.12h59.58v-4.07h-59.58v4.07Z"/>
            <path class="cls-1" d="M154.29,56.14h-4.53V5.6h4.53V56.14Zm-2.4-2.12h.28V7.73h-.28V54.02Z"/>
            <path class="cls-1" d="M152.03,13.33c-3.67,0-6.66-2.99-6.66-6.66s2.99-6.66,6.66-6.66,6.66,2.99,6.66,6.66-2.99,6.66-6.66,6.66Zm0-11.2c-2.5,0-4.54,2.04-4.54,4.54s2.04,4.54,4.54,4.54,4.54-2.04,4.54-4.54-2.04-4.54-4.54-4.54Z"/>
            <path class="cls-1" d="M95.38,247.4l-30.54-8.81,3.2-12.32,27.34,21.13Zm-27.96-10.28l17.86,5.15-15.99-12.36-1.87,7.21Z"/>
            <path class="cls-1" d="M75.13,298.91l-10.32-62.54,26.58,7.67v51.72l-16.26,3.16Zm-7.68-59.57l9.42,57.07,12.4-2.41v-48.37l-21.81-6.29Z"/>
            <path class="cls-1" d="M72.69,303.06v-9.37l20.73-4v9.35l-20.73,4.02Zm2.12-7.62v5.04l16.49-3.2v-5.03l-16.49,3.18Z"/>
            <path class="cls-1" d="M80.75,322.71c-.81,0-1.6-.19-2.35-.56-4.77-2.39-8.01-6.96-8.68-12.23-.54-4.22,.59-8.39,3.2-11.76,2.61-3.37,6.37-5.52,10.58-6.06,8.79-1.13,16.72,5.19,17.82,13.78,.66,5.21-1.28,10.4-5.2,13.89-2.07,1.86-5.57,1.67-7.43-.41-1.93-2.16-1.75-5.5,.41-7.43,1.33-1.18,1.99-2.94,1.76-4.71-.37-2.92-3.05-5.05-6.04-4.68-1.43,.18-2.71,.91-3.59,2.05-.89,1.15-1.27,2.56-1.09,3.99,.23,1.79,1.33,3.34,2.95,4.15,1.26,.63,2.19,1.71,2.64,3.04,.44,1.33,.34,2.76-.29,4.02-.91,1.8-2.71,2.91-4.71,2.91Zm4.77-28.61c-.58,0-1.16,.04-1.75,.11-3.65,.46-6.91,2.33-9.17,5.25-2.25,2.92-3.24,6.54-2.77,10.19,.58,4.57,3.39,8.53,7.51,10.6,1.56,.77,3.46,.1,4.22-1.4,.37-.75,.43-1.6,.17-2.39-.27-.8-.82-1.44-1.57-1.82-2.25-1.13-3.78-3.29-4.1-5.78-.26-1.99,.28-3.96,1.51-5.56,1.23-1.59,3-2.6,5-2.86,4.17-.53,7.9,2.46,8.42,6.51,.32,2.46-.6,4.92-2.46,6.56-1.29,1.15-1.4,3.14-.25,4.44,1.11,1.24,3.19,1.35,4.43,.24,3.4-3.03,5.08-7.53,4.51-12.04-.88-6.87-6.77-12.05-13.69-12.05Z"/>
            <path class="cls-1" d="M164.04,306.06h-24.93l2.95-9.6h-46.67v-7.2h112.37v7.2h-46.67l2.95,9.6Zm-22.05-2.12h19.18l-2.95-9.6h47.43v-2.95H97.52v2.95h47.42l-2.95,9.6Z"/>
            <path class="cls-1" d="M151.18,390.47h-63.83v-4.2c0-14.43,11.74-26.16,26.16-26.16h11.51c14.43,0,26.16,11.74,26.16,26.16v4.2Zm-61.71-2.12h59.58v-2.08c0-13.26-10.78-24.04-24.04-24.04h-11.51c-13.26,0-24.04,10.79-24.04,24.04v2.08Z"/>
            <path class="cls-1" d="M161.34,308.7h-19.66l-3.09-4.77h25.99l-3.24,4.77Zm-18.5-2.12h17.38l.35-.52h-18.07l.34,.52Z"/>
            <path class="cls-1" d="M214.64,390.47h-32.46v-30.36h6.3c14.42,0,26.16,11.74,26.16,26.16v4.2Zm-30.33-2.12h28.21v-2.08c0-13.25-10.78-24.04-24.04-24.04h-4.17v26.12Z"/>
            <path class="cls-1" d="M151.18,390.47h-32.45v-30.36h6.29c14.43,0,26.16,11.74,26.16,26.16v4.2Zm-30.33-2.12h28.21v-2.08c0-13.25-10.78-24.04-24.04-24.04h-4.17v26.12Z"/>
          </g>
          <path class="cls-1" d="M209.57,171.61H93.55V55.59h116.02v116.02Zm-113.89-2.12h111.77V57.71H95.68v111.77Z"/>
          <g>
            <path class="cls-1" d="M153.07,149.44c-11.05,0-21.55-4.73-28.79-12.97l1.51-1.49c6.65,5.95,15.23,9.22,24.17,9.22,20.09,0,36.43-16.34,36.43-36.43,0-8.95-3.28-17.53-9.23-24.18l1.49-1.51c8.24,7.26,12.97,17.75,12.97,28.8,0,21.25-17.29,38.55-38.55,38.55Zm-11.96-4.14c3.8,1.32,7.84,2.02,11.96,2.02,20.09,0,36.43-16.34,36.43-36.42,0-4.12-.69-8.15-2.01-11.95,.68,2.87,1.03,5.84,1.03,8.84,0,21.26-17.3,38.55-38.56,38.55-3,0-5.97-.35-8.84-1.03Z"/>
            <path class="cls-1" d="M149.96,146.32c-9.47,0-18.55-3.47-25.59-9.76-6.38-7.11-9.85-16.19-9.85-25.67,0-21.26,17.29-38.55,38.55-38.55,9.47,0,18.56,3.47,25.59,9.77,6.38,7.11,9.85,16.19,9.85,25.67,0,21.26-17.29,38.55-38.55,38.55Zm3.11-71.86c-20.09,0-36.43,16.34-36.43,36.43,0,8.96,3.28,17.54,9.23,24.17,6.56,5.86,15.15,9.14,24.09,9.14,20.09,0,36.43-16.34,36.43-36.43,0-8.95-3.28-17.53-9.23-24.17-6.56-5.87-15.14-9.14-24.09-9.14Z"/>
            <path class="cls-1" d="M153.08,132.92c-12.46,0-22.59-10.13-22.59-22.59s10.13-22.59,22.59-22.59,22.59,10.14,22.59,22.59-10.14,22.59-22.59,22.59Zm0-43.06c-11.29,0-20.47,9.18-20.47,20.47s9.18,20.47,20.47,20.47,20.47-9.18,20.47-20.47-9.18-20.47-20.47-20.47Z"/>
            <path class="cls-1" d="M137.67,103.57c-4.84,0-8.79-3.94-8.79-8.79s3.94-8.79,8.79-8.79,8.79,3.94,8.79,8.79-3.94,8.79-8.79,8.79Zm0-17.04c-4.55,0-8.26,3.71-8.26,8.26s3.7,8.25,8.26,8.25,8.26-3.7,8.26-8.25-3.7-8.26-8.26-8.26Z"/>
          </g>
        </g>
        <path class="cls-1" d="M212.39,245.89l26.49-22.24,3.67,12.2-30.16,10.04Zm25.38-18.53l-15.48,13,17.63-5.86-2.15-7.13Z"/>
        <path class="cls-1" d="M235.17,292.8h-10.78l.12-1.17,4.41-53.48,13.58-4.52-7.33,59.16Zm-8.45-2.12h6.57l6.69-53.96-9.05,3.01-4.2,50.95Z"/>
      </g>
      <polygon class="cls-1" points="103.37 59.97 14.15 60.85 14.15 58.73 103.37 59.97 103.37 59.97"/>
      <polygon class="cls-1" points="139.48 212.74 1.41 213.8 1.41 211.68 139.48 212.74 139.48 212.74"/>
      <polygon class="cls-1" points="307.3 207.43 220.21 206.36 220.21 206.36 307.3 205.3 307.3 207.43"/>
      <polygon class="cls-1" points="266.94 113.96 164.98 113.04 164.98 113.04 266.94 111.84 266.94 113.96"/>
      <polygon class="cls-1" points="287.98 339.13 173.47 338.08 173.47 338.08 287.98 337.01 287.98 339.13"/>
      <g class="cls-3">
        <path class="cls-1" d="M30.66,47.27l-2.28,2.67c-.26,.37-.74,1.25-1.27,1.25-.48,0-1.07-.44-1.07-.94,0-.61,1.55-2.12,1.86-2.71-1.53,.13-2.23-.15-2.23-.9,0-.5,.63-1.66,1.22-1.66,.15,0,.33,.15,.5,.15,.24,0,.26-.15,3.59-.79,.83-.81,2.41-2.52,4.33-4.71,.28-.31,.92-1.07,.92-1.51,0-.39-.5-.48-.77-.48-1.16,0-3.92,.81-7.51,2.3,.15,.06,.31,.13,.31,.33,0,.31-.28,.44-.55,.52-1.64,.57-1.49,.59-3,1.36-.26,.13-.57,.31-.88,.31-.5,0-.66-.61-.66-1.01,0-.63,.35-1.88,.74-2.41,.79-.9,4.44-2.1,5.69-2.49,1.82-.59,4.57-1.12,6.45-1.12s2.36,1.07,2.36,2.15c0,1.36-1.31,2.67-2.19,3.61l-2.47,2.63,3.37-.39,3.96-4.97c.26-.35,1.18-1.58,1.64-1.58,.28,0,.37,.26,.37,.5,0,.7-.15,1.12-1.79,3.13l-2.36,2.91c1.01,.02,2.08,0,2.97,.55-1.03,.81-1.93,1.79-2.63,2.93-.66-.15-1.33-.22-2.23-.15-.33,.57-1.14,1.6-1.14,2.25,0,.39,.15,.9,.24,1.31-.7-.15-1.82,.92-2.39,.72-.37-.13-.5-.44-.39-1.09,.11-.66,.46-1.66,1.27-3.19l-4.02,.53Z"/>
        <path class="cls-1" d="M49.63,47.3c-1.33,1.55-3.74,3.61-5.91,3.61-1.6,0-2.34-1.42-2.38-2.87-.09-2.87,3.08-5.8,5.93-5.78,.7,0,1.57,.17,1.57,1.05,0,1.07-1.07,2.69-5.27,4.07l-.04,.48c-.07,.83,.66,1.12,1.36,1.12,1.55,0,3.39-1.6,4.55-2.52l.2,.83Zm-2.71-3.52c0-.15-.11-.28-.26-.24-1.09,.29-2.36,1.34-2.95,2.78,1.93-.65,3.24-2.17,3.22-2.54Z"/>
        <path class="cls-1" d="M52.89,49.07c-.42,.33-1.82,1.47-2.32,1.47-.61,0-1.88-1.44-1.93-2.58-.09-2.73,5.6-5.54,8.14-5.6,1.01-.02,1.42,.79,1.42,1.05s-.57,.48-.77,.55c.42,.17,.63,.41,.63,.9,0,.7-1.9,2.23-1.9,3.26,0,.37,.33,.53,.68,.53,.92,0,2.17-1.12,3.11-1.75l.17,.81c-.94,1.07-3.87,3.41-4.94,3.41-.72,0-1.05-.53-1.05-1.16,0-.7,.53-1.86,.81-2.45l-.04-.04-2.01,1.62Zm-2.65-.57c.02,.11,.11,.5,.44,.44,.44-.09,1.12-.02,5.45-4.4l-.04-.04c-5.21,1.59-5.84,2.93-5.84,4Z"/>
        <path class="cls-1" d="M68.73,43.8c-.72,1.14-1.77,2.56-1.77,3.96,0,.35,.02,1.09,.5,1.09,.74,0,2.76-1.77,3.46-2.23l.15,.72c-1.03,1.14-3.28,3.43-4.88,3.43-.83,0-1.16-.87-1.16-1.57,0-.55,.09-1.12,.17-1.66-.77,.66-2.8,2.78-3.78,2.78s-1.6-2.1-1.6-2.87c0-2.58,4.35-4.77,6.21-4.88,.46-.02,.63,.29,.92,.61,.72-1.25,2.65-5.78,4.24-5.78,.44,0,.7,.44,.7,.83,0,.66-.59,1.55-.94,2.1l-2.23,3.46Zm-6.98,4.11c-.02,.2,.09,.37,.33,.42,.26,.07,3.79-2.56,4.14-3.85-3.85,1.25-4.33,1.99-4.46,3.43Z"/>
      </g>
      <g class="cls-3">
        <path class="cls-1" d="M13.28,201.3c0,1.25-2.69,4.2-8.58,4.53-1.58,.09-3.76-.44-3.76-2.43,0-.7-.11-.81,2.43-4.16-.61-.04-2.01-.11-2.01-.85,0-.94,3.06-.99,3.72-1.18,1.42-1.38,2.87-3.22,5.05-3.22-.15,.37-.31,.66-2.12,2.78,4.95-.68,6.11-2.17,6.06-2.76-.02-.48-.63-1.25-3.17-1.07-.5,.04-2.82,.33-6.15,1.53,.13,.07,.31,.15,.31,.33,0,.33-.5,.46-.79,.5-1.36,.22-1.77,.42-3.04,.83-.2,.06-.44,.15-.68,.15-.37,0-.55-.22-.55-.59,0-.15,.33-.94,1.01-1.84,.46-.61,1.09-1.44,1.84-1.73,2.12-.81,6.21-1.66,8.49-1.66,3.76,0,4.66,1.49,4.66,2.67,0,3.54-6.63,4.44-9.19,4.94l-.44,.39c1.55,.28,6.91,.72,6.91,2.82Zm-9.1-.39c-.28,.31-.77,.79-.77,1.25,0,.94,1.73,1.2,2.43,1.2,1.95-.02,4.97-1.44,4.97-2.32,0-1.14-4.51-1.47-5.4-1.47l-1.23,1.33Z"/>
        <path class="cls-1" d="M23.28,202.31c-.98,1.25-1.95,1.77-3.54,1.77-.92,.94-1.99,1.64-3.37,1.64-1.14,0-2.19-1.14-2.28-3.13-.04-1.64,.77-2.73,1.99-3.68,1.18-.96,2.76-1.55,4.09-1.62,.48-.02,1.2,.2,1.2,.79,0,.33-.26,.46-.5,.59,.66,.18,.79,.63,.79,1.29,0,.96-.44,1.73-.85,2.58,.96,.17,1.57-.66,2.25-1.16l.22,.92Zm-6.67-1.03c-.48,.48-.9,1.34-.9,2.01,0,.63,.42,.83,.96,.83,.72,0,1.18-.41,1.68-.88-.15-.35-.26-.63-.26-1.01,0-1.14,1.03-2.52,.94-2.56-.74,.44-1.77,.96-2.43,1.6Z"/>
        <path class="cls-1" d="M31.76,198.83c-.72,1.14-1.77,2.56-1.77,3.96,0,.35,.02,1.09,.5,1.09,.74,0,2.76-1.77,3.46-2.23l.15,.72c-1.03,1.14-3.28,3.43-4.88,3.43-.83,0-1.16-.87-1.16-1.57,0-.55,.09-1.12,.17-1.66-.77,.66-2.8,2.78-3.78,2.78s-1.6-2.1-1.6-2.87c0-2.58,4.35-4.77,6.21-4.88,.46-.02,.63,.29,.92,.61,.72-1.25,2.65-5.78,4.24-5.78,.44,0,.7,.44,.7,.83,0,.66-.59,1.55-.94,2.1l-2.23,3.46Zm-6.98,4.11c-.02,.2,.09,.37,.33,.41,.26,.07,3.79-2.56,4.14-3.85-3.85,1.25-4.33,1.99-4.46,3.43Z"/>
        <path class="cls-1" d="M37.56,209.22c-.22,.24-.83,1.09-1.18,1.09-.46,0-.66-1.07-.66-1.44,0-.35,.42-1.03,.59-1.31l2.93-4.94-.04-.04c-1.79,1.51-3.39,2.69-3.65,2.67-.61-.04-1.66-.96-1.73-2.58-.09-2.63,3.65-5.4,4.27-5.43,.33,0,.94,.7,.94,1.01,0,.83-2.47,3.11-3.19,3.68-.26,.37-.39,.81-.42,1.27,1.16-.13,2.21-1.07,3.13-1.93,2.25-2.08,3.65-3.59,4.07-3.66,.37-.06,.59,.79,.59,1.1,0,.57-.59,1.46-.9,1.93l-3.24,4.81,.04,.04,4.86-4.31,.18,.81-6.59,7.24Z"/>
      </g>
      <g class="cls-3">
        <path class="cls-1" d="M242.18,95.44l-.05-.04c-1.84,1.75-3.65,3.52-5.21,5.27-.64,.72-2.95,3.87-4.11,5.43-.15,.22-.42,.61-.7,.61-.48,0-1.73-.88-1.73-1.38,0-.13,.15-.37,.22-.48,.9-1.38,5.1-8.71,5.1-9.91,0-.28-.07-.46-.35-.46-.74,0-3.15,1.18-6.83,3.61-.17,.13-.46,.28-.66,.28-.42,0-.39-.7-.39-.96,0-2.63,3.79-5.45,4.44-5.45,.11,0,.24,.07,.24,.18,0,.02-.11,.37-1.18,1.4l.04,.04c1.55-.85,4.27-2.39,6.08-2.39,.74,0,1.47,.42,1.4,1.23-.13,1.75-.98,3.2-3.81,8.16l.04,.04c4.2-5.05,6.06-6.87,6.61-7.24,.66-.44,2.3-1.68,2.8-1.68,.37,0,1.79,1.03,1.79,2.08,0,1.38-2.8,4.2-4.9,8.36-.63,1.27-.68,1.71-.68,1.79,0,.39,.09,.9,.57,.9,.88,0,3.74-2.95,4.38-3.74,.04,.53,.09,.79,.09,.99,0,.17-.07,.28-.24,.5-3.15,4.07-5.45,5.25-6.39,5.25-1.1,0-1.49-.96-1.49-1.9,0-1.2,.61-2.58,1.18-3.63l3.72-6.85Z"/>
        <path class="cls-1" d="M248.28,104.98c-.42,.33-1.82,1.46-2.32,1.46-.61,0-1.88-1.44-1.92-2.58-.09-2.73,5.6-5.53,8.14-5.6,1.01-.02,1.42,.79,1.42,1.05s-.57,.48-.77,.55c.42,.17,.63,.41,.63,.9,0,.7-1.9,2.23-1.9,3.26,0,.37,.33,.53,.68,.53,.92,0,2.17-1.12,3.11-1.75l.17,.81c-.94,1.07-3.87,3.41-4.94,3.41-.72,0-1.05-.52-1.05-1.16,0-.7,.52-1.86,.81-2.45l-.04-.04-2.01,1.62Zm-2.65-.57c.02,.11,.11,.5,.44,.44,.44-.09,1.12-.02,5.45-4.4l-.04-.04c-5.21,1.59-5.84,2.93-5.84,4Z"/>
        <path class="cls-1" d="M263.35,98.31c.44,0,.66,.28,.66,.72,0,.88-1.27,2.93-1.82,3.7,.24,.22,.39,.29,.74,.29,.57,0,1.38-.55,1.86-.88l.15,.92c-.77,.88-1.58,1.55-2.8,1.55-.46,0-.77-.31-1.14-.57-.61,.7-2.82,2.63-3.68,2.63-1.29,0-2.17-1.64-2.17-3.3,0-3.02,2.69-5.12,3.46-5.12,.3,0,1.31,.04,1.31,.5,0,.99-2.06,3.19-2.85,3.85-.11,.35-.33,.94-.33,1.29s.09,.85,.53,.85c.63,0,2.36-1.6,2.82-2.04-.09-1.01,.5-1.84,1.09-2.58,.42-.55,1.38-1.82,2.14-1.82Z"/>
      </g>
      <g class="cls-3">
        <path class="cls-1" d="M243.52,332.43c-.74,.79-3.41,3.21-4.42,3.21-.3,0-.52-.24-.52-.55,0-.61,.92-1.75,1.33-2.19,.68-.77,1.31-1.12,2.28-1.38l2.56-2.71-3.26,.26c-.15,.02-1.07,.02-1.12-.28-.09-.61,0-1.14,.57-1.51,.68-.44,2.12-.9,2.96-1.05l3.35-.63c.72-.96,2.49-3.98,2.49-5.05,0-.44-.33-.41-.7-.41-.04,0-.15-.09-1.81,.17-2.52,.42-5.03,1.05-7.35,2.06l.04,.04,1.14-.02c.15,0,.41-.02,.41,.2,0,.26-.48,.33-.66,.37l-2.54,.79c-1.49,.46-1.69,.2-1.69-.2,0-.63,1.25-2.82,1.69-3.35,.85-1.07,2.04-1.31,3.3-1.6,5.73-1.31,7.37-1.38,8.66-1.38,.79,0,2.25,.09,2.25,1.16,0,1.62-2.45,5.91-3.44,7.35l1.47,.24-.88,1.4c-.17,.28-.31,.57-.59,.7-.48,.22-1.29,.31-1.79,.41l-3.74,3.94Z"/>
        <path class="cls-1" d="M259.69,328.95c-.98,1.25-1.95,1.77-3.54,1.77-.92,.94-1.99,1.64-3.37,1.64-1.14,0-2.19-1.14-2.28-3.13-.04-1.64,.77-2.73,1.99-3.68,1.18-.96,2.76-1.55,4.09-1.62,.48-.02,1.2,.2,1.2,.79,0,.33-.26,.46-.5,.59,.66,.18,.79,.64,.79,1.29,0,.97-.44,1.73-.85,2.58,.96,.17,1.57-.66,2.25-1.16l.22,.92Zm-6.67-1.03c-.48,.48-.9,1.34-.9,2.01,0,.63,.42,.83,.96,.83,.72,0,1.18-.41,1.68-.88-.15-.35-.26-.63-.26-1.01,0-1.14,1.03-2.52,.94-2.56-.74,.44-1.77,.96-2.43,1.6Z"/>
        <path class="cls-1" d="M268.35,328.95c-.98,1.25-1.95,1.77-3.54,1.77-.92,.94-1.99,1.64-3.37,1.64-1.14,0-2.19-1.14-2.28-3.13-.04-1.64,.77-2.73,1.99-3.68,1.18-.96,2.76-1.55,4.09-1.62,.48-.02,1.2,.2,1.2,.79,0,.33-.26,.46-.5,.59,.66,.18,.79,.64,.79,1.29,0,.97-.44,1.73-.85,2.58,.96,.17,1.57-.66,2.25-1.16l.22,.92Zm-6.67-1.03c-.48,.48-.9,1.34-.9,2.01,0,.63,.42,.83,.96,.83,.72,0,1.18-.41,1.69-.88-.15-.35-.26-.63-.26-1.01,0-1.14,1.03-2.52,.94-2.56-.74,.44-1.77,.96-2.43,1.6Z"/>
        <path class="cls-1" d="M275.68,323.11c-1.03,2.08-1.21,2.89-3.61,2.73-.74,.96-1.99,2.76-1.99,4.07,0,.48,.15,.77,.66,.77,.7,0,1.49-.66,3.76-2.28l.11,.96c-1.29,1.18-3.65,3.52-5.51,3.52-.85,0-1.38-.59-1.38-1.46,0-.72,.29-1.55,.57-2.19l-.04-.04-1.12,.9-.24-.83c1.31-1.01,2.52-2.12,3.33-3.5-1.34,0-.92-.09-2.08,.09l.24-.39c1.18-1.92,1.36-2.27,3.7-2.36,.66-.9,1.14-1.92,2.41-1.92,.29,0,.7,.07,.7,.42,0,.39-.63,1.12-.85,1.42l1.36,.11Z"/>
        <path class="cls-1" d="M282.59,328.97c-1.34,1.55-3.74,3.61-5.91,3.61-1.6,0-2.34-1.42-2.38-2.87-.09-2.87,3.08-5.8,5.93-5.78,.7,0,1.57,.17,1.57,1.05,0,1.07-1.07,2.69-5.27,4.07l-.04,.48c-.07,.83,.65,1.12,1.36,1.12,1.55,0,3.39-1.6,4.55-2.52l.2,.83Zm-2.71-3.52c0-.15-.11-.28-.26-.24-1.09,.29-2.36,1.34-2.96,2.78,1.93-.66,3.24-2.17,3.22-2.54Z"/>
        <path class="cls-1" d="M283.81,327.49c-.77,1.2-1.68,1.77-2.62,2.71l-.09-.96c.57-.46,1.03-1.01,1.44-1.6-.46-.04-.59-.22-.59-.68,0-1.57,2.23-3.15,2.76-3.15,.22,0,.39,.18,.39,.37,0,.22-.06,.42-.15,.61,2.06-.28,3.26-.55,3.48-.28,.33,.41,.48,.77,.53,1.16,0,.68-.42,1.01-.92,1.42-.63,.55-1.71,1.62-1.71,2.5,0,.35,.35,.61,.68,.61,.94,0,2.32-1.42,3.04-1.97l.15,.81c-.83,.94-3.35,3.37-4.59,3.37-.92,0-1.49-.85-1.49-1.68,0-1.49,1.14-2.65,2.01-3.7l-.04-.04-2.28,.5Z"/>
      </g>
      <g>
        <path class="cls-1" d="M260.11,193.48c2.08,.49,3.05,1.59,3.05,2.59,0,4.1-7.18,4.75-10.15,4.75-.8,0-3.31,0-3.31-1.19,0-.43,.72-1.52,1.05-1.83,.25-.21,1.46-.6,1.77-.6,.1,0,.17,.02,.17,.14,0,.21-.21,.31-.35,.39-.12,.08-.23,.19-.35,.31v.04c7.35,.27,9.37-1.85,9.37-2.18,0-1.05-5.7-1.87-6.69-2.04-1.03-.16-2.1-.49-2.1-1.73,0-.68,.33-2.18,.66-2.74,.64-1.05,4.36-3.01,8.87-3.01,.87,0,1.73,.1,2.59,.29,.47,.1,.54,.27,.54,.68,0,1.52-.51,1.87-1.73,2.35-.88,.33-1.05,.43-1.85,1.01-.14,.08-.35,.21-.51,.21-.21,0-.33-.1-.33-.31,0-.04,.39-.68,1.5-1.44l-.04-.04c-5.31,.18-7.59,2.1-7.62,2.57,0,.29-.27,.43,5.47,1.77Z"/>
        <path class="cls-1" d="M271.86,197.45c-1.26,1.46-3.52,3.4-5.56,3.4-1.5,0-2.2-1.34-2.24-2.7-.08-2.7,2.9-5.45,5.58-5.43,.66,0,1.48,.16,1.48,.99,0,1.01-1.01,2.53-4.96,3.83l-.04,.45c-.06,.78,.62,1.05,1.28,1.05,1.46,0,3.19-1.5,4.28-2.37l.18,.78Zm-2.55-3.31c0-.14-.1-.27-.25-.23-1.03,.27-2.22,1.26-2.78,2.61,1.81-.62,3.05-2.04,3.03-2.39Z"/>
        <path class="cls-1" d="M273.84,196.65c-.45,.33-.82,.64-.82,1.21,0,.47,.49,1.11,1.56,1.11,1.56,0,3.36-1.44,4.55-2.37l.25,.8c-1.26,1.34-3.56,3.38-5.52,3.38-1.58,0-2.35-1.48-2.35-3.01,0-1.73,.62-2.37,1.96-3.38,.93-.7,2.9-1.81,4.05-1.81,.64,0,.93,.33,.93,.95,0,1.13-1.62,2.72-2.18,2.72-.47,0-.68-.51-.7-.91l-1.73,1.3Z"/>
        <path class="cls-1" d="M286.1,191.93c-.97,1.96-1.13,2.72-3.4,2.57-.7,.91-1.87,2.59-1.87,3.83,0,.45,.14,.72,.62,.72,.66,0,1.4-.62,3.54-2.14l.1,.91c-1.21,1.11-3.44,3.31-5.19,3.31-.8,0-1.3-.56-1.3-1.38,0-.68,.27-1.46,.54-2.06l-.04-.04-1.05,.84-.23-.78c1.23-.95,2.37-2,3.13-3.29-1.26,0-.87-.08-1.96,.08l.23-.37c1.11-1.81,1.28-2.14,3.48-2.22,.62-.84,1.07-1.81,2.26-1.81,.27,0,.66,.06,.66,.39,0,.37-.6,1.05-.8,1.34l1.28,.1Z"/>
        <path class="cls-1" d="M290.77,197.84c-.93,1.13-2.74,2.98-4.3,2.98-1.21,0-1.77-1.4-1.77-2.45,0-2.51,2.57-4.96,3.81-4.96,.35,0,.9,.12,.9,.58,0,1.03-2.04,2.86-2.9,3.46-.16,.84,.14,1.3,1.09,1.3,1.09,0,2.16-1.09,2.98-1.69l.19,.78Zm-1.98-5.72c0-.84,.99-1.58,1.79-1.58,.37,0,.68,.27,.68,.64,0,.82-.76,1.83-1.65,1.83-.49,0-.82-.39-.82-.89Z"/>
        <path class="cls-1" d="M299.09,197.43c-.93,1.17-1.83,1.67-3.34,1.67-.86,.89-1.87,1.54-3.17,1.54-1.07,0-2.06-1.07-2.14-2.94-.04-1.54,.72-2.57,1.87-3.46,1.11-.91,2.59-1.46,3.85-1.52,.45-.02,1.13,.19,1.13,.74,0,.31-.25,.43-.47,.56,.62,.16,.74,.6,.74,1.21,0,.91-.41,1.63-.8,2.43,.9,.16,1.48-.62,2.12-1.09l.21,.86Zm-6.28-.97c-.45,.45-.84,1.26-.84,1.89,0,.6,.39,.78,.91,.78,.68,0,1.11-.39,1.58-.82-.14-.33-.25-.6-.25-.95,0-1.07,.97-2.37,.88-2.41-.7,.41-1.67,.91-2.29,1.5Z"/>
        <path class="cls-1" d="M308.47,196.44l.16,.91c-1.09,.97-3.21,3.5-4.71,3.5-.78,0-1.15-.66-1.15-1.36,0-1.23,1.11-2.59,1.77-3.54l-.04-.04c-1.2,.89-2.24,1.96-3.17,3.15-.31,.39-1.07,1.4-1.63,1.4-.91,0-1.13-1.3-1.15-2-.06-1.42,1.23-3.5,2.43-4.51,.27-.23,.45-.25,.8-.25,1.24,.04,1.13,.33,1.13,.45,0,.8-2.59,2.88-2.59,3.38,0,.12,.1,.23,.23,.23,.14,0,.33-.19,.41-.29,1.65-2.1,5.43-4.63,6.03-4.63,.08,0,.21,.1,.33,.39,.12,.31,.25,.68,.31,1.11,0,.8-2.53,2.37-2.53,3.79,0,.18,.17,.37,.37,.37,.49,0,1.4-.72,1.77-1.03l1.24-1.03Z"/>
      </g>
    </g>
  </g>
</svg>