<?xml version="1.0" encoding="UTF-8"?>
<svg id="Layer_2" data-name="Layer 2" xmlns="http://www.w3.org/2000/svg" viewBox="0 0 289.55 391.18">
  <defs>
    <style>
      .cls-1 {
        fill: #010002;
      }

      .cls-2 {
        fill: #fff;
      }

      .cls-3 {
        fill: #a7a7a6;
      }

      .cls-4 {
        fill: #d3d3d3;
      }

      .cls-5 {
        fill: #34537d;
      }

      .cls-6 {
        fill: #3c5fa2;
      }

      .cls-7 {
        fill: #5d5d5d;
      }

      .cls-8 {
        fill: #777676;
      }

      .cls-9 {
        fill: #4e4d4d;
      }

      .cls-10 {
        stroke: #19916e;
      }

      .cls-10, .cls-11, .cls-12 {
        fill: none;
        stroke-miterlimit: 10;
      }

      .cls-11 {
        stroke: #34537d;
      }

      .cls-12 {
        stroke: #bf3915;
      }
    </style>
  </defs>
  <g id="Capa_1" data-name="Capa 1">
    <g>
      <path class="cls-10" d="M251.13,242.13s4.33,1.88,3.18-17.48"/>
      <path class="cls-10" d="M264.3,248.58s4.32,1.88,3.18-17.47"/>
      <path class="cls-12" d="M252.24,242.01s2.63,5.39,9.8-10.94"/>
      <path class="cls-10" d="M273.21,246.92s3.17,4.7,8.51-13.07"/>
      <path class="cls-12" d="M274.22,247.6s.55,6.58,12.18-2.67"/>
      <path class="cls-11" d="M273.08,248.58s4.33,1.88,3.18-17.47"/>
      <path class="cls-10" d="M106.07,347.52s-4.33-1.88-3.18,17.48"/>
      <path class="cls-10" d="M92.9,341.07s-4.33-1.88-3.18,17.47"/>
      <path class="cls-12" d="M104.96,347.64s-2.63-5.38-9.8,10.95"/>
      <path class="cls-10" d="M83.99,342.74s-3.18-4.71-8.51,13.07"/>
      <path class="cls-11" d="M84.11,341.07s-4.33-1.88-3.18,17.47"/>
      <path class="cls-10" d="M42.54,90.63s4.33,1.88,3.18-17.48"/>
      <path class="cls-10" d="M55.72,97.08s4.33,1.88,3.18-17.47"/>
      <path class="cls-12" d="M43.65,90.52s2.63,5.38,9.8-10.95"/>
      <path class="cls-10" d="M64.63,95.42s3.17,4.7,8.51-13.07"/>
      <path class="cls-12" d="M65.64,96.1s.55,6.58,12.18-2.67"/>
      <path class="cls-11" d="M64.5,97.08s4.33,1.88,3.18-17.47"/>
      <g>
        <g>
          <g>
            <path class="cls-3" d="M217.82,198.43l-8.24,6.92-13.79,11.57-11.17-11.75-15.26-16.03-.46-.49-13.08-13.74,7.88-6.61,5.2-4.37,11.66-9.77,.05-.05,.11,.16s.03,.02,.03,.02l3.21,3.77s.02,.02,.02,.05l33.85,40.31Z"/>
            <polygon class="cls-6" points="220.87 208.58 213.51 267.95 213.05 271.71 213.03 271.71 210.57 271.33 204.23 270.36 197.9 269.4 197.86 268.04 197.79 266.46 195.79 216.92 208.99 212.53 220.87 208.58"/>
            <polygon class="cls-9" points="214.75 269.54 214.75 277.1 205.56 275.32 195.23 273.32 195.23 265.76 199.51 266.6 206.17 267.87 214.75 269.54"/>
            <path class="cls-9" d="M217.89,285.5c-.65,5.16-3.84,9.64-8.49,11.99-.64,.31-1.32,.46-1.98,.46-1.6,0-3.16-.88-3.95-2.44-1.07-2.18-.2-4.83,1.98-5.93,2.04-1.01,3.4-2.94,3.72-5.2,.09-.73,.06-1.43-.07-2.11-.2-1.05-.63-2.04-1.32-2.9-.64-.83-1.47-1.5-2.39-1.96-.66-.31-1.36-.52-2.1-.61-3.71-.48-7.12,2.15-7.58,5.86-.28,2.22,.53,4.44,2.22,5.93,1.8,1.61,1.95,4.39,.35,6.22-1.62,1.82-4.41,1.97-6.24,.35-3.84-3.43-5.73-8.52-5.09-13.61,.68-5.27,3.91-9.6,8.3-11.86,1.34-.73,2.81-1.23,4.35-1.52,1.54-.29,3.16-.33,4.81-.14,.59,.07,1.16,.18,1.73,.33,2.29,.55,4.37,1.6,6.17,3.09,.9,.73,1.73,1.56,2.46,2.51,2.02,2.61,3.14,5.71,3.25,8.96,.05,.86,0,1.72-.11,2.57Z"/>
            <g>
              <polygon class="cls-3" points="287.77 260.21 280.66 261.94 285.06 271.14 285.18 271.38 277.65 276.09 277.33 276.29 281.82 285.89 281.65 285.99 273.38 290.66 273.42 290.72 278.7 299.38 271.55 304.36 270.69 304.96 275.13 314.78 266.75 319.31 266.83 319.5 271.6 329.39 271.7 329.6 263.42 333.67 263.72 334.2 268.56 343.15 268.08 343.42 259.48 348.02 259.58 348.11 265.99 354.24 265 358.51 219.06 347.88 220.05 343.6 228.5 340.92 228.63 340.87 222.93 332.97 222.61 332.51 230.89 326.6 231.4 326.25 225.75 318.97 225.93 318.82 234.56 312.02 234.72 311.89 229.18 304.14 237.49 297.27 236.97 296.35 232.75 288.74 241.3 283.28 241.35 283.25 235.98 275.42 235.87 275.25 244.13 268.6 243.93 268.28 239.23 260.74 239.45 260.58 247.45 254.25 241.82 249.56 243.6 241.87 289.55 252.51 287.77 260.21"/>
              <polygon class="cls-8" points="285.18 271.38 277.65 276.09 243.93 268.28 239.23 260.74 239.45 260.58 285.06 271.14 285.18 271.38"/>
              <polygon class="cls-8" points="273.38 290.66 273.42 290.72 241.3 283.28 241.35 283.25 235.98 275.42 281.65 285.99 273.38 290.66"/>
              <polygon class="cls-8" points="278.7 299.38 271.55 304.36 236.97 296.35 232.75 288.74 278.7 299.38"/>
              <polygon class="cls-8" points="266.75 319.31 266.83 319.5 234.56 312.02 234.72 311.89 229.18 304.14 275.13 314.78 266.75 319.31"/>
              <polygon class="cls-8" points="263.42 333.67 263.72 334.2 230.89 326.6 231.4 326.25 225.75 318.97 225.93 318.82 271.6 329.39 271.7 329.6 263.42 333.67"/>
              <polygon class="cls-8" points="259.48 348.02 259.58 348.11 228.5 340.92 228.63 340.87 222.93 332.97 268.08 343.42 259.48 348.02"/>
            </g>
            <rect class="cls-9" x="231.84" y="348.32" width="6.5" height="64.77" transform="translate(-188.84 523.84) rotate(-76.96)"/>
            <path class="cls-6" d="M243.05,348.8l-6.69,28.88-32.08-7.43,.74-3.21c3.29-14.19,17.43-23.01,31.61-19.72l6.42,1.48Z"/>
            <g>
              <polygon class="cls-3" points="116.98 244.42 110.44 247.71 116.81 255.69 116.98 255.89 110.71 262.18 110.44 262.45 116.98 270.79 116.84 270.93 109.84 277.35 109.89 277.39 116.98 284.63 111.15 291.1 110.44 291.87 116.98 300.44 109.84 306.75 109.96 306.91 116.84 315.48 116.98 315.66 109.84 321.48 110.25 321.94 116.98 329.57 116.57 329.94 109.23 336.35 109.36 336.42 116.98 340.95 116.98 345.34 69.82 345.34 69.82 340.95 77.44 336.42 77.57 336.35 70.23 329.94 69.82 329.57 76.55 321.94 76.96 321.48 69.82 315.66 69.96 315.48 76.84 306.91 76.96 306.75 69.82 300.44 76.36 291.87 75.65 291.1 69.82 284.63 76.91 277.39 76.96 277.35 69.96 270.93 69.82 270.79 76.36 262.45 76.09 262.18 69.82 255.89 69.99 255.69 76.36 247.71 69.82 244.42 69.82 236.53 116.98 236.53 116.98 244.42"/>
              <polygon class="cls-8" points="116.98 255.89 110.71 262.18 76.09 262.18 69.82 255.89 69.99 255.69 116.81 255.69 116.98 255.89"/>
              <polygon class="cls-8" points="109.84 277.35 109.89 277.39 76.91 277.39 76.96 277.35 69.96 270.93 116.84 270.93 109.84 277.35"/>
              <polygon class="cls-8" points="116.98 284.63 111.15 291.1 75.65 291.1 69.82 284.63 116.98 284.63"/>
              <polygon class="cls-8" points="109.84 306.75 109.96 306.91 76.84 306.91 76.96 306.75 69.82 300.44 116.98 300.44 109.84 306.75"/>
              <polygon class="cls-8" points="109.84 321.48 110.25 321.94 76.55 321.94 76.96 321.48 69.82 315.66 69.96 315.48 116.84 315.48 116.98 315.66 109.84 321.48"/>
              <polygon class="cls-8" points="109.23 336.35 109.36 336.42 77.44 336.42 77.57 336.35 70.23 329.94 116.57 329.94 109.23 336.35"/>
            </g>
            <rect class="cls-9" x="106.14" y="143.08" width="42.2" height="13.72"/>
            <polygon class="cls-3" points="25.4 144.69 2.66 127.12 38.06 81.34 63.66 101.13 25.4 144.69"/>
            <path class="cls-6" d="M184.62,161.13v107.39H68.91v-107.39c0-3.82,3.1-7.16,7.68-8.89,2.2-.86,4.74-1.34,7.44-1.34h85.46c2.3,0,4.48,.35,6.43,.97,5.14,1.63,8.7,5.16,8.7,9.26Z"/>
            <path class="cls-5" d="M184.62,161.13c0-4.11-3.56-7.64-8.7-9.26v-.97h5.62c1.69,0,3.08,4.56,3.08,10.23Z"/>
            <path class="cls-5" d="M184.62,161.13v107.39h-8.7v-116.66c5.14,1.63,8.7,5.16,8.7,9.27Z"/>
            <path class="cls-5" d="M77.38,159.09v107.39h-8.48v-105.35c0-3.82,3.1-7.16,7.68-8.89,.49,1.81,.79,4.21,.79,6.85Z"/>
            <polygon class="cls-5" points="85.11 222.97 83.55 219.38 83.55 166.49 169.99 166.49 169.99 219.29 168.37 222.97 85.11 222.97"/>
            <rect class="cls-9" x="84.64" y="229.03" width="84.25" height="3.11"/>
            <rect class="cls-9" x="84.63" y="162.56" width="84.26" height="56.48"/>
            <rect class="cls-9" x="84.64" y="241.24" width="84.25" height="3.11"/>
            <rect class="cls-9" x="84.64" y="252.58" width="84.25" height="3.11"/>
            <rect class="cls-9" x="123.43" y="375.14" width="64.77" height="6.51"/>
            <rect class="cls-9" x="249.87" y="145.96" width="2.52" height="50.82" transform="translate(-52.58 157.44) rotate(-31.68)"/>
            <path class="cls-6" d="M237.81,143.84c3.25,0,5.88,2.63,5.88,5.88s-2.63,5.88-5.88,5.88-5.88-2.63-5.88-5.88,2.63-5.88,5.88-5.88Z"/>
            <polygon class="cls-9" points="25.4 144.69 2.66 127.12 0 137.37 25.4 144.69"/>
            <polygon class="cls-6" points="0 137.37 10.36 200.13 25.4 197.22 25.4 144.69 0 137.37"/>
            <polygon class="cls-9" points="31.83 233.05 20.85 249.64 15.45 244.34 26.43 227.76 31.83 233.05"/>
            <path class="cls-9" d="M40.88,259c-.46,.48-1.04,.85-1.71,1.08-4.94,1.69-10.36,.83-14.51-2.32-3.32-2.52-5.47-6.18-6.03-10.3-.57-4.13,.51-8.23,3.03-11.55,5.2-6.85,15-8.21,21.86-3.01,4.1,3.1,6.4,8.03,6.16,13.17-.11,2.43-2.18,4.31-4.61,4.2-2.43-.12-4.31-2.18-4.2-4.61,.11-2.23-.9-4.37-2.68-5.73-2.98-2.26-7.24-1.67-9.5,1.31-1.1,1.44-1.57,3.23-1.31,5.02,.24,1.79,1.17,3.39,2.62,4.48,1.81,1.37,4.17,1.75,6.31,1,2.3-.79,4.81,.44,5.6,2.74,.56,1.64,.1,3.37-1.03,4.52Z"/>
            <polygon class="cls-3" points="184.62 266.45 68.91 266.45 68.91 271.78 118.28 271.78 115.19 281.86 138.33 281.86 135.24 271.78 184.62 271.78 184.62 266.45"/>
            <path class="cls-6" d="M188.19,371.85v3.29H123.42v-3.29c0-14.56,11.79-26.35,26.35-26.35h12.08c14.56,0,26.35,11.78,26.35,26.35Z"/>
            <polygon class="cls-8" points="136.42 284.63 116.98 284.63 115.19 281.86 138.31 281.86 136.42 284.63"/>
            <path class="cls-5" d="M268.12,381.65l-.75,3.21-31.02-7.18,6.69-28.88,5.35,1.24c14.18,3.28,23.01,17.43,19.73,31.61Z"/>
          </g>
          <rect class="cls-6" x="154.83" width="119.54" height="119.54"/>
          <polygon class="cls-5" points="266.69 126.2 160.39 126.2 154.83 119.54 274.67 119.54 266.69 126.2"/>
          <g>
            <path class="cls-4" d="M251.99,58.92c0,21.74-17.62,39.35-39.35,39.35-11.7,0-22.23-5.1-29.39-13.24,6.93,6.21,16.08,9.97,26.11,9.97,21.73,0,39.35-17.62,39.35-39.35,0-10-3.76-19.19-9.97-26.11,8.13,7.16,13.23,17.68,13.23,29.38"/>
            <path class="cls-2" d="M248.73,55.66c0,21.73-17.62,39.34-39.35,39.34-10.03,0-19.18-3.76-26.12-9.96-6.21-6.93-9.97-16.12-9.97-26.12,0-21.73,17.62-39.35,39.36-39.35,10.03,0,19.19,3.76,26.11,9.97,6.21,6.92,9.97,16.11,9.97,26.11"/>
            <path class="cls-1" d="M235.25,58.33c0,12.48-10.12,22.6-22.59,22.6s-22.6-10.12-22.6-22.6,10.11-22.6,22.6-22.6,22.59,10.12,22.59,22.6"/>
            <path class="cls-2" d="M205.42,42.02c0,4.94-4,8.95-8.95,8.95s-8.94-4.01-8.94-8.95,4-8.95,8.94-8.95,8.95,4,8.95,8.95"/>
          </g>
        </g>
        <polygon class="cls-9" points="220.87 208.58 208.99 212.53 195.79 216.92 209.58 205.35 217.82 198.43 219.19 203.07 220.87 208.58"/>
        <polygon class="cls-5" points="220.87 208.58 213.51 267.95 204.42 267.95 204.44 267.73 208.99 212.53 220.87 208.58"/>
      </g>
      <g>
        <path class="cls-7" d="M60.04,317.81c-.36,.99-.75,1.97-1.09,2.96-.42,1.25-1.15,2.16-2.53,2.32-.46,.05-.95-.05-1.4-.18-.67-.19-1.33-.47-1.99-.72-.24-.09-.36-.02-.53,.17-.99,1.12-2,2.23-3.03,3.3-.24,.25-.28,.41-.13,.71,.33,.69,.69,1.39,.94,2.11,.5,1.41-.05,2.79-1.38,3.47-.99,.51-2,.99-3.04,1.42-1.51,.63-3.1-.04-3.79-1.53-.28-.61-.58-1.22-.84-1.84-.11-.25-.24-.34-.52-.29-1.47,.25-2.94,.36-4.43,.17-.38-.05-.53,.12-.63,.44-.25,.7-.5,1.4-.79,2.07-.58,1.43-2.16,2.07-3.77,1.47-.91-.33-1.82-.67-2.73-1.02-1.54-.57-2.29-2.12-1.76-3.68,.24-.69,.5-1.36,.75-2.03,.1-.26,.03-.41-.18-.58-1.22-1.05-2.42-2.11-3.72-3.26-.39,.18-.94,.43-1.48,.69-.86,.41-1.72,.74-2.71,.4-.78-.26-1.35-.74-1.7-1.47-.45-.92-.88-1.84-1.3-2.77-.76-1.69-.11-3.34,1.59-4.09,.57-.25,1.15-.49,1.7-.78,.14-.07,.26-.31,.26-.47-.04-1.53-.11-3.05-.14-4.59,0-.31-.15-.4-.37-.48-.62-.23-1.23-.46-1.85-.68-1.65-.59-2.41-2.22-1.79-3.87,.33-.86,.65-1.72,.96-2.59,.58-1.64,2.13-2.43,3.79-1.9,.67,.21,1.34,.45,2,.72,.29,.12,.43,0,.61-.21,.99-1.1,1.99-2.19,3.01-3.25,.23-.24,.25-.4,.12-.67-.34-.72-.69-1.43-.96-2.17-.5-1.41,.13-2.88,1.48-3.52,.91-.43,1.82-.85,2.73-1.26,1.75-.77,3.35-.13,4.08,1.63,.24,.56,.48,1.12,.77,1.65,.07,.14,.32,.26,.48,.25,1.53-.03,3.05-.08,4.58-.16,.16,0,.39-.16,.45-.31,.26-.6,.46-1.23,.69-1.85,.56-1.59,2.2-2.4,3.78-1.84,1.01,.36,2.02,.72,3.01,1.12,1.46,.59,2.12,2.06,1.63,3.57-.23,.7-.48,1.4-.75,2.09-.1,.26-.02,.39,.19,.58,1.1,.98,2.19,1.98,3.25,3.01,.25,.24,.43,.28,.72,.14,.56-.27,1.14-.51,1.7-.79,1.56-.75,3.23-.18,3.98,1.39,.43,.91,.86,1.82,1.27,2.74,.71,1.6,.13,3.16-1.45,3.92-.63,.3-1.26,.58-1.87,.89-.11,.06-.25,.23-.25,.34,.08,1.67,.19,3.34,.29,5.08,.66,.25,1.44,.54,2.23,.84,.87,.33,1.44,.96,1.72,1.84,.03,.09,.09,.17,.14,.25,0,.36,0,.73,0,1.09Zm-22.35,5.29c5.95,.03,11.04-4.57,11.32-10.73,.3-6.45-4.61-11.7-11.09-11.84-6.12-.13-11.13,4.57-11.45,10.74-.34,6.32,4.72,11.76,11.22,11.83Z"/>
        <path class="cls-7" d="M74.66,79.03c.48-1.22,.95-2.45,1.43-3.67,1-2.59,2.93-3.41,5.5-2.33,2.17,.92,2.14,.89,3.63-.88,.77-.93,1.65-1.78,2.55-2.6,.48-.44,.51-.81,.23-1.35-.38-.74-.75-1.49-1.02-2.28-.65-1.82-.03-3.55,1.65-4.45,1.28-.69,2.62-1.29,3.98-1.8,1.86-.69,3.53-.01,4.49,1.74,.4,.73,.67,1.53,1.11,2.23,.18,.3,.66,.58,1.01,.58,1.7,0,3.39-.12,5.09-.14,.6,0,.87-.24,1.05-.77,.29-.85,.6-1.71,1-2.51,.83-1.68,2.62-2.41,4.38-1.82,1.22,.41,2.43,.85,3.61,1.34,2.22,.93,2.97,2.75,2.14,5-.98,2.63-.96,2.61,1.17,4.35,.73,.59,1.39,1.27,1.96,2,.54,.7,1.05,.72,1.77,.31,.66-.37,1.37-.67,2.09-.93,1.85-.65,3.59,.03,4.49,1.76,.58,1.11,1.09,2.25,1.58,3.4,.95,2.23,.38,4.22-1.9,5.06-2.19,.82-2.96,1.95-2.35,4.21,.24,.87,.07,1.87,0,2.8-.05,.68,.21,.99,.84,1.19,.82,.26,1.65,.56,2.42,.94,1.71,.84,2.43,2.56,1.82,4.36-.43,1.28-.89,2.56-1.41,3.81-.81,1.98-2.69,2.77-4.7,2.07-.94-.33-2-1-2.82-.79-.76,.2-1.25,1.39-1.91,2.1-.64,.68-1.31,1.34-2.03,1.94-.44,.38-.54,.72-.28,1.25,.4,.81,.81,1.62,1.1,2.47,.62,1.83-.03,3.5-1.74,4.4-1.16,.61-2.36,1.17-3.59,1.66-2.22,.89-4.06,.1-5.06-2.06-1.14-2.5-1.14-2.46-3.82-2.23-1.03,.09-2.08,.04-3.12-.02-.58-.03-.88,.17-1.07,.73-.28,.85-.6,1.7-.98,2.52-.74,1.62-2.43,2.42-4.15,1.89-1.45-.45-2.89-.98-4.28-1.6-1.77-.78-2.49-2.58-1.88-4.42,.26-.79,.62-1.55,.82-2.35,.08-.31-.04-.82-.26-1.03-1.26-1.24-2.55-2.44-3.89-3.59-.24-.2-.75-.26-1.06-.16-.85,.29-1.63,.77-2.49,1.05-1.9,.64-3.56-.01-4.47-1.79-.62-1.2-1.18-2.43-1.67-3.7-.8-2.07-.02-3.89,1.98-4.83,.84-.4,2.03-.61,2.42-1.28,.39-.66-.06-1.8-.09-2.72-.03-.9-.05-1.81,.03-2.71,.07-.77-.09-1.24-.93-1.42-.64-.13-1.23-.47-1.85-.67-1.3-.43-1.99-1.43-2.53-2.6,0-.55,0-1.11,0-1.67Zm27.81,21.89c7.37,.26,14.04-6.04,14.31-13.53,.29-7.94-5.82-14.52-13.75-14.81-7.65-.28-14.28,5.89-14.58,13.55-.31,7.97,5.89,14.51,14.01,14.79Z"/>
        <path class="cls-2" d="M138.39,177.99c-.03,.21-.03,.42-.08,.62-.14,.6-.63,1.42-.41,1.74,.63,.88,1.53,1.59,2.39,2.28,.16,.14,.65-.04,.93-.17,2.03-.94,2.91-.61,3.81,1.48,.18,.42,.38,.82,.52,1.25,.38,1.18-.02,2.17-1.19,2.62-1.01,.39-1.62,.89-1.24,2.05,.02,.06,.03,.14,.01,.21-.26,1.44,.16,2.45,1.72,2.78,.28,.06,.57,.31,.74,.55,1.14,1.63-.13,2.97-.64,4.36-.31,.84-1.39,1.06-2.47,.75-.3-.08-.59-.29-.88-.29-.35,0-.78,.08-1.03,.29-.49,.43-.81,1.06-1.33,1.45-.72,.55-.65,1.04-.29,1.77,.85,1.74,.48,2.62-1.32,3.44-.25,.12-.5,.24-.75,.37-1.77,.88-2.76,.55-3.55-1.27-.33-.76-.73-1.13-1.56-.88-.07,.02-.14,.04-.21,.03-1.65-.25-2.85,.22-3.25,2-.04,.15-.17,.31-.3,.41-.94,.83-2.35,.51-4.38-.56-.98-.51-1.27-1.54-.72-2.73,.45-.97,.37-1.63-.6-2.11-.09-.05-.19-.11-.24-.2-.83-1.24-1.81-1.47-3.21-.76-1.01,.51-1.95-.03-2.48-1.06-.13-.25-.25-.5-.37-.75-1.17-2.52-1-2.95,1.47-4.31,.26-.14,.37-.61,.5-.96,.05-.14-.08-.34-.07-.51,.12-1.57-.04-2.88-1.98-3.32-.42-.09-.95-1.16-.86-1.68,.2-1.13,.62-2.29,1.22-3.27,.56-.92,1.65-.87,2.54-.43,.99,.49,1.47,.03,2.16-.62,1.14-1.08,1.69-2.05,.81-3.6-.44-.77,0-1.66,.82-2.12,.76-.42,1.54-.81,2.35-1.09,1.12-.38,2.08-.01,2.53,1.2,.47,1.24,1.17,1.55,2.34,1.23,.06-.01,.14-.02,.21,0,1.32,.26,2.11-.17,2.45-1.59,.25-1.02,1.34-1.53,2.32-1.25,.87,.24,1.75,.51,2.51,.98,.52,.32,.83,.98,1.24,1.49-.07,.06-.13,.12-.2,.17Zm-15.73,12.67c-.13,4.24,3.3,7.87,7.61,8.04,4.35,.17,8-3.36,8.12-7.85,.11-4.2-3.35-7.8-7.6-7.91-4.39-.12-7.99,3.3-8.12,7.71Z"/>
      </g>
    </g>
  </g>
</svg>