<svg id="eR3SQZaxjh71" xmlns="http://www.w3.org/2000/svg" xmlns:xlink="http://www.w3.org/1999/xlink" viewBox="0 0 308.63 396.66" shape-rendering="geometricPrecision" text-rendering="geometricPrecision"><g><g><g><path d="M248.76,239.66c0,0,3.84,1.67,2.82-15.52" fill="none" stroke="#19916e" stroke-miterlimit="10"/><path d="M260.46,245.39c0,0,3.84,1.67,2.82-15.51" fill="none" stroke="#19916e" stroke-miterlimit="10"/><path d="M249.75,239.55c0,0,2.34,4.78,8.7-9.72" fill="none" stroke="#bf3915" stroke-miterlimit="10"/><path d="M268.37,243.91c0,0,2.82,4.18,7.56-11.6" fill="none" stroke="#19916e" stroke-miterlimit="10"/><path d="M269.27,244.52c0,0,.49,5.84,10.81-2.37" fill="none" stroke="#bf3915" stroke-miterlimit="10"/><path d="M268.26,245.39c0,0,3.84,1.67,2.82-15.51" fill="none" stroke="#34537d" stroke-miterlimit="10"/><path d="M119.95,333.26c0,0-3.85-1.67-2.82,15.52" fill="none" stroke="#19916e" stroke-miterlimit="10"/><path d="M108.25,327.53c0,0-3.84-1.67-2.82,15.52" fill="none" stroke="#19916e" stroke-miterlimit="10"/><path d="M118.96,333.37c0,0-2.34-4.77-8.7,9.72" fill="none" stroke="#bf3915" stroke-miterlimit="10"/><path d="M100.33,329.01c0,0-2.82-4.18-7.56,11.61" fill="none" stroke="#19916e" stroke-miterlimit="10"/><path d="M100.45,327.53c0,0-3.84-1.67-2.82,15.52" fill="none" stroke="#34537d" stroke-miterlimit="10"/><path d="M63.53,105.12c0,0,3.84,1.67,2.82-15.52" fill="none" stroke="#19916e" stroke-miterlimit="10"/><path d="M75.23,110.85c0,0,3.84,1.67,2.82-15.52" fill="none" stroke="#19916e" stroke-miterlimit="10"/><path d="M64.51,105.02c0,0,2.34,4.78,8.7-9.72" fill="none" stroke="#bf3915" stroke-miterlimit="10"/><path d="M83.14,109.38c0,0,2.82,4.18,7.56-11.61" fill="none" stroke="#19916e" stroke-miterlimit="10"/><path d="M84.04,109.98c0,0,.49,5.84,10.82-2.37" fill="none" stroke="#bf3915" stroke-miterlimit="10"/><path d="M83.03,110.85c0,0,3.84,1.67,2.82-15.52" fill="none" stroke="#34537d" stroke-miterlimit="10"/><g><g><g><path d="M219.18,200.86L211.87,207l-12.24,10.28-9.92-10.43-13.55-14.23-.41-.43-11.62-12.2l7-5.87l4.62-3.88l10.35-8.68.04-.04.1.14c0,0,.03.02.03.02l2.85,3.35c0,0,.02.02.02.04l30.06,35.8-.02-.01Z" fill="#a7a7a6"/><polygon points="221.89,209.87 215.36,262.59 214.95,265.93 214.93,265.93 212.75,265.59 207.11,264.74 201.49,263.88 201.46,262.67 201.4,261.27 199.62,217.28 211.34,213.38 221.89,209.87" fill="#3c5fa2"/><polygon points="216.46,264.01 216.46,270.72 208.29,269.13 199.13,267.36 199.13,260.65 202.93,261.39 208.84,262.52 216.46,264.01" fill="#4e4d4d"/><path d="M219.25,278.18c-.58,4.58-3.41,8.56-7.54,10.65-.57.27-1.17.41-1.76.41-1.42,0-2.8-.78-3.51-2.16-.95-1.93-.18-4.29,1.76-5.27c1.81-.89,3.02-2.61,3.3-4.62.08-.65.06-1.27-.06-1.87-.18-.93-.56-1.81-1.17-2.57-.57-.74-1.31-1.33-2.13-1.74-.58-.27-1.21-.46-1.87-.54-3.3-.43-6.32,1.91-6.73,5.21-.25,1.97.47,3.94,1.97,5.26c1.6,1.43,1.73,3.9.31,5.52-1.44,1.61-3.92,1.75-5.54.31-3.41-3.04-5.09-7.57-4.52-12.09.61-4.68,3.47-8.52,7.37-10.53c1.19-.65,2.5-1.09,3.86-1.35c1.37-.25,2.81-.29,4.27-.12.53.06,1.03.16,1.54.29c2.03.49,3.88,1.42,5.48,2.75.8.65,1.54,1.39,2.18,2.23c1.79,2.32,2.79,5.07,2.88,7.95.05.76,0,1.52-.09,2.29v-.01Z" fill="#4e4d4d"/><g><polygon points="281.3,255.72 274.99,257.25 278.9,265.43 279.01,265.64 272.32,269.82 272.04,270 276.02,278.53 275.87,278.61 268.53,282.76 268.56,282.82 273.25,290.5 266.9,294.92 266.14,295.46 270.08,304.18 262.64,308.2 262.71,308.37 266.94,317.16 267.03,317.34 259.68,320.95 259.95,321.43 264.24,329.38 263.82,329.61 256.18,333.7 256.27,333.78 261.97,339.22 261.09,343.02 220.28,333.57 221.16,329.77 228.67,327.39 228.79,327.35 223.73,320.33 223.44,319.93 230.79,314.68 231.24,314.37 226.23,307.9 226.39,307.77 234.05,301.73 234.19,301.62 229.28,294.73 236.65,288.63 236.19,287.82 232.44,281.05 240.03,276.21 240.08,276.18 235.32,269.22 235.22,269.08 242.55,263.17 242.37,262.88 238.2,256.19 238.39,256.05 245.49,250.42 240.5,246.26 242.08,239.43 282.89,248.88 281.3,255.72" fill="#a7a7a6"/><polygon points="279.01,265.64 272.32,269.82 242.37,262.88 238.2,256.19 238.39,256.05 278.9,265.43 279.01,265.64" fill="#777676"/><polygon points="268.53,282.76 268.56,282.82 240.03,276.21 240.08,276.18 235.32,269.22 275.87,278.61 268.53,282.76" fill="#777676"/><polygon points="273.25,290.5 266.9,294.92 236.19,287.82 232.44,281.05 273.25,290.5" fill="#777676"/><polygon points="262.64,308.2 262.71,308.37 234.05,301.73 234.19,301.62 229.28,294.73 270.08,304.18 262.64,308.2" fill="#777676"/><polygon points="259.68,320.95 259.95,321.43 230.79,314.68 231.24,314.37 226.23,307.9 226.39,307.77 266.94,317.16 267.03,317.34 259.68,320.95" fill="#777676"/><polygon points="256.18,333.7 256.27,333.78 228.67,327.39 228.79,327.35 223.73,320.33 263.82,329.61 256.18,333.7" fill="#777676"/></g><rect width="5.78" height="57.52" rx="0" ry="0" transform="matrix(.225631-.974213 0.974213 0.225631 205.863021 359.04731)" fill="#4e4d4d"/><path d="M241.59,334.39l-5.94,25.64-28.49-6.6.66-2.85c2.92-12.6,15.48-20.43,28.07-17.52l5.7,1.32v.01Z" fill="#3c5fa2"/><g><polygon points="129.63,241.7 123.83,244.62 129.48,251.71 129.63,251.89 124.06,257.47 123.83,257.71 129.63,265.11 129.5,265.24 123.29,270.94 123.33,270.98 129.63,277.41 124.45,283.15 123.83,283.84 129.63,291.45 123.29,297.04 123.4,297.19 129.5,304.8 129.63,304.96 123.29,310.13 123.66,310.54 129.63,317.31 129.27,317.64 122.75,323.34 122.86,323.4 129.63,327.42 129.63,331.32 87.75,331.32 87.75,327.42 94.52,323.4 94.63,323.34 88.12,317.64 87.75,317.31 93.73,310.54 94.09,310.13 87.75,304.96 87.88,304.8 93.99,297.19 94.09,297.04 87.75,291.45 93.56,283.84 92.93,283.15 87.75,277.41 94.05,270.98 94.09,270.94 87.88,265.24 87.75,265.11 93.56,257.71 93.32,257.47 87.75,251.89 87.9,251.71 93.56,244.62 87.75,241.7 87.75,234.69 129.63,234.69 129.63,241.7" fill="#a7a7a6"/><polygon points="129.63,251.89 124.06,257.47 93.32,257.47 87.75,251.89 87.9,251.71 129.48,251.71 129.63,251.89" fill="#777676"/><polygon points="123.29,270.94 123.33,270.98 94.05,270.98 94.09,270.94 87.88,265.24 129.5,265.24 123.29,270.94" fill="#777676"/><polygon points="129.63,277.41 124.45,283.15 92.93,283.15 87.75,277.41 129.63,277.41" fill="#777676"/><polygon points="123.29,297.04 123.4,297.19 93.99,297.19 94.09,297.04 87.75,291.45 129.63,291.45 123.29,297.04" fill="#777676"/><polygon points="123.29,310.13 123.66,310.54 93.73,310.54 94.09,310.13 87.75,304.96 87.88,304.8 129.5,304.8 129.63,304.96 123.29,310.13" fill="#777676"/><polygon points="122.75,323.34 122.86,323.4 94.52,323.4 94.63,323.34 88.12,317.64 129.27,317.64 122.75,323.34" fill="#777676"/></g><rect width="37.48" height="12.18" rx="0" ry="0" transform="translate(120.01 151.7)" fill="#4e4d4d"/><g id="eR3SQZaxjh748" transform="translate(.000001 0)"><polygon points="48.31,153.13 28.11,137.52 59.54,96.87 82.28,114.45 48.31,153.13" fill="#a7a7a6"/><polygon points="48.31,153.13 28.11,137.52 25.75,146.63 48.31,153.13" fill="#4e4d4d"/><polygon points="25.75,146.63 34.94,202.37 48.31,199.78 48.31,153.13 25.75,146.63" fill="#3c5fa2"/></g><path d="M189.7,167.73v95.37h-102.76v-95.37c0-3.39,2.75-6.36,6.82-7.89c1.95-.76,4.21-1.19,6.61-1.19h75.89c2.04,0,3.98.31,5.71.86c4.57,1.44,7.73,4.58,7.73,8.23v-.01Z" fill="#3c5fa2"/><path d="M189.7,167.73c0-3.65-3.16-6.78-7.73-8.23v-.86h4.99c1.5,0,2.73,4.05,2.73,9.08l.01.01Z" fill="#34537d"/><path d="M189.7,167.73v95.37h-7.73v-103.6c4.57,1.45,7.73,4.58,7.73,8.23Z" fill="#34537d"/><path d="M94.47,165.92v95.37h-7.53v-93.56c0-3.39,2.75-6.36,6.82-7.89.43,1.61.7,3.74.7,6.08h.01Z" fill="#34537d"/><polygon points="101.33,222.65 99.94,219.45 99.94,172.49 176.71,172.49 176.71,219.38 175.27,222.65 101.33,222.65" fill="#34537d"/><rect width="74.82" height="2.76" rx="0" ry="0" transform="translate(100.91 228.02)" fill="#4e4d4d"/><rect width="74.83" height="50.15" rx="0" ry="0" transform="translate(100.91 169)" fill="#4e4d4d"/><rect width="74.82" height="2.76" rx="0" ry="0" transform="translate(100.91 238.87)" fill="#4e4d4d"/><rect width="74.82" height="2.76" rx="0" ry="0" transform="translate(100.91 248.94)" fill="#4e4d4d"/><rect width="57.52" height="5.78" rx="0" ry="0" transform="translate(135.36 357.78)" fill="#4e4d4d"/><rect width="2.24" height="45.13" rx="0" ry="0" transform="matrix(.850994-.525175 0.525175 0.850994 235.953713 158.229995)" fill="#4e4d4d"/><path d="M236.94,152.37c2.88,0,5.22,2.34,5.22,5.22s-2.34,5.22-5.22,5.22-5.22-2.34-5.22-5.22s2.34-5.22,5.22-5.22Z" fill="#3c5fa2"/><polygon points="54.02,231.59 44.27,246.33 39.47,241.63 49.22,226.9 54.02,231.59" fill="#4e4d4d"/><path d="M62.05,254.65c-.41.42-.92.75-1.52.96-4.39,1.5-9.2.74-12.88-2.06-2.95-2.23-4.85-5.49-5.36-9.15-.5-3.67.45-7.31,2.69-10.26c4.62-6.08,13.33-7.29,19.42-2.67c3.64,2.76,5.68,7.13,5.47,11.69-.1,2.16-1.93,3.83-4.09,3.73s-3.83-1.94-3.73-4.1c.09-1.98-.8-3.88-2.38-5.08-2.64-2.01-6.43-1.48-8.44,1.17-.98,1.28-1.39,2.87-1.17,4.46s1.04,3.01,2.33,3.98c1.61,1.22,3.7,1.55,5.61.89c2.04-.7,4.27.39,4.98,2.43.5,1.45.09,2.99-.91,4.02l-.02-.01Z" fill="#4e4d4d"/><polygon points="189.7,261.26 86.94,261.26 86.94,265.99 130.79,265.99 128.04,274.95 148.6,274.95 145.85,265.99 189.7,265.99 189.7,261.26" fill="#a7a7a6"/><path d="M192.88,354.86v2.93h-57.52v-2.93c0-12.93,10.47-23.4,23.4-23.4h10.72c12.93,0,23.4,10.47,23.4,23.4Z" fill="#3c5fa2"/><polygon points="146.9,277.41 129.63,277.41 128.04,274.95 148.57,274.95 146.9,277.41" fill="#777676"/><path d="M263.86,363.56l-.66,2.85-27.54-6.38l5.94-25.64l4.75,1.1c12.59,2.92,20.44,15.48,17.52,28.07h-.01Z" fill="#34537d"/></g><rect width="106.16" height="106.16" rx="0" ry="0" transform="translate(163.25 24.64)" fill="#3c5fa2"/><polygon points="262.59,136.71 168.18,136.71 163.25,130.8 269.67,130.8 262.59,136.71" fill="#34537d"/><g><path d="M249.53,76.96c0,19.3-15.65,34.95-34.94,34.95-10.39,0-19.74-4.53-26.1-11.75c6.15,5.51,14.28,8.85,23.19,8.85c19.3,0,34.95-15.64,34.95-34.95c0-8.88-3.34-17.04-8.85-23.19c7.22,6.36,11.75,15.7,11.75,26.09" fill="#d3d3d3"/><path d="M246.63,74.06c0,19.3-15.64,34.94-34.94,34.94-8.91,0-17.03-3.34-23.19-8.84-5.51-6.16-8.86-14.31-8.86-23.19c0-19.3,15.65-34.95,34.95-34.95c8.91,0,17.04,3.34,23.19,8.85c5.51,6.15,8.85,14.31,8.85,23.19" fill="#fff"/><path d="M234.66,76.44c0,11.08-8.98,20.07-20.06,20.07s-20.07-8.98-20.07-20.07s8.98-20.07,20.07-20.07s20.06,8.99,20.06,20.07" fill="#010002"/><path d="M208.18,61.95c0,4.38-3.56,7.94-7.94,7.94s-7.94-3.56-7.94-7.94s3.55-7.94,7.94-7.94s7.94,3.55,7.94,7.94" fill="#fff"/></g></g><polygon points="221.89,209.87 211.34,213.38 199.62,217.28 211.87,207 219.18,200.86 220.41,204.97 221.89,209.87" fill="#4e4d4d"/><polygon points="221.89,209.87 215.36,262.59 207.29,262.59 207.3,262.4 211.34,213.38 221.89,209.87" fill="#34537d"/></g><g><path d="M79.06,306.87c-.32.88-.66,1.75-.97,2.63-.38,1.11-1.02,1.92-2.24,2.06-.4.05-.85-.04-1.24-.16-.6-.17-1.18-.41-1.77-.64-.21-.08-.32-.02-.47.15-.88.99-1.77,1.98-2.69,2.93-.21.22-.25.36-.12.63.3.62.61,1.23.83,1.87.44,1.26-.04,2.48-1.23,3.08-.88.45-1.78.88-2.7,1.26-1.34.56-2.76-.03-3.36-1.36-.25-.55-.51-1.09-.75-1.63-.1-.22-.21-.3-.47-.26-1.3.22-2.61.32-3.93.15-.34-.04-.47.1-.56.39-.22.62-.45,1.24-.7,1.84-.52,1.27-1.92,1.84-3.35,1.31-.81-.3-1.62-.6-2.42-.91-1.37-.51-2.03-1.88-1.56-3.27.21-.61.44-1.21.67-1.8.09-.23.03-.36-.16-.52-1.08-.93-2.15-1.88-3.3-2.89-.34.16-.83.38-1.32.61-.76.37-1.53.65-2.4.36-.69-.23-1.2-.66-1.51-1.31-.4-.82-.78-1.64-1.15-2.46-.68-1.5-.1-2.97,1.41-3.63.51-.22,1.02-.43,1.51-.69.12-.06.23-.28.23-.42-.03-1.36-.1-2.71-.12-4.07c0-.28-.13-.36-.33-.43-.55-.2-1.09-.41-1.64-.61-1.47-.53-2.14-1.98-1.59-3.44.29-.77.58-1.53.85-2.3.51-1.45,1.89-2.15,3.37-1.69.6.19,1.19.4,1.77.64.26.11.38,0,.55-.18.88-.97,1.76-1.94,2.67-2.89.21-.21.22-.35.11-.59-.3-.64-.61-1.27-.85-1.92-.44-1.25.12-2.56,1.32-3.13.8-.38,1.61-.75,2.43-1.11c1.55-.69,2.97-.11,3.63,1.45.21.5.43.99.68,1.47.07.12.28.23.43.22c1.36-.03,2.71-.07,4.07-.14.14,0,.35-.14.4-.28.23-.53.41-1.09.61-1.64.5-1.41,1.96-2.13,3.35-1.64.9.32,1.79.64,2.67,1c1.29.53,1.89,1.83,1.45,3.17-.2.62-.43,1.25-.67,1.86-.09.23-.02.35.17.51.98.87,1.94,1.76,2.89,2.67.22.21.38.25.64.12.5-.24,1.01-.45,1.51-.7c1.38-.67,2.87-.16,3.53,1.24.39.81.76,1.61,1.13,2.43.63,1.42.11,2.81-1.29,3.48-.56.27-1.12.52-1.66.79-.1.05-.23.21-.22.3.07,1.48.17,2.97.26,4.51.58.22,1.28.48,1.98.75.77.3,1.28.86,1.53,1.64.03.08.08.15.13.23c0,.32,0,.65,0,.96h-.04Zm-19.85,4.7c5.29.03,9.8-4.06,10.05-9.53.27-5.73-4.09-10.39-9.85-10.51-5.43-.12-9.88,4.06-10.17,9.54-.3,5.61,4.19,10.44,9.96,10.5h.01Z" fill="#5d5d5d"/><path id="eR3SQZaxjh781" d="M92.05,94.82c.42-1.08.85-2.17,1.27-3.26.89-2.3,2.61-3.03,4.88-2.07c1.93.81,1.9.79,3.22-.78.69-.82,1.47-1.58,2.26-2.31.42-.39.45-.72.2-1.2-.34-.66-.66-1.33-.91-2.02-.57-1.61-.03-3.15,1.46-3.95c1.14-.61,2.32-1.15,3.53-1.6c1.65-.61,3.13-.01,3.99,1.55.36.65.59,1.36.99,1.98.16.27.58.52.89.52c1.51,0,3.01-.11,4.52-.13.53,0,.77-.21.93-.69.26-.75.53-1.52.88-2.23.74-1.49,2.32-2.14,3.89-1.61c1.08.36,2.16.75,3.2,1.19c1.97.82,2.64,2.44,1.9,4.44-.87,2.34-.85,2.32,1.04,3.86.64.52,1.23,1.13,1.74,1.77.48.62.93.64,1.57.28.59-.33,1.22-.6,1.85-.82c1.64-.58,3.19.02,3.99,1.56.51.99.97,2,1.4,3.02.84,1.98.33,3.75-1.69,4.5-1.95.72-2.62,1.73-2.09,3.74.21.77.06,1.66,0,2.49-.05.6.19.88.75,1.05.73.23,1.46.49,2.15.84c1.52.75,2.16,2.28,1.62,3.87-.39,1.14-.79,2.27-1.25,3.38-.72,1.76-2.39,2.46-4.17,1.84-.84-.29-1.78-.89-2.51-.71-.68.18-1.11,1.24-1.69,1.86-.57.61-1.17,1.19-1.8,1.72-.39.34-.48.64-.25,1.11.36.72.72,1.44.97,2.2.55,1.63-.03,3.11-1.55,3.91-1.03.54-2.1,1.04-3.18,1.48-1.97.79-3.61.09-4.49-1.83-1.02-2.22-1.01-2.19-3.39-1.98-.92.08-1.85.03-2.77-.01-.52-.03-.79.15-.95.65-.25.75-.54,1.51-.87,2.24-.66,1.44-2.16,2.15-3.68,1.68-1.29-.4-2.57-.87-3.8-1.42-1.57-.7-2.21-2.29-1.67-3.93.23-.7.55-1.37.73-2.09.07-.28-.03-.73-.23-.92-1.12-1.1-2.27-2.17-3.45-3.19-.21-.18-.67-.23-.94-.14-.75.25-1.45.68-2.21.93-1.69.57-3.16-.01-3.97-1.59-.55-1.07-1.05-2.16-1.48-3.28-.71-1.84-.02-3.46,1.76-4.29.75-.35,1.8-.55,2.15-1.14s-.05-1.59-.08-2.42c-.03-.8-.04-1.61.02-2.4.06-.69-.08-1.1-.83-1.26-.56-.12-1.09-.41-1.65-.6-1.15-.38-1.77-1.27-2.24-2.31c0-.49,0-.98,0-1.48h.04Zm24.7,19.44c6.55.23,12.47-5.37,12.71-12.01.26-7.05-5.16-12.9-12.21-13.15-6.8-.25-12.68,5.23-12.95,12.03-.27,7.08,5.23,12.88,12.44,13.13h.01Z" transform="translate(0 0.000001)" fill="#5d5d5d"/><path d="M148.65,182.7c-.02.18-.03.37-.07.55-.13.53-.56,1.26-.36,1.54.56.78,1.35,1.41,2.12,2.03.14.12.57-.03.83-.15c1.8-.84,2.59-.54,3.38,1.31.16.37.34.73.46,1.11.33,1.05-.02,1.93-1.05,2.33-.9.35-1.44.79-1.1,1.82.02.06.02.13.01.19-.23,1.28.14,2.18,1.53,2.46.25.05.51.27.66.49c1.02,1.45-.12,2.64-.57,3.87-.28.75-1.23.94-2.19.67-.27-.07-.52-.26-.79-.26-.31,0-.69.07-.92.26-.44.38-.72.94-1.18,1.28-.64.49-.57.93-.26,1.57.76,1.55.42,2.33-1.17,3.06-.22.1-.44.22-.66.33-1.57.78-2.45.49-3.15-1.13-.29-.67-.65-1.01-1.38-.78-.06.02-.13.03-.19.03-1.47-.22-2.53.2-2.88,1.78-.03.14-.15.27-.27.37-.84.74-2.09.45-3.89-.5-.87-.46-1.13-1.37-.64-2.42.4-.86.33-1.45-.53-1.88-.08-.04-.16-.1-.22-.18-.74-1.11-1.61-1.3-2.85-.68-.9.46-1.73-.02-2.21-.94-.11-.22-.22-.44-.32-.67-1.04-2.23-.89-2.62,1.31-3.83.23-.13.33-.54.44-.85.04-.12-.07-.3-.06-.45.11-1.4-.04-2.56-1.76-2.95-.37-.08-.84-1.03-.76-1.49.18-1,.55-2.03,1.08-2.9.5-.82,1.46-.77,2.25-.38.88.43,1.3.03,1.92-.56c1.02-.96,1.5-1.82.72-3.2-.39-.68,0-1.47.73-1.88.67-.37,1.37-.72,2.09-.97c1-.34,1.84-.01,2.25,1.06.41,1.1,1.04,1.37,2.08,1.09.06-.01.13-.02.19,0c1.18.23,1.87-.15,2.18-1.41.22-.9,1.19-1.36,2.06-1.11.77.22,1.56.45,2.23.87.46.28.74.87,1.1,1.33-.06.05-.12.1-.18.15l-.01.02Zm-13.97,11.25c-.12,3.77,2.93,6.99,6.75,7.14c3.87.15,7.11-2.98,7.21-6.97.09-3.73-2.98-6.92-6.75-7.02-3.9-.1-7.1,2.93-7.21,6.85Z" fill="#fff"/></g></g><rect width="308.63" height="396.66" rx="0" ry="0" fill="none"/></g></g>
<script><![CDATA[
!function(t,n){"object"==typeof exports&&"undefined"!=typeof module?module.exports=n():"function"==typeof __SVGATOR_DEFINE__&&__SVGATOR_DEFINE__.amd?__SVGATOR_DEFINE__(n):((t="undefined"!=typeof globalThis?globalThis:t||self).__SVGATOR_PLAYER__=t.__SVGATOR_PLAYER__||{},t.__SVGATOR_PLAYER__["5c7f360c"]=n())}(this,(function(){"use strict";function t(t,n){var e=Object.keys(t);if(Object.getOwnPropertySymbols){var r=Object.getOwnPropertySymbols(t);n&&(r=r.filter((function(n){return Object.getOwnPropertyDescriptor(t,n).enumerable}))),e.push.apply(e,r)}return e}function n(n){for(var e=1;e<arguments.length;e++){var r=null!=arguments[e]?arguments[e]:{};e%2?t(Object(r),!0).forEach((function(t){o(n,t,r[t])})):Object.getOwnPropertyDescriptors?Object.defineProperties(n,Object.getOwnPropertyDescriptors(r)):t(Object(r)).forEach((function(t){Object.defineProperty(n,t,Object.getOwnPropertyDescriptor(r,t))}))}return n}function e(t){return(e="function"==typeof Symbol&&"symbol"==typeof Symbol.iterator?function(t){return typeof t}:function(t){return t&&"function"==typeof Symbol&&t.constructor===Symbol&&t!==Symbol.prototype?"symbol":typeof t})(t)}function r(t,n){if(!(t instanceof n))throw new TypeError("Cannot call a class as a function")}function i(t,n){for(var e=0;e<n.length;e++){var r=n[e];r.enumerable=r.enumerable||!1,r.configurable=!0,"value"in r&&(r.writable=!0),Object.defineProperty(t,r.key,r)}}function u(t,n,e){return n&&i(t.prototype,n),e&&i(t,e),t}function o(t,n,e){return n in t?Object.defineProperty(t,n,{value:e,enumerable:!0,configurable:!0,writable:!0}):t[n]=e,t}function a(t){return(a=Object.setPrototypeOf?Object.getPrototypeOf:function(t){return t.__proto__||Object.getPrototypeOf(t)})(t)}function l(t,n){return(l=Object.setPrototypeOf||function(t,n){return t.__proto__=n,t})(t,n)}function s(){if("undefined"==typeof Reflect||!Reflect.construct)return!1;if(Reflect.construct.sham)return!1;if("function"==typeof Proxy)return!0;try{return Boolean.prototype.valueOf.call(Reflect.construct(Boolean,[],(function(){}))),!0}catch(t){return!1}}function f(t,n,e){return(f=s()?Reflect.construct:function(t,n,e){var r=[null];r.push.apply(r,n);var i=new(Function.bind.apply(t,r));return e&&l(i,e.prototype),i}).apply(null,arguments)}function c(t,n){if(n&&("object"==typeof n||"function"==typeof n))return n;if(void 0!==n)throw new TypeError("Derived constructors may only return object or undefined");return function(t){if(void 0===t)throw new ReferenceError("this hasn't been initialised - super() hasn't been called");return t}(t)}function h(t,n,e){return(h="undefined"!=typeof Reflect&&Reflect.get?Reflect.get:function(t,n,e){var r=function(t,n){for(;!Object.prototype.hasOwnProperty.call(t,n)&&null!==(t=a(t)););return t}(t,n);if(r){var i=Object.getOwnPropertyDescriptor(r,n);return i.get?i.get.call(e):i.value}})(t,n,e||t)}function v(t){return function(t){if(Array.isArray(t))return y(t)}(t)||function(t){if("undefined"!=typeof Symbol&&null!=t[Symbol.iterator]||null!=t["@@iterator"])return Array.from(t)}(t)||function(t,n){if(!t)return;if("string"==typeof t)return y(t,n);var e=Object.prototype.toString.call(t).slice(8,-1);"Object"===e&&t.constructor&&(e=t.constructor.name);if("Map"===e||"Set"===e)return Array.from(t);if("Arguments"===e||/^(?:Ui|I)nt(?:8|16|32)(?:Clamped)?Array$/.test(e))return y(t,n)}(t)||function(){throw new TypeError("Invalid attempt to spread non-iterable instance.\nIn order to be iterable, non-array objects must have a [Symbol.iterator]() method.")}()}function y(t,n){(null==n||n>t.length)&&(n=t.length);for(var e=0,r=new Array(n);e<n;e++)r[e]=t[e];return r}function g(t,n,e){if(Number.isInteger(t))return t;var r=Math.pow(10,n);return Math[e]((+t+Number.EPSILON)*r)/r}Number.isInteger||(Number.isInteger=function(t){return"number"==typeof t&&isFinite(t)&&Math.floor(t)===t}),Number.EPSILON||(Number.EPSILON=2220446049250313e-31);var p=d(Math.pow(10,-6));function d(t){var n=arguments.length>1&&void 0!==arguments[1]?arguments[1]:6;return g(t,n,"round")}function m(t,n){var e=arguments.length>2&&void 0!==arguments[2]?arguments[2]:p;return Math.abs(t-n)<e}d(Math.pow(10,-2)),d(Math.pow(10,-4));var b=Math.PI/180;function w(t){return t*b}function x(t){return t/b}function _(t){return t}function A(t,n,e){var r=1-e;return 3*e*r*(t*r+n*e)+e*e*e}function k(){var t=arguments.length>0&&void 0!==arguments[0]?arguments[0]:0,n=arguments.length>1&&void 0!==arguments[1]?arguments[1]:0,e=arguments.length>2&&void 0!==arguments[2]?arguments[2]:1,r=arguments.length>3&&void 0!==arguments[3]?arguments[3]:1;return t<0||t>1||e<0||e>1?null:m(t,n)&&m(e,r)?_:function(i){if(i<=0)return t>0?i*n/t:0===n&&e>0?i*r/e:0;if(i>=1)return e<1?1+(i-1)*(r-1)/(e-1):1===e&&t<1?1+(i-1)*(n-1)/(t-1):1;for(var u,o=0,a=1;o<a;){var l=A(t,e,u=(o+a)/2);if(m(i,l))break;l<i?o=u:a=u}return A(n,r,u)}}function S(){return 1}function O(t){return 1===t?1:0}function j(){var t=arguments.length>0&&void 0!==arguments[0]?arguments[0]:1,n=arguments.length>1&&void 0!==arguments[1]?arguments[1]:0;if(1===t){if(0===n)return O;if(1===n)return S}var e=1/t;return function(t){return t>=1?1:(t+=n*e)-t%e}}var M=Math.sin,E=Math.cos,P=Math.acos,I=Math.asin,R=Math.tan,F=Math.atan2,N=Math.sqrt,T=function(){function t(){var n=arguments.length>0&&void 0!==arguments[0]?arguments[0]:1,e=arguments.length>1&&void 0!==arguments[1]?arguments[1]:0,i=arguments.length>2&&void 0!==arguments[2]?arguments[2]:0,u=arguments.length>3&&void 0!==arguments[3]?arguments[3]:1,o=arguments.length>4&&void 0!==arguments[4]?arguments[4]:0,a=arguments.length>5&&void 0!==arguments[5]?arguments[5]:0;r(this,t),this.m=[n,e,i,u,o,a],this.i=null,this.w=null,this.s=null}return u(t,[{key:"determinant",get:function(){var t=this.m;return t[0]*t[3]-t[1]*t[2]}},{key:"isIdentity",get:function(){if(null===this.i){var t=this.m;this.i=1===t[0]&&0===t[1]&&0===t[2]&&1===t[3]&&0===t[4]&&0===t[5]}return this.i}},{key:"point",value:function(t,n){var e=this.m;return{x:e[0]*t+e[2]*n+e[4],y:e[1]*t+e[3]*n+e[5]}}},{key:"translateSelf",value:function(){var t=arguments.length>0&&void 0!==arguments[0]?arguments[0]:0,n=arguments.length>1&&void 0!==arguments[1]?arguments[1]:0;if(!t&&!n)return this;var e=this.m;return e[4]+=e[0]*t+e[2]*n,e[5]+=e[1]*t+e[3]*n,this.w=this.s=this.i=null,this}},{key:"rotateSelf",value:function(){var t=arguments.length>0&&void 0!==arguments[0]?arguments[0]:0;if(t%=360){t=w(t);var n=M(t),e=E(t),r=this.m,i=r[0],u=r[1];r[0]=i*e+r[2]*n,r[1]=u*e+r[3]*n,r[2]=r[2]*e-i*n,r[3]=r[3]*e-u*n,this.w=this.s=this.i=null}return this}},{key:"scaleSelf",value:function(){var t=arguments.length>0&&void 0!==arguments[0]?arguments[0]:1,n=arguments.length>1&&void 0!==arguments[1]?arguments[1]:1;if(1!==t||1!==n){var e=this.m;e[0]*=t,e[1]*=t,e[2]*=n,e[3]*=n,this.w=this.s=this.i=null}return this}},{key:"skewSelf",value:function(t,n){if(n%=360,(t%=360)||n){var e=this.m,r=e[0],i=e[1],u=e[2],o=e[3];t&&(t=R(w(t)),e[2]+=r*t,e[3]+=i*t),n&&(n=R(w(n)),e[0]+=u*n,e[1]+=o*n),this.w=this.s=this.i=null}return this}},{key:"resetSelf",value:function(){var t=arguments.length>0&&void 0!==arguments[0]?arguments[0]:1,n=arguments.length>1&&void 0!==arguments[1]?arguments[1]:0,e=arguments.length>2&&void 0!==arguments[2]?arguments[2]:0,r=arguments.length>3&&void 0!==arguments[3]?arguments[3]:1,i=arguments.length>4&&void 0!==arguments[4]?arguments[4]:0,u=arguments.length>5&&void 0!==arguments[5]?arguments[5]:0,o=this.m;return o[0]=t,o[1]=n,o[2]=e,o[3]=r,o[4]=i,o[5]=u,this.w=this.s=this.i=null,this}},{key:"recomposeSelf",value:function(){var t=arguments.length>0&&void 0!==arguments[0]?arguments[0]:null,n=arguments.length>1&&void 0!==arguments[1]?arguments[1]:null,e=arguments.length>2&&void 0!==arguments[2]?arguments[2]:null,r=arguments.length>3&&void 0!==arguments[3]?arguments[3]:null,i=arguments.length>4&&void 0!==arguments[4]?arguments[4]:null;return this.isIdentity||this.resetSelf(),t&&(t.x||t.y)&&this.translateSelf(t.x,t.y),n&&this.rotateSelf(n),e&&(e.x&&this.skewSelf(e.x,0),e.y&&this.skewSelf(0,e.y)),!r||1===r.x&&1===r.y||this.scaleSelf(r.x,r.y),i&&(i.x||i.y)&&this.translateSelf(i.x,i.y),this}},{key:"decompose",value:function(){var t=arguments.length>0&&void 0!==arguments[0]?arguments[0]:0,n=arguments.length>1&&void 0!==arguments[1]?arguments[1]:0,e=this.m,r=e[0]*e[0]+e[1]*e[1],i=[[e[0],e[1]],[e[2],e[3]]],u=N(r);if(0===u)return{origin:{x:d(e[4]),y:d(e[5])},translate:{x:d(t),y:d(n)},scale:{x:0,y:0},skew:{x:0,y:0},rotate:0};i[0][0]/=u,i[0][1]/=u;var o=e[0]*e[3]-e[1]*e[2]<0;o&&(u=-u);var a=i[0][0]*i[1][0]+i[0][1]*i[1][1];i[1][0]-=i[0][0]*a,i[1][1]-=i[0][1]*a;var l,s=N(i[1][0]*i[1][0]+i[1][1]*i[1][1]);return 0===s?{origin:{x:d(e[4]),y:d(e[5])},translate:{x:d(t),y:d(n)},scale:{x:d(u),y:0},skew:{x:0,y:0},rotate:0}:(i[1][0]/=s,i[1][1]/=s,a/=s,i[1][1]<0?(l=x(P(i[1][1])),i[0][1]<0&&(l=360-l)):l=x(I(i[0][1])),o&&(l=-l),a=x(F(a,N(i[0][0]*i[0][0]+i[0][1]*i[0][1]))),o&&(a=-a),{origin:{x:d(e[4]),y:d(e[5])},translate:{x:d(t),y:d(n)},scale:{x:d(u),y:d(s)},skew:{x:d(a),y:0},rotate:d(l)})}},{key:"multiply",value:function(t){return this.clone().multiplySelf(t)}},{key:"preMultiply",value:function(t){return t.multiply(this)}},{key:"multiplySelf",value:function(t){var n=q(this.m,t.m),e=n.a,r=n.b,i=n.c,u=n.d,o=n.tx,a=n.ty;return this.resetSelf(e,r,i,u,o,a),this}},{key:"preMultiplySelf",value:function(t){var n=q(t.m,this.m),e=n.a,r=n.b,i=n.c,u=n.d,o=n.tx,a=n.ty;return this.resetSelf(e,r,i,u,o,a),this}},{key:"clone",value:function(){var t=this.m;return new this.constructor(t[0],t[1],t[2],t[3],t[4],t[5])}},{key:"toString",value:function(){var t=arguments.length>0&&void 0!==arguments[0]?arguments[0]:" ";if(null===this.s){var n=this.m.map((function(t){return d(t)}));1===n[0]&&0===n[1]&&0===n[2]&&1===n[3]?this.s="translate("+n[4]+t+n[5]+")":this.s="matrix("+n.join(t)+")"}return this.s}}],[{key:"create",value:function(t){return t?Array.isArray(t)?f(this,v(t)):t instanceof this?t.clone():(new this).recomposeSelf(t.origin,t.rotate,t.skew,t.scale,t.translate):new this}}]),t}();function q(t,n){return{a:t[0]*n[0]+t[2]*n[1],b:t[1]*n[0]+t[3]*n[1],c:t[0]*n[2]+t[2]*n[3],d:t[1]*n[2]+t[3]*n[3],tx:t[0]*n[4]+t[2]*n[5]+t[4],ty:t[1]*n[4]+t[3]*n[5]+t[5]}}function B(t,n,e){return t>=.5?e:n}function D(t,n,e){return 0===t||n===e?n:t*(e-n)+n}function L(t,n,e){var r=D(t,n,e);return r<=0?0:r}function C(t,n,e){var r=D(t,n,e);return r<=0?0:r>=1?1:r}function V(t,n,e){return 0===t?n:1===t?e:{x:D(t,n.x,e.x),y:D(t,n.y,e.y)}}function G(t,n,e){var r=function(t,n,e){return Math.round(D(t,n,e))}(t,n,e);return r<=0?0:r>=255?255:r}function z(t,n,e){return 0===t?n:1===t?e:{r:G(t,n.r,e.r),g:G(t,n.g,e.g),b:G(t,n.b,e.b),a:D(t,null==n.a?1:n.a,null==e.a?1:e.a)}}function Y(t,n){for(var e=[],r=0;r<t;r++)e.push(n);return e}function $(t,n){if(--n<=0)return t;var e=(t=Object.assign([],t)).length;do{for(var r=0;r<e;r++)t.push(t[r])}while(--n>0);return t}var U,Q=function(){function t(n){r(this,t),this.list=n,this.length=n.length}return u(t,[{key:"setAttribute",value:function(t,n){for(var e=this.list,r=0;r<this.length;r++)e[r].setAttribute(t,n)}},{key:"removeAttribute",value:function(t){for(var n=this.list,e=0;e<this.length;e++)n[e].removeAttribute(t)}},{key:"style",value:function(t,n){for(var e=this.list,r=0;r<this.length;r++)e[r].style[t]=n}}]),t}(),H=/-./g,J=function(t,n){return n.toUpperCase()};function Z(t){return"function"==typeof t?t:B}function K(t){return t?"function"==typeof t?t:Array.isArray(t)?function(t){var n=arguments.length>1&&void 0!==arguments[1]?arguments[1]:_;if(!Array.isArray(t))return n;switch(t.length){case 1:return j(t[0])||n;case 2:return j(t[0],t[1])||n;case 4:return k(t[0],t[1],t[2],t[3])||n}return n}(t,null):function(t,n){var e=arguments.length>2&&void 0!==arguments[2]?arguments[2]:_;switch(t){case"linear":return _;case"steps":return j(n.steps||1,n.jump||0)||e;case"bezier":case"cubic-bezier":return k(n.x1||0,n.y1||0,n.x2||0,n.y2||0)||e}return e}(t.type,t.value,null):null}function W(t,n,e){var r=arguments.length>3&&void 0!==arguments[3]&&arguments[3],i=n.length-1;if(t<=n[0].t)return r?[0,0,n[0].v]:n[0].v;if(t>=n[i].t)return r?[i,1,n[i].v]:n[i].v;var u,o=n[0],a=null;for(u=1;u<=i;u++){if(!(t>n[u].t)){a=n[u];break}o=n[u]}return null==a?r?[i,1,n[i].v]:n[i].v:o.t===a.t?r?[u,1,a.v]:a.v:(t=(t-o.t)/(a.t-o.t),o.e&&(t=o.e(t)),r?[u,t,e(t,o.v,a.v)]:e(t,o.v,a.v))}function X(t,n){var e=arguments.length>2&&void 0!==arguments[2]?arguments[2]:null;return t&&t.length?"function"!=typeof n?null:("function"!=typeof e&&(e=null),function(r){var i=W(r,t,n);return null!=i&&e&&(i=e(i)),i}):null}function tt(t,n){return t.t-n.t}function nt(t,n,r,i,u){var o,a="@"===r[0],l="#"===r[0],s=U[r],f=B;switch(a?(o=r.substr(1),r=o.replace(H,J)):l&&(r=r.substr(1)),e(s)){case"function":if(f=s(i,u,W,K,r,a,n,t),l)return f;break;case"string":f=X(i,Z(s));break;case"object":if((f=X(i,Z(s.i),s.f))&&"function"==typeof s.u)return s.u(n,f,r,a,t)}return f?function(t,n,e){if(arguments.length>3&&void 0!==arguments[3]&&arguments[3])return t instanceof Q?function(r){return t.style(n,e(r))}:function(r){return t.style[n]=e(r)};if(Array.isArray(n)){var r=n.length;return function(i){var u=e(i);if(null==u)for(var o=0;o<r;o++)t[o].removeAttribute(n);else for(var a=0;a<r;a++)t[a].setAttribute(n,u)}}return function(r){var i=e(r);null==i?t.removeAttribute(n):t.setAttribute(n,i)}}(n,r,f,a):null}function et(t,n,r,i){if(!i||"object"!==e(i))return null;var u=null,o=null;return Array.isArray(i)?o=function(t){if(!t||!t.length)return null;for(var n=0;n<t.length;n++)t[n].e&&(t[n].e=K(t[n].e));return t.sort(tt)}(i):(o=i.keys,u=i.data||null),o?nt(t,n,r,o,u):null}function rt(t,n,e){if(!e)return null;var r=[];for(var i in e)if(e.hasOwnProperty(i)){var u=et(t,n,i,e[i]);u&&r.push(u)}return r.length?r:null}function it(t,n){if(!n.settings.duration||n.settings.duration<0)return null;var e,r,i,u,o,a=function(t,n){if(!n)return null;var e=[];if(Array.isArray(n))for(var r=n.length,i=0;i<r;i++){var u=n[i];if(2===u.length){var o=null;if("string"==typeof u[0])o=t.getElementById(u[0]);else if(Array.isArray(u[0])){o=[];for(var a=0;a<u[0].length;a++)if("string"==typeof u[0][a]){var l=t.getElementById(u[0][a]);l&&o.push(l)}o=o.length?1===o.length?o[0]:new Q(o):null}if(o){var s=rt(t,o,u[1]);s&&(e=e.concat(s))}}}else for(var f in n)if(n.hasOwnProperty(f)){var c=t.getElementById(f);if(c){var h=rt(t,c,n[f]);h&&(e=e.concat(h))}}return e.length?e:null}(t,n.elements);return a?(e=a,r=n.settings,i=r.duration,u=e.length,o=null,function(t,n){var a=r.iterations||1/0,l=(r.alternate&&a%2==0)^r.direction>0?i:0,s=t%i,f=1+(t-s)/i;n*=r.direction,r.alternate&&f%2==0&&(n=-n);var c=!1;if(f>a)s=l,c=!0,-1===r.fill&&(s=r.direction>0?0:i);else if(n<0&&(s=i-s),s===o)return!1;o=s;for(var h=0;h<u;h++)e[h](s);return c}):null}function ut(t,n){for(var e=n.querySelectorAll("svg"),r=0;r<e.length;r++)if(e[r].id===t.root&&!e[r].svgatorAnimation)return e[r].svgatorAnimation=!0,e[r];return null}function ot(t){var n=function(t){return t.shadowRoot};return document?Array.from(t.querySelectorAll(":not("+["a","area","audio","br","canvas","circle","datalist","embed","g","head","hr","iframe","img","input","link","object","path","polygon","rect","script","source","style","svg","title","track","video"].join()+")")).filter(n).map(n):[]}function at(t){var n=arguments.length>1&&void 0!==arguments[1]?arguments[1]:document,e=arguments.length>2&&void 0!==arguments[2]?arguments[2]:0,r=ut(t,n);if(r)return r;if(e>=20)return null;for(var i=ot(n),u=0;u<i.length;u++){var o=at(t,i[u],e+1);if(o)return o}return null}function lt(t,n){if(U=n,!t||!t.root||!Array.isArray(t.animations))return null;var e=at(t);if(!e)return null;var r=t.animations.map((function(t){return it(e,t)})).filter((function(t){return!!t}));return r.length?{svg:e,animations:r,animationSettings:t.animationSettings,options:t.options||void 0}:null}function st(t){var n=arguments.length>1&&void 0!==arguments[1]?arguments[1]:null,e=arguments.length>2&&void 0!==arguments[2]?arguments[2]:Number,r=arguments.length>3&&void 0!==arguments[3]?arguments[3]:"undefined"!=typeof BigInt&&BigInt,i="0x"+(t.replace(/[^0-9a-fA-F]+/g,"")||27);return n&&r&&e.isSafeInteger&&!e.isSafeInteger(+i)?e(r(i))%n+n:+i}function ft(t,n,e){return!t||!e||n>t.length?t:t.substring(0,n)+ft(t.substring(n+1),e,e)}function ct(t){var n=arguments.length>1&&void 0!==arguments[1]?arguments[1]:27;return!t||t%n?t%n:[0,1].includes(n)?n:ct(t/n,n)}function ht(t,n,e){if(t&&t.length){var r=st(e),i=ct(r)+5,u=ft(t,ct(r,5),i);return u=u.replace(/\x7c$/g,"==").replace(/\x2f$/g,"="),u=function(t,n,e){var r=+("0x"+t.substring(0,4));t=t.substring(4);for(var i=st(n,r)%r+e%27,u=[],o=0;o<t.length;o+=2)if("|"!==t[o]){var a=+("0x"+t[o]+t[o+1])-i;u.push(a)}else{var l=+("0x"+t.substring(o+1,o+1+4))-i;o+=3,u.push(l)}return String.fromCharCode.apply(String,u)}(u=(u=atob(u)).replace(/[\x41-\x5A]/g,""),n,r),u=JSON.parse(u)}}var vt=[{key:"alternate",def:!1},{key:"fill",def:1},{key:"iterations",def:0},{key:"direction",def:1},{key:"speed",def:1},{key:"fps",def:100}],yt=function(){function t(n,e){var i=this,u=arguments.length>2&&void 0!==arguments[2]?arguments[2]:null;r(this,t),this._id=0,this._running=!1,this._rollingBack=!1,this._animations=n,this._settings=e,(!u||u<"2022-05-02")&&delete this._settings.speed,vt.forEach((function(t){i._settings[t.key]=i._settings[t.key]||t.def})),this.duration=e.duration,this.offset=e.offset||0,this.rollbackStartOffset=0}return u(t,[{key:"alternate",get:function(){return this._settings.alternate}},{key:"fill",get:function(){return this._settings.fill}},{key:"iterations",get:function(){return this._settings.iterations}},{key:"direction",get:function(){return this._settings.direction}},{key:"speed",get:function(){return this._settings.speed}},{key:"fps",get:function(){return this._settings.fps}},{key:"maxFiniteDuration",get:function(){return this.iterations>0?this.iterations*this.duration:this.duration}},{key:"_apply",value:function(t){for(var n=arguments.length>1&&void 0!==arguments[1]?arguments[1]:{},e=this._animations,r=e.length,i=0,u=0;u<r;u++)n[u]?i++:(n[u]=e[u](t,1),n[u]&&i++);return i}},{key:"_rollback",value:function(t){var n=this,e=1/0,r=null;this.rollbackStartOffset=t,this._rollingBack=!0,this._running=!0;this._id=window.requestAnimationFrame((function i(u){if(n._rollingBack){null==r&&(r=u);var o=Math.round(t-(u-r)*n.speed);if(o>n.duration&&e!==1/0){var a=!!n.alternate&&o/n.duration%2>1,l=o%n.duration;o=(l+=a?n.duration:0)||n.duration}var s=(n.fps?1e3/n.fps:0)*n.speed,f=Math.max(0,o);f<=e-s&&(n.offset=f,e=f,n._apply(f));var c=n.iterations>0&&-1===n.fill&&o>=n.maxFiniteDuration;(o<=0||n.offset<o||c)&&n.stop(),n._id=window.requestAnimationFrame(i)}}))}},{key:"_start",value:function(){var t=this,n=arguments.length>0&&void 0!==arguments[0]?arguments[0]:0,e=-1/0,r=null,i={};this._running=!0;var u=function u(o){null==r&&(r=o);var a=Math.round((o-r)*t.speed+n),l=(t.fps?1e3/t.fps:0)*t.speed;if(a>=e+l&&!t._rollingBack&&(t.offset=a,e=a,t._apply(a,i)===t._animations.length))return void t.pause(!0);t._id=window.requestAnimationFrame(u)};this._id=window.requestAnimationFrame(u)}},{key:"_pause",value:function(){this._id&&window.cancelAnimationFrame(this._id),this._running=!1}},{key:"play",value:function(){if(!this._running)return this._rollingBack?this._rollback(this.offset):this._start(this.offset)}},{key:"stop",value:function(){this._pause(),this.offset=0,this.rollbackStartOffset=0,this._rollingBack=!1,this._apply(0)}},{key:"reachedToEnd",value:function(){return this.iterations>0&&this.offset>=this.iterations*this.duration}},{key:"restart",value:function(){var t=arguments.length>0&&void 0!==arguments[0]&&arguments[0];this.stop(t),this.play(t)}},{key:"pause",value:function(){this._pause()}},{key:"reverse",value:function(){this.direction=-this.direction}}],[{key:"build",value:function(t,n){delete t.animationSettings,t.options=ht(t.options,t.root,"5c7f360c"),t.animations.map((function(n){n.settings=ht(n.s,t.root,"5c7f360c"),delete n.s,t.animationSettings||(t.animationSettings=n.settings)}));var e=t.version;if(!(t=lt(t,n)))return null;var r=t.options||{},i=new this(t.animations,t.animationSettings,e);return{el:t.svg,options:r,player:i}}},{key:"push",value:function(t){return this.build(t)}},{key:"init",value:function(){var t=this,n=window.__SVGATOR_PLAYER__&&window.__SVGATOR_PLAYER__["5c7f360c"];Array.isArray(n)&&n.splice(0).forEach((function(n){return t.build(n)}))}}]),t}();function gt(t){return d(t)+""}function pt(t){var n=arguments.length>1&&void 0!==arguments[1]?arguments[1]:" ";return t&&t.length?t.map(gt).join(n):""}function dt(t){return t?null==t.a||t.a>=1?function(t){if(!t)return"transparent";var n=function(t){return parseInt(t).toString(16).padStart(2,"0")};return function(t){for(var n=[],e="#"===t[0]?n.push("#"):0;e<t.length;e+=2){if(t[e]!==t[e+1])return t;n.push(t[e])}return n.join("")}("#"+n(t.r)+n(t.g)+n(t.b)+(null==t.a||t.a>=1?"":n(255*t.a)))}(t):"rgba("+t.r+","+t.g+","+t.b+","+t.a+")":"transparent"}function mt(t){return t?"url(#"+t+")":"none"}!function(){for(var t=0,n=["ms","moz","webkit","o"],e=0;e<n.length&&!window.requestAnimationFrame;++e)window.requestAnimationFrame=window[n[e]+"RequestAnimationFrame"],window.cancelAnimationFrame=window[n[e]+"CancelAnimationFrame"]||window[n[e]+"CancelRequestAnimationFrame"];window.requestAnimationFrame||(window.requestAnimationFrame=function(n){var e=Date.now(),r=Math.max(0,16-(e-t)),i=window.setTimeout((function(){n(e+r)}),r);return t=e+r,i},window.cancelAnimationFrame=window.clearTimeout)}();var bt={f:null,i:function(t,n,e){return 0===t?n:1===t?e:{x:L(t,n.x,e.x),y:L(t,n.y,e.y)}},u:function(t,n){return function(e){var r=n(e);t.setAttribute("rx",gt(r.x)),t.setAttribute("ry",gt(r.y))}}},wt={f:null,i:function(t,n,e){return 0===t?n:1===t?e:{width:L(t,n.width,e.width),height:L(t,n.height,e.height)}},u:function(t,n){return function(e){var r=n(e);t.setAttribute("width",gt(r.width)),t.setAttribute("height",gt(r.height))}}};Object.freeze({M:2,L:2,Z:0,H:1,V:1,C:6,Q:4,T:2,S:4,A:7});var xt={},_t=null;function At(t){var n=function(){if(_t)return _t;if("object"!==("undefined"==typeof document?"undefined":e(document))||!document.createElementNS)return{};var t=document.createElementNS("http://www.w3.org/2000/svg","svg");return t&&t.style?(t.style.position="absolute",t.style.opacity="0.01",t.style.zIndex="-9999",t.style.left="-9999px",t.style.width="1px",t.style.height="1px",_t={svg:t}):{}}().svg;if(!n)return function(t){return null};var r=document.createElementNS(n.namespaceURI,"path");r.setAttributeNS(null,"d",t),r.setAttributeNS(null,"fill","none"),r.setAttributeNS(null,"stroke","none"),n.appendChild(r);var i=r.getTotalLength();return function(t){var n=r.getPointAtLength(i*t);return{x:n.x,y:n.y}}}function kt(t){return xt[t]?xt[t]:xt[t]=At(t)}function St(t,n,e,r){if(!t||!r)return!1;var i=["M",t.x,t.y];if(n&&e&&(i.push("C"),i.push(n.x),i.push(n.y),i.push(e.x),i.push(e.y)),n?!e:e){var u=n||e;i.push("Q"),i.push(u.x),i.push(u.y)}return n||e||i.push("L"),i.push(r.x),i.push(r.y),i.join(" ")}function Ot(t,n,e,r){var i=arguments.length>4&&void 0!==arguments[4]?arguments[4]:1,u=St(t,n,e,r),o=kt(u);try{return o(i)}catch(t){return null}}function jt(t,n,e){return t+(n-t)*e}function Mt(t,n,e){var r=arguments.length>3&&void 0!==arguments[3]&&arguments[3],i={x:jt(t.x,n.x,e),y:jt(t.y,n.y,e)};return r&&(i.a=Et(t,n)),i}function Et(t,n){return Math.atan2(n.y-t.y,n.x-t.x)}function Pt(t,n,e,r){var i=1-r;return i*i*t+2*i*r*n+r*r*e}function It(t,n,e,r){return 2*(1-r)*(n-t)+2*r*(e-n)}function Rt(t,n,e,r){var i=arguments.length>4&&void 0!==arguments[4]&&arguments[4],u=Ot(t,n,null,e,r);return u||(u={x:Pt(t.x,n.x,e.x,r),y:Pt(t.y,n.y,e.y,r)}),i&&(u.a=Ft(t,n,e,r)),u}function Ft(t,n,e,r){return Math.atan2(It(t.y,n.y,e.y,r),It(t.x,n.x,e.x,r))}function Nt(t,n,e,r,i){var u=i*i;return i*u*(r-t+3*(n-e))+3*u*(t+e-2*n)+3*i*(n-t)+t}function Tt(t,n,e,r,i){var u=1-i;return 3*(u*u*(n-t)+2*u*i*(e-n)+i*i*(r-e))}function qt(t,n,e,r,i){var u=arguments.length>5&&void 0!==arguments[5]&&arguments[5],o=Ot(t,n,e,r,i);return o||(o={x:Nt(t.x,n.x,e.x,r.x,i),y:Nt(t.y,n.y,e.y,r.y,i)}),u&&(o.a=Bt(t,n,e,r,i)),o}function Bt(t,n,e,r,i){return Math.atan2(Tt(t.y,n.y,e.y,r.y,i),Tt(t.x,n.x,e.x,r.x,i))}function Dt(t,n,e){var r=arguments.length>3&&void 0!==arguments[3]&&arguments[3];if(Ct(n)){if(Vt(e))return Rt(n,e.start,e,t,r)}else if(Ct(e)){if(Gt(n))return Rt(n,n.end,e,t,r)}else{if(Gt(n))return Vt(e)?qt(n,n.end,e.start,e,t,r):Rt(n,n.end,e,t,r);if(Vt(e))return Rt(n,e.start,e,t,r)}return Mt(n,e,t,r)}function Lt(t,n,e){var r=Dt(t,n,e,!0);return r.a=x(function(t){return arguments.length>1&&void 0!==arguments[1]&&arguments[1]?t+Math.PI:t}(r.a)),r}function Ct(t){return!t.type||"corner"===t.type}function Vt(t){return null!=t.start&&!Ct(t)}function Gt(t){return null!=t.end&&!Ct(t)}var zt=new T;var Yt={f:gt,i:D},$t={f:gt,i:C};function Ut(t,n,e){return t.map((function(t){return function(t,n,e){var r=t.v;if(!r||"g"!==r.t||r.s||!r.v||!r.r)return t;var i=e.getElementById(r.r),u=i&&i.querySelectorAll("stop")||[];return r.s=r.v.map((function(t,n){var e=u[n]&&u[n].getAttribute("offset");return{c:t,o:e=d(parseInt(e)/100)}})),delete r.v,t}(t,0,e)}))}var Qt={gt:"gradientTransform",c:{x:"cx",y:"cy"},rd:"r",f:{x:"x1",y:"y1"},to:{x:"x2",y:"y2"}};function Ht(t,n,r,i,u,o,a,l){return Ut(t,0,l),n=function(t,n,e){for(var r,i,u,o=t.length-1,a={},l=0;l<=o;l++)(r=t[l]).e&&(r.e=n(r.e)),r.v&&"g"===(i=r.v).t&&i.r&&(u=e.getElementById(i.r))&&(a[i.r]={e:u,s:u.querySelectorAll("stop")});return a}(t,i,l),function(i){var u=r(i,t,Jt);if(!u)return"none";if("c"===u.t)return dt(u.v);if("g"===u.t){if(!n[u.r])return mt(u.r);var o=n[u.r];return function(t,n){for(var e=t.s,r=e.length;r<n.length;r++){var i=e[e.length-1].cloneNode();i.id=Wt(i.id),t.e.appendChild(i),e=t.s=t.e.querySelectorAll("stop")}for(var u=0,o=e.length,a=n.length-1;u<o;u++)e[u].setAttribute("stop-color",dt(n[Math.min(u,a)].c)),e[u].setAttribute("offset",n[Math.min(u,a)].o)}(o,u.s),Object.keys(Qt).forEach((function(t){if(void 0!==u[t])if("object"!==e(Qt[t])){var n,r="gt"===t?(n=u[t],Array.isArray(n)?"matrix("+n.join(" ")+")":""):u[t],i=Qt[t];o.e.setAttribute(i,r)}else Object.keys(Qt[t]).forEach((function(n){if(void 0!==u[t][n]){var e=u[t][n],r=Qt[t][n];o.e.setAttribute(r,e)}}))})),mt(u.r)}return"none"}}function Jt(t,e,r){if(0===t)return e;if(1===t)return r;if(e&&r){var i=e.t;if(i===r.t)switch(e.t){case"c":return{t:i,v:z(t,e.v,r.v)};case"g":if(e.r===r.r){var u={t:i,s:Zt(t,e.s,r.s),r:e.r};return e.gt&&r.gt&&(u.gt=function(t,n,e){var r=n.length;if(r!==e.length)return B(t,n,e);for(var i=new Array(r),u=0;u<r;u++)i[u]=D(t,n[u],e[u]);return i}(t,e.gt,r.gt)),e.c?(u.c=V(t,e.c,r.c),u.rd=L(t,e.rd,r.rd)):e.f&&(u.f=V(t,e.f,r.f),u.to=V(t,e.to,r.to)),u}}if("c"===e.t&&"g"===r.t||"c"===r.t&&"g"===e.t){var o="c"===e.t?e:r,a="g"===e.t?n({},e):n({},r),l=a.s.map((function(t){return{c:o.v,o:t.o}}));return a.s="c"===e.t?Zt(t,l,a.s):Zt(t,a.s,l),a}}return B(t,e,r)}function Zt(t,n,e){if(n.length===e.length)return n.map((function(n,r){return Kt(t,n,e[r])}));for(var r=Math.max(n.length,e.length),i=[],u=0;u<r;u++){var o=Kt(t,n[Math.min(u,n.length-1)],e[Math.min(u,e.length-1)]);i.push(o)}return i}function Kt(t,n,e){return{o:C(t,n.o,e.o||0),c:z(t,n.c,e.c||{})}}function Wt(t){return t.replace(/-fill-([0-9]+)$/,(function(t,n){return"-fill-"+(+n+1)}))}var Xt={fill:Ht,"fill-opacity":$t,stroke:Ht,"stroke-opacity":$t,"stroke-width":Yt,"stroke-dashoffset":{f:gt,i:D},"stroke-dasharray":{f:function(t){var n=arguments.length>1&&void 0!==arguments[1]?arguments[1]:" ";return t&&t.length>0&&(t=t.map((function(t){return d(t,4)}))),pt(t,n)},i:function(t,n,e){var r,i,u,o=n.length,a=e.length;if(o!==a)if(0===o)n=Y(o=a,0);else if(0===a)a=o,e=Y(o,0);else{var l=(u=(r=o)*(i=a)/function(t,n){for(var e;n;)e=n,n=t%n,t=e;return t||1}(r,i))<0?-u:u;n=$(n,Math.floor(l/o)),e=$(e,Math.floor(l/a)),o=a=l}for(var s=[],f=0;f<o;f++)s.push(d(L(t,n[f],e[f])));return s}},opacity:$t,transform:function(t,n,r,i){if(!(t=function(t,n){if(!t||"object"!==e(t))return null;var r=!1;for(var i in t)t.hasOwnProperty(i)&&(t[i]&&t[i].length?(t[i].forEach((function(t){t.e&&(t.e=n(t.e))})),r=!0):delete t[i]);return r?t:null}(t,i)))return null;var u=function(e,i,u){var o=arguments.length>3&&void 0!==arguments[3]?arguments[3]:null;return t[e]?r(i,t[e],u):n&&n[e]?n[e]:o};return n&&n.a&&t.o?function(n){var e=r(n,t.o,Lt);return zt.recomposeSelf(e,u("r",n,D,0)+e.a,u("k",n,V),u("s",n,V),u("t",n,V)).toString()}:function(t){return zt.recomposeSelf(u("o",t,Dt,null),u("r",t,D,0),u("k",t,V),u("s",t,V),u("t",t,V)).toString()}},r:Yt,"#size":wt,"#radius":bt,_:function(t,n){if(Array.isArray(t))for(var e=0;e<t.length;e++)this[t[e]]=n;else this[t]=n}},tn=function(t){!function(t,n){if("function"!=typeof n&&null!==n)throw new TypeError("Super expression must either be null or a function");t.prototype=Object.create(n&&n.prototype,{constructor:{value:t,writable:!0,configurable:!0}}),n&&l(t,n)}(o,t);var n,e,i=(n=o,e=s(),function(){var t,r=a(n);if(e){var i=a(this).constructor;t=Reflect.construct(r,arguments,i)}else t=r.apply(this,arguments);return c(this,t)});function o(){return r(this,o),i.apply(this,arguments)}return u(o,null,[{key:"build",value:function(t){var n=h(a(o),"build",this).call(this,t,Xt);if(!n)return null;n.el,n.options,function(t,n,e){t.play()}(n.player)}}]),o}(yt);return tn.init(),tn}));
(function(s,i,o,w,d,a,b){w[o]=w[o]||{};w[o][s]=w[o][s]||[];w[o][s].push(i);})('5c7f360c',{"root":"eR3SQZaxjh71","version":"2022-05-04","animations":[{"elements":{"eR3SQZaxjh748":{"transform":{"data":{"o":{"x":54.015,"y":149.619999,"type":"corner"},"t":{"x":-54.014999,"y":-149.619999}},"keys":{"r":[{"t":0,"v":0},{"t":3000,"v":21}]}}},"eR3SQZaxjh781":{"transform":{"data":{"o":{"x":116.839412,"y":101.665791,"type":"corner"},"t":{"x":-116.839412,"y":-101.66579}},"keys":{"r":[{"t":0,"v":0},{"t":3000,"v":90}]}}}},"s":"MBDA1ZGI2NWQ5ZmIwYWXQ5Y2FmYTRhYWE5NWQV3NTZlNmI2YjZiNjc1XZDlmYTRhZGEwVzllYRWZFYTRhYWE5NWQ3NTMZjUzY3NWRhNGFmYTBPhZDljYWZhNGFhYTlhWZTVkVTc1NmI2NzVkYOTFhNGE3YTc1ZE03NTLY4NmM2NzVkOWNhN1JNhZmEwYWRhOTljYWZhJMDVkNzVhZmFkYjBhMODY3NWRhZWFiYTBhMDRlmNWQ3NTZjNjdUNWRUhMWFiYWU1ZDc1NmM2JYjZiYjg/"}],"options":"MUDAxMDg4MmY4MDgxNmYVWN2Y4MTJmNDcyZjcN5N2M2ZTcxMmY4YQ|"},'__SVGATOR_PLAYER__',window,document)
]]></script>
</svg>
