<?xml version="1.0" encoding="UTF-8"?>
<svg id="Layer_2" data-name="Layer 2" xmlns="http://www.w3.org/2000/svg" viewBox="0 0 308.63 396.66">
  <defs>
    <style>
      .cls-1, .cls-2, .cls-3, .cls-4 {
        fill: none;
      }

      .cls-5 {
        fill: #010002;
      }

      .cls-6 {
        fill: #fff;
      }

      .cls-7 {
        fill: #a7a7a6;
      }

      .cls-8 {
        fill: #d3d3d3;
      }

      .cls-9 {
        fill: #34537d;
      }

      .cls-10 {
        fill: #3c5fa2;
      }

      .cls-11 {
        fill: #5d5d5d;
      }

      .cls-12 {
        fill: #777676;
      }

      .cls-13 {
        fill: #4e4d4d;
      }

      .cls-2 {
        stroke: #19916e;
      }

      .cls-2, .cls-3, .cls-4 {
        stroke-miterlimit: 10;
      }

      .cls-3 {
        stroke: #34537d;
      }

      .cls-4 {
        stroke: #bf3915;
      }
    </style>
  </defs>
  <g id="Capa_1" data-name="Capa 1">
    <g>
      <g>
        <path class="cls-2" d="M248.76,239.66s3.84,1.67,2.82-15.52"/>
        <path class="cls-2" d="M260.46,245.39s3.84,1.67,2.82-15.51"/>
        <path class="cls-4" d="M249.75,239.55s2.34,4.78,8.7-9.72"/>
        <path class="cls-2" d="M268.37,243.91s2.82,4.18,7.56-11.6"/>
        <path class="cls-4" d="M269.27,244.52s.49,5.84,10.81-2.37"/>
        <path class="cls-3" d="M268.26,245.39s3.84,1.67,2.82-15.51"/>
        <path class="cls-2" d="M119.95,333.26s-3.85-1.67-2.82,15.52"/>
        <path class="cls-2" d="M108.25,327.53s-3.84-1.67-2.82,15.52"/>
        <path class="cls-4" d="M118.96,333.37s-2.34-4.77-8.7,9.72"/>
        <path class="cls-2" d="M100.33,329.01s-2.82-4.18-7.56,11.61"/>
        <path class="cls-3" d="M100.45,327.53s-3.84-1.67-2.82,15.52"/>
        <path class="cls-2" d="M63.53,105.12s3.84,1.67,2.82-15.52"/>
        <path class="cls-2" d="M75.23,110.85s3.84,1.67,2.82-15.52"/>
        <path class="cls-4" d="M64.51,105.02s2.34,4.78,8.7-9.72"/>
        <path class="cls-2" d="M83.14,109.38s2.82,4.18,7.56-11.61"/>
        <path class="cls-4" d="M84.04,109.98s.49,5.84,10.82-2.37"/>
        <path class="cls-3" d="M83.03,110.85s3.84,1.67,2.82-15.52"/>
        <g>
          <g>
            <g>
              <path class="cls-7" d="M219.18,200.86l-7.31,6.14-12.24,10.28-9.92-10.43-13.55-14.23-.41-.43-11.62-12.2,7-5.87,4.62-3.88,10.35-8.68,.04-.04,.1,.14s.03,.02,.03,.02l2.85,3.35s.02,.02,.02,.04l30.06,35.8Z"/>
              <polygon class="cls-10" points="221.89 209.87 215.36 262.59 214.95 265.93 214.93 265.93 212.75 265.59 207.11 264.74 201.49 263.88 201.46 262.67 201.4 261.27 199.62 217.28 211.34 213.38 221.89 209.87"/>
              <polygon class="cls-13" points="216.46 264.01 216.46 270.72 208.29 269.13 199.13 267.36 199.13 260.65 202.93 261.39 208.84 262.52 216.46 264.01"/>
              <path class="cls-13" d="M219.25,278.18c-.58,4.58-3.41,8.56-7.54,10.65-.57,.27-1.17,.41-1.76,.41-1.42,0-2.8-.78-3.51-2.16-.95-1.93-.18-4.29,1.76-5.27,1.81-.89,3.02-2.61,3.3-4.62,.08-.65,.06-1.27-.06-1.87-.18-.93-.56-1.81-1.17-2.57-.57-.74-1.31-1.33-2.13-1.74-.58-.27-1.21-.46-1.87-.54-3.3-.43-6.32,1.91-6.73,5.21-.25,1.97,.47,3.94,1.97,5.26,1.6,1.43,1.73,3.9,.31,5.52-1.44,1.61-3.92,1.75-5.54,.31-3.41-3.04-5.09-7.57-4.52-12.09,.61-4.68,3.47-8.52,7.37-10.53,1.19-.65,2.5-1.09,3.86-1.35,1.37-.25,2.81-.29,4.27-.12,.53,.06,1.03,.16,1.54,.29,2.03,.49,3.88,1.42,5.48,2.75,.8,.65,1.54,1.39,2.18,2.23,1.79,2.32,2.79,5.07,2.88,7.95,.05,.76,0,1.52-.09,2.29Z"/>
              <g>
                <polygon class="cls-7" points="281.3 255.72 274.99 257.25 278.9 265.43 279.01 265.64 272.32 269.82 272.04 270 276.02 278.53 275.87 278.61 268.53 282.76 268.56 282.82 273.25 290.5 266.9 294.92 266.14 295.46 270.08 304.18 262.64 308.2 262.71 308.37 266.94 317.16 267.03 317.34 259.68 320.95 259.95 321.43 264.24 329.38 263.82 329.61 256.18 333.7 256.27 333.78 261.97 339.22 261.09 343.02 220.28 333.57 221.16 329.77 228.67 327.39 228.79 327.35 223.73 320.33 223.44 319.93 230.79 314.68 231.24 314.37 226.23 307.9 226.39 307.77 234.05 301.73 234.19 301.62 229.28 294.73 236.65 288.63 236.19 287.82 232.44 281.05 240.03 276.21 240.08 276.18 235.32 269.22 235.22 269.08 242.55 263.17 242.37 262.88 238.2 256.19 238.39 256.05 245.49 250.42 240.5 246.26 242.08 239.43 282.89 248.88 281.3 255.72"/>
                <polygon class="cls-12" points="279.01 265.64 272.32 269.82 242.37 262.88 238.2 256.19 238.39 256.05 278.9 265.43 279.01 265.64"/>
                <polygon class="cls-12" points="268.53 282.76 268.56 282.82 240.03 276.21 240.08 276.18 235.32 269.22 275.87 278.61 268.53 282.76"/>
                <polygon class="cls-12" points="273.25 290.5 266.9 294.92 236.19 287.82 232.44 281.05 273.25 290.5"/>
                <polygon class="cls-12" points="262.64 308.2 262.71 308.37 234.05 301.73 234.19 301.62 229.28 294.73 270.08 304.18 262.64 308.2"/>
                <polygon class="cls-12" points="259.68 320.95 259.95 321.43 230.79 314.68 231.24 314.37 226.23 307.9 226.39 307.77 266.94 317.16 267.03 317.34 259.68 320.95"/>
                <polygon class="cls-12" points="256.18 333.7 256.27 333.78 228.67 327.39 228.79 327.35 223.73 320.33 263.82 329.61 256.18 333.7"/>
              </g>
              <rect class="cls-13" x="231.64" y="333.97" width="5.78" height="57.52" transform="translate(-171.76 509.36) rotate(-76.96)"/>
              <path class="cls-10" d="M241.59,334.39l-5.94,25.64-28.49-6.6,.66-2.85c2.92-12.6,15.48-20.43,28.07-17.52l5.7,1.32Z"/>
              <g>
                <polygon class="cls-7" points="129.63 241.7 123.83 244.62 129.48 251.71 129.63 251.89 124.06 257.47 123.83 257.71 129.63 265.11 129.5 265.24 123.29 270.94 123.33 270.98 129.63 277.41 124.45 283.15 123.83 283.84 129.63 291.45 123.29 297.04 123.4 297.19 129.5 304.8 129.63 304.96 123.29 310.13 123.66 310.54 129.63 317.31 129.27 317.64 122.75 323.34 122.86 323.4 129.63 327.42 129.63 331.32 87.75 331.32 87.75 327.42 94.52 323.4 94.63 323.34 88.12 317.64 87.75 317.31 93.73 310.54 94.09 310.13 87.75 304.96 87.88 304.8 93.99 297.19 94.09 297.04 87.75 291.45 93.56 283.84 92.93 283.15 87.75 277.41 94.05 270.98 94.09 270.94 87.88 265.24 87.75 265.11 93.56 257.71 93.32 257.47 87.75 251.89 87.9 251.71 93.56 244.62 87.75 241.7 87.75 234.69 129.63 234.69 129.63 241.7"/>
                <polygon class="cls-12" points="129.63 251.89 124.06 257.47 93.32 257.47 87.75 251.89 87.9 251.71 129.48 251.71 129.63 251.89"/>
                <polygon class="cls-12" points="123.29 270.94 123.33 270.98 94.05 270.98 94.09 270.94 87.88 265.24 129.5 265.24 123.29 270.94"/>
                <polygon class="cls-12" points="129.63 277.41 124.45 283.15 92.93 283.15 87.75 277.41 129.63 277.41"/>
                <polygon class="cls-12" points="123.29 297.04 123.4 297.19 93.99 297.19 94.09 297.04 87.75 291.45 129.63 291.45 123.29 297.04"/>
                <polygon class="cls-12" points="123.29 310.13 123.66 310.54 93.73 310.54 94.09 310.13 87.75 304.96 87.88 304.8 129.5 304.8 129.63 304.96 123.29 310.13"/>
                <polygon class="cls-12" points="122.75 323.34 122.86 323.4 94.52 323.4 94.63 323.34 88.12 317.64 129.27 317.64 122.75 323.34"/>
              </g>
              <rect class="cls-13" x="120.01" y="151.7" width="37.48" height="12.18"/>
              <polygon class="cls-7" points="48.31 153.13 28.11 137.52 59.54 96.87 82.28 114.45 48.31 153.13"/>
              <path class="cls-10" d="M189.7,167.73v95.37H86.94v-95.37c0-3.39,2.75-6.36,6.82-7.89,1.95-.76,4.21-1.19,6.61-1.19h75.89c2.04,0,3.98,.31,5.71,.86,4.57,1.44,7.73,4.58,7.73,8.23Z"/>
              <path class="cls-9" d="M189.7,167.73c0-3.65-3.16-6.78-7.73-8.23v-.86h4.99c1.5,0,2.73,4.05,2.73,9.08Z"/>
              <path class="cls-9" d="M189.7,167.73v95.37h-7.73v-103.6c4.57,1.45,7.73,4.58,7.73,8.23Z"/>
              <path class="cls-9" d="M94.47,165.92v95.37h-7.53v-93.56c0-3.39,2.75-6.36,6.82-7.89,.43,1.61,.7,3.74,.7,6.08Z"/>
              <polygon class="cls-9" points="101.33 222.65 99.94 219.45 99.94 172.49 176.71 172.49 176.71 219.38 175.27 222.65 101.33 222.65"/>
              <rect class="cls-13" x="100.91" y="228.02" width="74.82" height="2.76"/>
              <rect class="cls-13" x="100.91" y="169" width="74.83" height="50.15"/>
              <rect class="cls-13" x="100.91" y="238.87" width="74.82" height="2.76"/>
              <rect class="cls-13" x="100.91" y="248.94" width="74.82" height="2.76"/>
              <rect class="cls-13" x="135.36" y="357.78" width="57.52" height="5.78"/>
              <rect class="cls-13" x="247.64" y="154.26" width="2.24" height="45.13" transform="translate(-55.8 157.01) rotate(-31.68)"/>
              <path class="cls-10" d="M236.94,152.37c2.88,0,5.22,2.34,5.22,5.22s-2.34,5.22-5.22,5.22-5.22-2.34-5.22-5.22,2.34-5.22,5.22-5.22Z"/>
              <polygon class="cls-13" points="48.31 153.13 28.11 137.52 25.75 146.63 48.31 153.13"/>
              <polygon class="cls-10" points="25.75 146.63 34.94 202.37 48.31 199.78 48.31 153.13 25.75 146.63"/>
              <polygon class="cls-13" points="54.02 231.59 44.27 246.33 39.47 241.63 49.22 226.9 54.02 231.59"/>
              <path class="cls-13" d="M62.05,254.65c-.41,.42-.92,.75-1.52,.96-4.39,1.5-9.2,.74-12.88-2.06-2.95-2.23-4.85-5.49-5.36-9.15-.5-3.67,.45-7.31,2.69-10.26,4.62-6.08,13.33-7.29,19.42-2.67,3.64,2.76,5.68,7.13,5.47,11.69-.1,2.16-1.93,3.83-4.09,3.73-2.16-.1-3.83-1.94-3.73-4.1,.09-1.98-.8-3.88-2.38-5.08-2.64-2.01-6.43-1.48-8.44,1.17-.98,1.28-1.39,2.87-1.17,4.46,.22,1.59,1.04,3.01,2.33,3.98,1.61,1.22,3.7,1.55,5.61,.89,2.04-.7,4.27,.39,4.98,2.43,.5,1.45,.09,2.99-.91,4.02Z"/>
              <polygon class="cls-7" points="189.7 261.26 86.94 261.26 86.94 265.99 130.79 265.99 128.04 274.95 148.6 274.95 145.85 265.99 189.7 265.99 189.7 261.26"/>
              <path class="cls-10" d="M192.88,354.86v2.93h-57.52v-2.93c0-12.93,10.47-23.4,23.4-23.4h10.72c12.93,0,23.4,10.47,23.4,23.4Z"/>
              <polygon class="cls-12" points="146.9 277.41 129.63 277.41 128.04 274.95 148.57 274.95 146.9 277.41"/>
              <path class="cls-9" d="M263.86,363.56l-.66,2.85-27.54-6.38,5.94-25.64,4.75,1.1c12.59,2.92,20.44,15.48,17.52,28.07Z"/>
            </g>
            <rect class="cls-10" x="163.25" y="24.64" width="106.16" height="106.16"/>
            <polygon class="cls-9" points="262.59 136.71 168.18 136.71 163.25 130.8 269.67 130.8 262.59 136.71"/>
            <g>
              <path class="cls-8" d="M249.53,76.96c0,19.3-15.65,34.95-34.94,34.95-10.39,0-19.74-4.53-26.1-11.75,6.15,5.51,14.28,8.85,23.19,8.85,19.3,0,34.95-15.64,34.95-34.95,0-8.88-3.34-17.04-8.85-23.19,7.22,6.36,11.75,15.7,11.75,26.09"/>
              <path class="cls-6" d="M246.63,74.06c0,19.3-15.64,34.94-34.94,34.94-8.91,0-17.03-3.34-23.19-8.84-5.51-6.16-8.86-14.31-8.86-23.19,0-19.3,15.65-34.95,34.95-34.95,8.91,0,17.04,3.34,23.19,8.85,5.51,6.15,8.85,14.31,8.85,23.19"/>
              <path class="cls-5" d="M234.66,76.44c0,11.08-8.98,20.07-20.06,20.07s-20.07-8.98-20.07-20.07,8.98-20.07,20.07-20.07,20.06,8.99,20.06,20.07"/>
              <path class="cls-6" d="M208.18,61.95c0,4.38-3.56,7.94-7.94,7.94s-7.94-3.56-7.94-7.94,3.55-7.94,7.94-7.94,7.94,3.55,7.94,7.94"/>
            </g>
          </g>
          <polygon class="cls-13" points="221.89 209.87 211.34 213.38 199.62 217.28 211.87 207 219.18 200.86 220.41 204.97 221.89 209.87"/>
          <polygon class="cls-9" points="221.89 209.87 215.36 262.59 207.29 262.59 207.3 262.4 211.34 213.38 221.89 209.87"/>
        </g>
        <g>
          <path class="cls-11" d="M79.06,306.87c-.32,.88-.66,1.75-.97,2.63-.38,1.11-1.02,1.92-2.24,2.06-.4,.05-.85-.04-1.24-.16-.6-.17-1.18-.41-1.77-.64-.21-.08-.32-.02-.47,.15-.88,.99-1.77,1.98-2.69,2.93-.21,.22-.25,.36-.12,.63,.3,.62,.61,1.23,.83,1.87,.44,1.26-.04,2.48-1.23,3.08-.88,.45-1.78,.88-2.7,1.26-1.34,.56-2.76-.03-3.36-1.36-.25-.55-.51-1.09-.75-1.63-.1-.22-.21-.3-.47-.26-1.3,.22-2.61,.32-3.93,.15-.34-.04-.47,.1-.56,.39-.22,.62-.45,1.24-.7,1.84-.52,1.27-1.92,1.84-3.35,1.31-.81-.3-1.62-.6-2.42-.91-1.37-.51-2.03-1.88-1.56-3.27,.21-.61,.44-1.21,.67-1.8,.09-.23,.03-.36-.16-.52-1.08-.93-2.15-1.88-3.3-2.89-.34,.16-.83,.38-1.32,.61-.76,.37-1.53,.65-2.4,.36-.69-.23-1.2-.66-1.51-1.31-.4-.82-.78-1.64-1.15-2.46-.68-1.5-.1-2.97,1.41-3.63,.51-.22,1.02-.43,1.51-.69,.12-.06,.23-.28,.23-.42-.03-1.36-.1-2.71-.12-4.07,0-.28-.13-.36-.33-.43-.55-.2-1.09-.41-1.64-.61-1.47-.53-2.14-1.98-1.59-3.44,.29-.77,.58-1.53,.85-2.3,.51-1.45,1.89-2.15,3.37-1.69,.6,.19,1.19,.4,1.77,.64,.26,.11,.38,0,.55-.18,.88-.97,1.76-1.94,2.67-2.89,.21-.21,.22-.35,.11-.59-.3-.64-.61-1.27-.85-1.92-.44-1.25,.12-2.56,1.32-3.13,.8-.38,1.61-.75,2.43-1.11,1.55-.69,2.97-.11,3.63,1.45,.21,.5,.43,.99,.68,1.47,.07,.12,.28,.23,.43,.22,1.36-.03,2.71-.07,4.07-.14,.14,0,.35-.14,.4-.28,.23-.53,.41-1.09,.61-1.64,.5-1.41,1.96-2.13,3.35-1.64,.9,.32,1.79,.64,2.67,1,1.29,.53,1.89,1.83,1.45,3.17-.2,.62-.43,1.25-.67,1.86-.09,.23-.02,.35,.17,.51,.98,.87,1.94,1.76,2.89,2.67,.22,.21,.38,.25,.64,.12,.5-.24,1.01-.45,1.51-.7,1.38-.67,2.87-.16,3.53,1.24,.39,.81,.76,1.61,1.13,2.43,.63,1.42,.11,2.81-1.29,3.48-.56,.27-1.12,.52-1.66,.79-.1,.05-.23,.21-.22,.3,.07,1.48,.17,2.97,.26,4.51,.58,.22,1.28,.48,1.98,.75,.77,.3,1.28,.86,1.53,1.64,.03,.08,.08,.15,.13,.23,0,.32,0,.65,0,.96Zm-19.85,4.7c5.29,.03,9.8-4.06,10.05-9.53,.27-5.73-4.09-10.39-9.85-10.51-5.43-.12-9.88,4.06-10.17,9.54-.3,5.61,4.19,10.44,9.96,10.5Z"/>
          <path class="cls-11" d="M92.05,94.82c.42-1.08,.85-2.17,1.27-3.26,.89-2.3,2.61-3.03,4.88-2.07,1.93,.81,1.9,.79,3.22-.78,.69-.82,1.47-1.58,2.26-2.31,.42-.39,.45-.72,.2-1.2-.34-.66-.66-1.33-.91-2.02-.57-1.61-.03-3.15,1.46-3.95,1.14-.61,2.32-1.15,3.53-1.6,1.65-.61,3.13-.01,3.99,1.55,.36,.65,.59,1.36,.99,1.98,.16,.27,.58,.52,.89,.52,1.51,0,3.01-.11,4.52-.13,.53,0,.77-.21,.93-.69,.26-.75,.53-1.52,.88-2.23,.74-1.49,2.32-2.14,3.89-1.61,1.08,.36,2.16,.75,3.2,1.19,1.97,.82,2.64,2.44,1.9,4.44-.87,2.34-.85,2.32,1.04,3.86,.64,.52,1.23,1.13,1.74,1.77,.48,.62,.93,.64,1.57,.28,.59-.33,1.22-.6,1.85-.82,1.64-.58,3.19,.02,3.99,1.56,.51,.99,.97,2,1.4,3.02,.84,1.98,.33,3.75-1.69,4.5-1.95,.72-2.62,1.73-2.09,3.74,.21,.77,.06,1.66,0,2.49-.05,.6,.19,.88,.75,1.05,.73,.23,1.46,.49,2.15,.84,1.52,.75,2.16,2.28,1.62,3.87-.39,1.14-.79,2.27-1.25,3.38-.72,1.76-2.39,2.46-4.17,1.84-.84-.29-1.78-.89-2.51-.71-.68,.18-1.11,1.24-1.69,1.86-.57,.61-1.17,1.19-1.8,1.72-.39,.34-.48,.64-.25,1.11,.36,.72,.72,1.44,.97,2.2,.55,1.63-.03,3.11-1.55,3.91-1.03,.54-2.1,1.04-3.18,1.48-1.97,.79-3.61,.09-4.49-1.83-1.02-2.22-1.01-2.19-3.39-1.98-.92,.08-1.85,.03-2.77-.01-.52-.03-.79,.15-.95,.65-.25,.75-.54,1.51-.87,2.24-.66,1.44-2.16,2.15-3.68,1.68-1.29-.4-2.57-.87-3.8-1.42-1.57-.7-2.21-2.29-1.67-3.93,.23-.7,.55-1.37,.73-2.09,.07-.28-.03-.73-.23-.92-1.12-1.1-2.27-2.17-3.45-3.19-.21-.18-.67-.23-.94-.14-.75,.25-1.45,.68-2.21,.93-1.69,.57-3.16-.01-3.97-1.59-.55-1.07-1.05-2.16-1.48-3.28-.71-1.84-.02-3.46,1.76-4.29,.75-.35,1.8-.55,2.15-1.14,.35-.59-.05-1.59-.08-2.42-.03-.8-.04-1.61,.02-2.4,.06-.69-.08-1.1-.83-1.26-.56-.12-1.09-.41-1.65-.6-1.15-.38-1.77-1.27-2.24-2.31,0-.49,0-.98,0-1.48Zm24.7,19.44c6.55,.23,12.47-5.37,12.71-12.01,.26-7.05-5.16-12.9-12.21-13.15-6.8-.25-12.68,5.23-12.95,12.03-.27,7.08,5.23,12.88,12.44,13.13Z"/>
          <path class="cls-6" d="M148.65,182.7c-.02,.18-.03,.37-.07,.55-.13,.53-.56,1.26-.36,1.54,.56,.78,1.35,1.41,2.12,2.03,.14,.12,.57-.03,.83-.15,1.8-.84,2.59-.54,3.38,1.31,.16,.37,.34,.73,.46,1.11,.33,1.05-.02,1.93-1.05,2.33-.9,.35-1.44,.79-1.1,1.82,.02,.06,.02,.13,.01,.19-.23,1.28,.14,2.18,1.53,2.46,.25,.05,.51,.27,.66,.49,1.02,1.45-.12,2.64-.57,3.87-.28,.75-1.23,.94-2.19,.67-.27-.07-.52-.26-.79-.26-.31,0-.69,.07-.92,.26-.44,.38-.72,.94-1.18,1.28-.64,.49-.57,.93-.26,1.57,.76,1.55,.42,2.33-1.17,3.06-.22,.1-.44,.22-.66,.33-1.57,.78-2.45,.49-3.15-1.13-.29-.67-.65-1.01-1.38-.78-.06,.02-.13,.03-.19,.03-1.47-.22-2.53,.2-2.88,1.78-.03,.14-.15,.27-.27,.37-.84,.74-2.09,.45-3.89-.5-.87-.46-1.13-1.37-.64-2.42,.4-.86,.33-1.45-.53-1.88-.08-.04-.16-.1-.22-.18-.74-1.11-1.61-1.3-2.85-.68-.9,.46-1.73-.02-2.21-.94-.11-.22-.22-.44-.32-.67-1.04-2.23-.89-2.62,1.31-3.83,.23-.13,.33-.54,.44-.85,.04-.12-.07-.3-.06-.45,.11-1.4-.04-2.56-1.76-2.95-.37-.08-.84-1.03-.76-1.49,.18-1,.55-2.03,1.08-2.9,.5-.82,1.46-.77,2.25-.38,.88,.43,1.3,.03,1.92-.56,1.02-.96,1.5-1.82,.72-3.2-.39-.68,0-1.47,.73-1.88,.67-.37,1.37-.72,2.09-.97,1-.34,1.84-.01,2.25,1.06,.41,1.1,1.04,1.37,2.08,1.09,.06-.01,.13-.02,.19,0,1.18,.23,1.87-.15,2.18-1.41,.22-.9,1.19-1.36,2.06-1.11,.77,.22,1.56,.45,2.23,.87,.46,.28,.74,.87,1.1,1.33-.06,.05-.12,.1-.18,.15Zm-13.97,11.25c-.12,3.77,2.93,6.99,6.75,7.14,3.87,.15,7.11-2.98,7.21-6.97,.09-3.73-2.98-6.92-6.75-7.02-3.9-.1-7.1,2.93-7.21,6.85Z"/>
        </g>
      </g>
      <rect class="cls-1" width="308.63" height="396.66"/>
    </g>
  </g>
</svg>