<?xml version="1.0" encoding="UTF-8"?>
<svg id="Layer_2" data-name="Layer 2" xmlns="http://www.w3.org/2000/svg" viewBox="0 0 191.82 430.41">
  <defs>
    <style>
      .cls-1 {
        fill: #010002;
      }

      .cls-1, .cls-2, .cls-3, .cls-4, .cls-5, .cls-6, .cls-7, .cls-8, .cls-9 {
        stroke: #222;
        stroke-miterlimit: 10;
      }

      .cls-2 {
        fill: #fff;
      }

      .cls-3 {
        fill: #d3d3d3;
      }

      .cls-4 {
        fill: #a7a7a6;
      }

      .cls-5 {
        fill: #e2d0b1;
      }

      .cls-6 {
        fill: #34537d;
      }

      .cls-7 {
        fill: #3c5fa2;
      }

      .cls-8 {
        fill: #4e4d4d;
      }

      .cls-9 {
        fill: #777676;
      }
    </style>
  </defs>
  <g id="Capa_1" data-name="Capa 1">
    <g>
      <polygon class="cls-6" points="147.61 191.85 37.38 191.85 31.62 184.96 155.88 184.96 147.61 191.85"/>
      <g>
        <g>
          <path class="cls-4" d="M188.03,244.78l-8.54,7.17-14.3,12-11.59-12.19-15.83-16.62-.48-.5-13.57-14.25,8.17-6.86,5.39-4.53,12.09-10.13,.04-.05,.11,.16s.03,.02,.03,.02l3.32,3.92s.02,.02,.02,.04l35.1,41.81Z"/>
          <polygon class="cls-7" points="191.2 255.3 183.57 316.86 183.09 320.76 183.07 320.76 180.52 320.38 173.94 319.37 167.38 318.36 167.34 316.96 167.27 315.31 165.2 263.95 178.89 259.4 191.2 255.3"/>
          <polygon class="cls-8" points="184.86 318.52 184.86 326.35 175.32 324.5 164.62 322.43 164.62 314.6 169.06 315.47 175.96 316.79 184.86 318.52"/>
          <path class="cls-8" d="M188.11,335.07c-.68,5.35-3.98,10-8.81,12.43-.66,.33-1.37,.48-2.05,.48-1.66,0-3.28-.91-4.09-2.53-1.12-2.25-.21-5.01,2.04-6.15,2.12-1.04,3.53-3.05,3.85-5.4,.09-.75,.06-1.48-.07-2.18-.2-1.09-.66-2.12-1.37-3-.66-.87-1.53-1.56-2.48-2.03-.68-.32-1.41-.55-2.18-.64-3.85-.5-7.38,2.23-7.86,6.08-.3,2.3,.54,4.61,2.3,6.15,1.87,1.66,2.03,4.55,.36,6.45-1.68,1.89-4.58,2.05-6.47,.36-3.98-3.55-5.94-8.83-5.28-14.12,.71-5.46,4.05-9.94,8.61-12.29,1.39-.75,2.91-1.27,4.51-1.57,1.6-.29,3.28-.34,4.98-.14,.62,.07,1.21,.18,1.8,.34,2.37,.57,4.53,1.66,6.4,3.21,.93,.76,1.79,1.62,2.55,2.6,2.09,2.71,3.25,5.92,3.37,9.29,.04,.9,0,1.78-.12,2.67Z"/>
          <g>
            <polygon class="cls-4" points="152.53 292.48 145.75 295.88 152.36 304.15 152.53 304.36 146.03 310.88 145.75 311.16 152.53 319.81 152.38 319.95 145.13 326.61 145.18 326.65 152.53 334.17 146.49 340.87 145.75 341.67 152.53 350.56 145.13 357.09 145.26 357.26 152.38 366.15 152.53 366.34 145.13 372.38 145.56 372.85 152.53 380.76 152.1 381.14 144.5 387.8 144.62 387.87 152.53 392.56 152.53 397.11 103.63 397.11 103.63 392.56 111.54 387.87 111.66 387.8 104.05 381.14 103.63 380.76 110.61 372.85 111.04 372.38 103.63 366.34 103.78 366.15 110.91 357.26 111.04 357.09 103.63 350.56 110.4 341.67 109.68 340.87 103.63 334.17 110.99 326.65 111.04 326.61 103.78 319.95 103.63 319.81 110.4 311.16 110.13 310.88 103.63 304.36 103.8 304.15 110.4 295.88 103.63 292.48 103.63 284.28 152.53 284.28 152.53 292.48"/>
            <polygon class="cls-9" points="152.53 304.36 146.03 310.88 110.13 310.88 103.63 304.36 103.8 304.15 152.36 304.15 152.53 304.36"/>
            <polygon class="cls-9" points="145.13 326.61 145.18 326.65 110.99 326.65 111.04 326.61 103.78 319.95 152.38 319.95 145.13 326.61"/>
            <polygon class="cls-9" points="152.53 334.17 146.49 340.87 109.68 340.87 103.63 334.17 152.53 334.17"/>
            <polygon class="cls-9" points="145.13 357.09 145.26 357.26 110.91 357.26 111.04 357.09 103.63 350.56 152.53 350.56 145.13 357.09"/>
            <polygon class="cls-9" points="145.13 372.38 145.56 372.85 110.61 372.85 111.04 372.38 103.63 366.34 103.78 366.15 152.38 366.15 152.53 366.34 145.13 372.38"/>
            <polygon class="cls-9" points="144.5 387.8 144.62 387.87 111.54 387.87 111.66 387.8 104.05 381.14 152.1 381.14 144.5 387.8"/>
          </g>
          <rect class="cls-8" x="93.93" y="423.16" width="67.17" height="6.75"/>
          <path class="cls-7" d="M128.08,392.43v30.74h-34.15v-3.41c0-15.09,12.22-27.32,27.32-27.32h6.83Z"/>
          <g>
            <polygon class="cls-4" points="83.47 292.48 76.69 295.88 83.3 304.15 83.47 304.36 76.98 310.88 76.69 311.16 83.47 319.81 83.32 319.95 76.07 326.61 76.12 326.65 83.47 334.17 77.42 340.87 76.69 341.67 83.47 350.56 76.07 357.09 76.19 357.26 83.32 366.15 83.47 366.34 76.07 372.38 76.49 372.85 83.47 380.76 83.05 381.14 75.44 387.8 75.56 387.87 83.47 392.56 83.47 397.11 34.57 397.11 34.57 392.56 42.48 387.87 42.6 387.8 35 381.14 34.57 380.76 41.55 372.85 41.97 372.38 34.57 366.34 34.72 366.15 41.85 357.26 41.97 357.09 34.57 350.56 41.35 341.67 40.62 340.87 34.57 334.17 41.93 326.65 41.97 326.61 34.72 319.95 34.57 319.81 41.35 311.16 41.07 310.88 34.57 304.36 34.74 304.15 41.35 295.88 34.57 292.48 34.57 284.28 83.47 284.28 83.47 292.48"/>
            <polygon class="cls-9" points="83.47 304.36 76.98 310.88 41.07 310.88 34.57 304.36 34.74 304.15 83.3 304.15 83.47 304.36"/>
            <polygon class="cls-9" points="76.07 326.61 76.12 326.65 41.93 326.65 41.97 326.61 34.72 319.95 83.32 319.95 76.07 326.61"/>
            <polygon class="cls-9" points="83.47 334.17 77.42 340.87 40.62 340.87 34.57 334.17 83.47 334.17"/>
            <polygon class="cls-9" points="76.07 357.09 76.19 357.26 41.85 357.26 41.97 357.09 34.57 350.56 83.47 350.56 76.07 357.09"/>
            <polygon class="cls-9" points="76.07 372.38 76.49 372.85 41.55 372.85 41.97 372.38 34.57 366.34 34.72 366.15 83.32 366.15 83.47 366.34 76.07 372.38"/>
            <polygon class="cls-9" points="75.44 387.8 75.56 387.87 42.48 387.87 42.6 387.8 35 381.14 83.05 381.14 75.44 387.8"/>
          </g>
          <rect class="cls-8" x="72.23" y="187.38" width="43.76" height="14.23"/>
          <polygon class="cls-4" points="26.96 265.82 3.38 247.59 40.09 200.12 66.63 220.64 26.96 265.82"/>
          <path class="cls-7" d="M153.61,206.1v111.35H33.62v-111.35c0-3.97,3.21-7.42,7.97-9.22,2.28-.89,4.92-1.39,7.72-1.39h88.61c2.39,0,4.64,.36,6.67,1,5.33,1.68,9.02,5.35,9.02,9.61Z"/>
          <path class="cls-6" d="M153.61,206.1c0-4.26-3.69-7.92-9.02-9.61v-1h5.83c1.75,0,3.19,4.73,3.19,10.61Z"/>
          <path class="cls-6" d="M153.61,206.1v111.35h-9.02v-120.96c5.33,1.68,9.02,5.35,9.02,9.61Z"/>
          <path class="cls-6" d="M42.41,203.98v111.36h-8.79v-109.24c0-3.97,3.21-7.42,7.97-9.22,.51,1.89,.82,4.37,.82,7.1Z"/>
          <path class="cls-5" d="M94.11,84.77c18.76,0,33.97,15.21,33.97,33.97s-15.21,33.97-33.97,33.97-33.97-15.21-33.97-33.97,15.21-33.97,33.97-33.97Z"/>
          <path class="cls-8" d="M94.12,76.28c-23.43,0-42.46,19.04-42.46,42.46s19.03,42.46,42.46,42.46,42.46-19.06,42.46-42.46-19.05-42.46-42.46-42.46Zm0,82.3c-21.97,0-39.86-17.87-39.86-39.84s17.89-39.86,39.86-39.86,39.85,17.9,39.85,39.86-17.87,39.84-39.85,39.84Z"/>
          <path class="cls-8" d="M98.68,108.93c0-2.85,1.35-5.37,3.45-6.98-2.43-1.17-5.14-1.84-8.02-1.84-10.28,0-18.62,8.34-18.62,18.62s8.34,18.61,18.62,18.61,18.62-8.34,18.62-18.61c0-.88-.08-1.73-.2-2.56-1.42,1-3.16,1.58-5.03,1.58-4.87,0-8.82-3.95-8.82-8.82Z"/>
          <polygon class="cls-6" points="50.43 270.22 48.8 266.5 48.8 211.66 138.44 211.66 138.44 266.4 136.76 270.22 50.43 270.22"/>
          <rect class="cls-8" x="49.93" y="276.5" width="87.37" height="3.22"/>
          <rect class="cls-8" x="49.93" y="207.58" width="87.37" height="58.57"/>
          <rect class="cls-8" x="49.93" y="289.17" width="87.37" height="3.22"/>
          <rect class="cls-8" x="49.93" y="300.93" width="87.37" height="3.22"/>
          <rect class="cls-8" x="24.87" y="423.16" width="67.16" height="6.75"/>
          <rect class="cls-8" x="92.8" y="6.6" width="2.61" height="52.69"/>
          <path class="cls-7" d="M94.11,.5c3.37,0,6.1,2.73,6.1,6.1s-2.73,6.09-6.1,6.09-6.1-2.73-6.1-6.09,2.73-6.1,6.1-6.1Z"/>
          <polygon class="cls-8" points="26.96 265.82 3.38 247.59 .62 258.21 26.96 265.82"/>
          <polygon class="cls-7" points=".62 258.21 11.36 323.3 26.96 320.28 26.96 265.82 .62 258.21"/>
          <polygon class="cls-8" points="29.17 323.86 8.92 327.79 8.92 319.95 29.17 316.04 29.17 323.86"/>
          <path class="cls-8" d="M16.53,349.42c-.69,0-1.38-.15-2.04-.49-4.84-2.42-8.14-7.06-8.82-12.42-.55-4.29,.61-8.54,3.25-11.95,2.65-3.42,6.46-5.61,10.75-6.15,8.84-1.12,16.96,5.16,18.1,14,.67,5.29-1.3,10.56-5.28,14.11-1.88,1.68-4.77,1.53-6.45-.36-1.68-1.89-1.52-4.78,.37-6.46,1.73-1.54,2.59-3.84,2.29-6.14-.49-3.84-4.02-6.57-7.87-6.08-1.87,.24-3.52,1.18-4.67,2.67-1.15,1.49-1.65,3.33-1.42,5.2,.3,2.34,1.73,4.35,3.84,5.41,2.26,1.13,3.17,3.88,2.04,6.14-.8,1.6-2.42,2.53-4.09,2.53Z"/>
          <polygon class="cls-4" points="153.6 315.31 33.63 315.31 33.63 320.83 84.83 320.83 81.61 331.29 105.62 331.29 102.4 320.83 153.6 320.83 153.6 315.31"/>
          <path class="cls-7" d="M92.03,419.74v3.41H24.87v-3.41c0-15.1,12.23-27.32,27.32-27.32h12.52c15.1,0,27.32,12.22,27.32,27.32Z"/>
          <polygon class="cls-9" points="103.63 334.17 83.47 334.17 81.61 331.29 105.59 331.29 103.63 334.17"/>
          <path class="cls-6" d="M161.1,419.75v3.41h-33.02v-30.74h5.7c15.09,0,27.32,12.23,27.32,27.32Z"/>
          <path class="cls-6" d="M92.03,419.75v3.41H59.02v-30.74h5.69c15.09,0,27.32,12.23,27.32,27.32Z"/>
        </g>
        <rect class="cls-7" x="31.62" y="60.99" width="123.96" height="123.96"/>
        <g>
          <path class="cls-3" d="M136.04,120.03c0,22.54-18.27,40.8-40.8,40.8-12.14,0-23.05-5.28-30.47-13.72,7.19,6.44,16.68,10.34,27.08,10.34,22.54,0,40.8-18.27,40.8-40.8,0-10.37-3.9-19.9-10.33-27.09,8.44,7.42,13.73,18.34,13.73,30.47"/>
          <path class="cls-2" d="M132.65,116.64c0,22.54-18.26,40.8-40.8,40.8-10.4,0-19.89-3.9-27.08-10.33-6.44-7.19-10.33-16.71-10.33-27.08,0-22.53,18.27-40.8,40.81-40.8,10.4,0,19.9,3.9,27.07,10.34,6.45,7.18,10.34,16.71,10.34,27.08"/>
          <path class="cls-1" d="M118.68,119.41c0,12.94-10.5,23.44-23.43,23.44s-23.43-10.5-23.43-23.44,10.49-23.43,23.43-23.43,23.43,10.49,23.43,23.43"/>
          <path class="cls-2" d="M87.75,102.5c0,5.12-4.15,9.27-9.27,9.27s-9.27-4.16-9.27-9.27,4.14-9.28,9.27-9.28,9.27,4.15,9.27,9.28"/>
        </g>
      </g>
      <polygon class="cls-8" points="191.2 255.3 178.89 259.4 165.2 263.95 179.49 251.95 188.03 244.78 189.47 249.59 191.2 255.3"/>
      <polygon class="cls-6" points="191.2 255.3 183.57 316.86 174.15 316.86 174.17 316.64 178.89 259.4 191.2 255.3"/>
    </g>
  </g>
</svg>