<?xml version="1.0" encoding="UTF-8"?>
<svg id="Layer_2" data-name="Layer 2" xmlns="http://www.w3.org/2000/svg" viewBox="0 0 308.63 396.66">
  <defs>
    <style>
      .cls-1 {
        fill: none;
      }

      .cls-2 {
        fill: #010002;
      }

      .cls-2, .cls-3, .cls-4, .cls-5, .cls-6, .cls-7, .cls-8, .cls-9, .cls-10 {
        stroke: #222;
        stroke-miterlimit: 10;
      }

      .cls-3 {
        fill: #fff;
      }

      .cls-4 {
        fill: #d3d3d3;
      }

      .cls-5 {
        fill: #a7a7a6;
      }

      .cls-6 {
        fill: #e2d0b1;
      }

      .cls-7 {
        fill: #34537d;
      }

      .cls-8 {
        fill: #3c5fa2;
      }

      .cls-9 {
        fill: #4e4d4d;
      }

      .cls-10 {
        fill: #777676;
      }
    </style>
  </defs>
  <g id="Capa_1" data-name="Capa 1">
    <g>
      <g>
        <polygon class="cls-7" points="201.55 177 100.84 177 95.58 170.7 209.11 170.7 201.55 177"/>
        <g>
          <g>
            <path class="cls-5" d="M238.48,225.36l-7.8,6.55-13.06,10.96-10.59-11.13-14.46-15.18-.44-.46-12.4-13.02,7.47-6.26,4.93-4.14,11.05-9.26,.04-.04,.1,.15s.03,.02,.03,.02l3.04,3.58s.02,.02,.02,.04l32.07,38.2Z"/>
            <polygon class="cls-8" points="241.38 234.97 234.41 291.21 233.97 294.77 233.95 294.77 231.62 294.42 225.61 293.5 219.61 292.58 219.57 291.3 219.51 289.8 217.62 242.87 230.13 238.71 241.38 234.97"/>
            <polygon class="cls-9" points="235.58 292.73 235.58 299.88 226.86 298.19 217.09 296.3 217.09 289.14 221.15 289.94 227.45 291.14 235.58 292.73"/>
            <path class="cls-9" d="M238.55,307.84c-.62,4.89-3.63,9.14-8.05,11.36-.6,.3-1.25,.44-1.87,.44-1.52,0-2.99-.83-3.74-2.31-1.02-2.06-.19-4.58,1.87-5.62,1.94-.95,3.22-2.78,3.52-4.93,.08-.69,.06-1.35-.07-2-.19-1-.6-1.93-1.25-2.74-.61-.8-1.39-1.43-2.27-1.85-.62-.29-1.28-.5-1.99-.58-3.52-.45-6.74,2.04-7.18,5.55-.27,2.1,.49,4.21,2.1,5.62,1.7,1.52,1.85,4.16,.33,5.89-1.54,1.72-4.18,1.87-5.91,.33-3.64-3.25-5.43-8.07-4.83-12.9,.65-4.99,3.7-9.08,7.87-11.23,1.27-.68,2.66-1.16,4.12-1.44,1.46-.26,2.99-.31,4.55-.13,.56,.06,1.1,.17,1.64,.31,2.16,.52,4.14,1.52,5.85,2.93,.85,.69,1.64,1.48,2.33,2.37,1.91,2.48,2.97,5.41,3.08,8.48,.04,.82,0,1.63-.11,2.44Z"/>
            <g>
              <polygon class="cls-5" points="206.05 268.93 199.85 272.05 205.89 279.6 206.05 279.79 200.11 285.75 199.85 286 206.05 293.91 205.91 294.03 199.28 300.11 199.33 300.15 206.05 307.02 200.53 313.14 199.85 313.88 206.05 322 199.28 327.97 199.4 328.12 205.91 336.24 206.05 336.41 199.28 341.93 199.67 342.36 206.05 349.59 205.66 349.94 198.71 356.02 198.82 356.08 206.05 360.37 206.05 364.53 161.37 364.53 161.37 360.37 168.59 356.08 168.71 356.02 161.76 349.94 161.37 349.59 167.75 342.36 168.14 341.93 161.37 336.41 161.51 336.24 168.02 328.12 168.14 327.97 161.37 322 167.56 313.88 166.9 313.14 161.37 307.02 168.09 300.15 168.14 300.11 161.51 294.03 161.37 293.91 167.56 286 167.31 285.75 161.37 279.79 161.53 279.6 167.56 272.05 161.37 268.93 161.37 261.45 206.05 261.45 206.05 268.93"/>
              <polygon class="cls-10" points="206.05 279.79 200.11 285.75 167.31 285.75 161.37 279.79 161.53 279.6 205.89 279.6 206.05 279.79"/>
              <polygon class="cls-10" points="199.28 300.11 199.33 300.15 168.09 300.15 168.14 300.11 161.51 294.03 205.91 294.03 199.28 300.11"/>
              <polygon class="cls-10" points="206.05 307.02 200.53 313.14 166.9 313.14 161.37 307.02 206.05 307.02"/>
              <polygon class="cls-10" points="199.28 327.97 199.4 328.12 168.02 328.12 168.14 327.97 161.37 322 206.05 322 199.28 327.97"/>
              <polygon class="cls-10" points="199.28 341.93 199.67 342.36 167.75 342.36 168.14 341.93 161.37 336.41 161.51 336.24 205.91 336.24 206.05 336.41 199.28 341.93"/>
              <polygon class="cls-10" points="198.71 356.02 198.82 356.08 168.59 356.08 168.71 356.02 161.76 349.94 205.66 349.94 198.71 356.02"/>
            </g>
            <rect class="cls-9" x="152.51" y="388.33" width="61.37" height="6.17"/>
            <path class="cls-8" d="M183.71,360.25v28.08h-31.2v-3.12c0-13.79,11.17-24.96,24.96-24.96h6.24Z"/>
            <g>
              <polygon class="cls-5" points="142.95 268.93 136.76 272.05 142.79 279.6 142.95 279.79 137.02 285.75 136.76 286 142.95 293.91 142.81 294.03 136.19 300.11 136.23 300.15 142.95 307.02 137.43 313.14 136.76 313.88 142.95 322 136.19 327.97 136.3 328.12 142.81 336.24 142.95 336.41 136.19 341.93 136.58 342.36 142.95 349.59 142.56 349.94 135.61 356.02 135.73 356.08 142.95 360.37 142.95 364.53 98.27 364.53 98.27 360.37 105.5 356.08 105.61 356.02 98.66 349.94 98.27 349.59 104.65 342.36 105.04 341.93 98.27 336.41 98.41 336.24 104.92 328.12 105.04 327.97 98.27 322 104.47 313.88 103.8 313.14 98.27 307.02 104.99 300.15 105.04 300.11 98.41 294.03 98.27 293.91 104.47 286 104.21 285.75 98.27 279.79 98.43 279.6 104.47 272.05 98.27 268.93 98.27 261.45 142.95 261.45 142.95 268.93"/>
              <polygon class="cls-10" points="142.95 279.79 137.02 285.75 104.21 285.75 98.27 279.79 98.43 279.6 142.79 279.6 142.95 279.79"/>
              <polygon class="cls-10" points="136.19 300.11 136.23 300.15 104.99 300.15 105.04 300.11 98.41 294.03 142.81 294.03 136.19 300.11"/>
              <polygon class="cls-10" points="142.95 307.02 137.43 313.14 103.8 313.14 98.27 307.02 142.95 307.02"/>
              <polygon class="cls-10" points="136.19 327.97 136.3 328.12 104.92 328.12 105.04 327.97 98.27 322 142.95 322 136.19 327.97"/>
              <polygon class="cls-10" points="136.19 341.93 136.58 342.36 104.65 342.36 105.04 341.93 98.27 336.41 98.41 336.24 142.81 336.24 142.95 336.41 136.19 341.93"/>
              <polygon class="cls-10" points="135.61 356.02 135.73 356.08 105.5 356.08 105.61 356.02 98.66 349.94 142.56 349.94 135.61 356.02"/>
            </g>
            <rect class="cls-9" x="132.68" y="172.91" width="39.98" height="13"/>
            <polygon class="cls-5" points="91.32 244.57 69.78 227.92 103.31 184.55 127.56 203.3 91.32 244.57"/>
            <path class="cls-8" d="M207.03,190.02v101.74H97.41v-101.74c0-3.62,2.94-6.78,7.28-8.42,2.08-.82,4.5-1.27,7.06-1.27h80.96c2.19,0,4.24,.33,6.09,.92,4.87,1.54,8.24,4.88,8.24,8.78Z"/>
            <path class="cls-7" d="M207.03,190.02c0-3.89-3.37-7.24-8.24-8.78v-.92h5.32c1.6,0,2.91,4.32,2.91,9.69Z"/>
            <path class="cls-7" d="M207.03,190.02v101.74h-8.24v-110.51c4.87,1.54,8.24,4.88,8.24,8.78Z"/>
            <path class="cls-7" d="M105.44,188.08v101.74h-8.03v-99.81c0-3.62,2.94-6.78,7.28-8.42,.46,1.72,.75,3.99,.75,6.49Z"/>
            <path class="cls-6" d="M152.67,79.16c17.14,0,31.04,13.89,31.04,31.03s-13.9,31.03-31.04,31.03-31.03-13.9-31.03-31.03,13.9-31.03,31.03-31.03Z"/>
            <path class="cls-9" d="M152.68,71.41c-21.4,0-38.79,17.39-38.79,38.79s17.39,38.8,38.79,38.8,38.8-17.41,38.8-38.8-17.41-38.79-38.8-38.79Zm0,75.19c-20.07,0-36.42-16.32-36.42-36.4s16.35-36.42,36.42-36.42,36.41,16.35,36.41,36.42-16.33,36.4-36.41,36.4Z"/>
            <path class="cls-9" d="M156.85,101.24c0-2.6,1.24-4.91,3.15-6.38-2.22-1.07-4.7-1.68-7.33-1.68-9.39,0-17.01,7.62-17.01,17.01s7.62,17.01,17.01,17.01,17.01-7.62,17.01-17.01c0-.8-.07-1.58-.18-2.34-1.3,.91-2.89,1.44-4.59,1.44-4.45,0-8.06-3.61-8.06-8.06Z"/>
            <polygon class="cls-7" points="112.76 248.6 111.28 245.2 111.28 195.09 193.17 195.09 193.17 245.11 191.64 248.6 112.76 248.6"/>
            <rect class="cls-9" x="112.31" y="254.33" width="79.83" height="2.95"/>
            <rect class="cls-9" x="112.31" y="191.36" width="79.83" height="53.51"/>
            <rect class="cls-9" x="112.31" y="265.91" width="79.83" height="2.94"/>
            <rect class="cls-9" x="112.31" y="276.65" width="79.83" height="2.94"/>
            <rect class="cls-9" x="89.41" y="388.33" width="61.36" height="6.17"/>
            <rect class="cls-9" x="151.48" y="7.74" width="2.39" height="48.14"/>
            <path class="cls-8" d="M152.67,2.17c3.08,0,5.57,2.49,5.57,5.57s-2.49,5.57-5.57,5.57-5.57-2.49-5.57-5.57,2.49-5.57,5.57-5.57Z"/>
            <polygon class="cls-9" points="91.32 244.57 69.78 227.92 67.26 237.63 91.32 244.57"/>
            <polygon class="cls-8" points="67.26 237.63 77.07 297.09 91.32 294.34 91.32 244.57 67.26 237.63"/>
            <polygon class="cls-9" points="93.34 297.61 74.84 301.19 74.84 294.03 93.34 290.46 93.34 297.61"/>
            <path class="cls-9" d="M81.79,320.96c-.63,0-1.26-.14-1.87-.45-4.42-2.21-7.43-6.45-8.06-11.34-.5-3.92,.56-7.8,2.97-10.92,2.42-3.13,5.91-5.12,9.82-5.62,8.08-1.03,15.5,4.71,16.54,12.79,.62,4.83-1.19,9.65-4.83,12.89-1.72,1.54-4.36,1.39-5.9-.33-1.54-1.72-1.39-4.37,.34-5.9,1.58-1.41,2.36-3.51,2.1-5.61-.44-3.51-3.67-6-7.19-5.56-1.71,.22-3.22,1.08-4.27,2.44-1.05,1.36-1.51,3.04-1.29,4.75,.27,2.14,1.58,3.98,3.51,4.94,2.06,1.03,2.9,3.54,1.87,5.61-.73,1.46-2.21,2.31-3.74,2.31Z"/>
            <polygon class="cls-5" points="207.03 289.79 97.41 289.79 97.41 294.84 144.19 294.84 141.25 304.4 163.18 304.4 160.25 294.84 207.03 294.84 207.03 289.79"/>
            <path class="cls-8" d="M150.78,385.21v3.12h-61.37v-3.12c0-13.8,11.17-24.96,24.96-24.96h11.44c13.79,0,24.96,11.17,24.96,24.96Z"/>
            <polygon class="cls-10" points="161.37 307.02 142.95 307.02 141.25 304.4 163.16 304.4 161.37 307.02"/>
            <path class="cls-7" d="M213.88,385.22v3.12h-30.16v-28.08h5.21c13.79,0,24.96,11.17,24.96,24.96Z"/>
            <path class="cls-7" d="M150.78,385.22v3.12h-30.16v-28.08h5.2c13.79,0,24.96,11.17,24.96,24.96Z"/>
          </g>
          <rect class="cls-8" x="95.58" y="57.44" width="113.25" height="113.26"/>
          <g>
            <path class="cls-4" d="M190.98,111.37c0,20.59-16.69,37.28-37.28,37.28-11.09,0-21.06-4.83-27.84-12.54,6.57,5.88,15.24,9.44,24.74,9.44,20.6,0,37.28-16.69,37.28-37.28,0-9.48-3.56-18.18-9.44-24.75,7.71,6.78,12.54,16.75,12.54,27.84"/>
            <path class="cls-3" d="M187.88,108.28c0,20.59-16.68,37.28-37.28,37.28-9.51,0-18.17-3.56-24.75-9.44-5.88-6.56-9.44-15.26-9.44-24.74,0-20.59,16.69-37.28,37.28-37.28,9.5,0,18.18,3.56,24.73,9.45,5.89,6.56,9.45,15.27,9.45,24.74"/>
            <path class="cls-2" d="M175.12,110.81c0,11.83-9.59,21.42-21.41,21.42s-21.41-9.59-21.41-21.42,9.58-21.4,21.41-21.4,21.41,9.58,21.41,21.4"/>
            <path class="cls-3" d="M146.86,95.36c0,4.68-3.79,8.47-8.47,8.47s-8.47-3.8-8.47-8.47,3.79-8.47,8.47-8.47,8.47,3.79,8.47,8.47"/>
          </g>
        </g>
        <polygon class="cls-9" points="241.38 234.97 230.13 238.71 217.62 242.87 230.68 231.91 238.48 225.36 239.79 229.75 241.38 234.97"/>
        <polygon class="cls-7" points="241.38 234.97 234.41 291.21 225.8 291.21 225.82 291.01 230.13 238.71 241.38 234.97"/>
      </g>
      <rect class="cls-1" width="308.63" height="396.66"/>
    </g>
  </g>
</svg>