<svg id="efXPptLgUGC1" xmlns="http://www.w3.org/2000/svg" xmlns:xlink="http://www.w3.org/1999/xlink" viewBox="0 0 267.61 513.45" shape-rendering="geometricPrecision" text-rendering="geometricPrecision">
<style><![CDATA[
#efXPptLgUGC2_to {animation: efXPptLgUGC2_to__to 2200ms linear infinite alternate forwards}@keyframes efXPptLgUGC2_to__to { 0% {transform: translate(233.869995px,296.25499px)} 59.090909% {transform: translate(193.869995px,298.25499px)} 68.181818% {transform: translate(196.869995px,298.25499px)} 77.272727% {transform: translate(191.869995px,298.25499px)} 86.363636% {transform: translate(196.869995px,298.25499px)} 95.454545% {transform: translate(197.869995px,298.25499px)} 100% {transform: translate(197.869995px,298.25499px)}} #efXPptLgUGC9_to {animation: efXPptLgUGC9_to__to 2200ms linear infinite alternate forwards}@keyframes efXPptLgUGC9_to__to { 0% {transform: translate(166.729996px,301.21759px)} 59.090909% {transform: translate(166.729996px,383.21759px)} 72.727273% {transform: translate(168.037535px,383.21759px)} 100% {transform: translate(168.037535px,383.21759px)}} #efXPptLgUGC14_to {animation: efXPptLgUGC14_to__to 2200ms linear infinite alternate forwards}@keyframes efXPptLgUGC14_to__to { 0% {transform: translate(93.395016px,440.712585px)} 59.090909% {transform: translate(97.395016px,383.712585px)} 100% {transform: translate(97.395016px,383.712585px)}} #efXPptLgUGC20_to {animation: efXPptLgUGC20_to__to 2200ms linear infinite alternate forwards}@keyframes efXPptLgUGC20_to__to { 0% {transform: translate(33.005001px,296.265007px)} 59.090909% {transform: translate(67.344999px,302.305006px)} 100% {transform: translate(67.344999px,302.305006px)}} #efXPptLgUGC20_tr {animation: efXPptLgUGC20_tr__tr 2200ms linear infinite alternate forwards}@keyframes efXPptLgUGC20_tr__tr { 0% {transform: rotate(4.359041deg)} 59.090909% {transform: rotate(4.359041deg)} 68.181818% {transform: rotate(6.639711deg)} 77.272727% {transform: rotate(1.490786deg)} 86.363636% {transform: rotate(4.52121deg)} 95.454545% {transform: rotate(0.9336deg)} 100% {transform: rotate(0.9336deg)}} #efXPptLgUGC33_to {animation: efXPptLgUGC33_to__to 2200ms linear infinite alternate forwards}@keyframes efXPptLgUGC33_to__to { 0% {transform: translate(132.800019px,95.675003px)} 37.727273% {transform: translate(133.15px,111.316284px)} 59.090909% {transform: translate(132.800019px,119.675003px)} 100% {transform: translate(132.800019px,119.675003px)}} #efXPptLgUGC34_to {animation: efXPptLgUGC34_to__to 2200ms linear infinite alternate forwards}@keyframes efXPptLgUGC34_to__to { 0% {transform: translate(133.16002px,99.61px)} 59.090909% {transform: translate(133.16002px,99.61px)} 90.909091% {transform: translate(133.16002px,27.61px)} 100% {transform: translate(133.16002px,27.61px)}}
]]></style>
<g id="efXPptLgUGC2_to" transform="translate(233.869995,296.25499)"><g transform="translate(-233.869995,-296.25499)"><path d="M264.44,267.64l-8.54,7.17-14.3,12-11.59-12.19L214.18,258l-.48-.5-13.57-14.25l8.17-6.86l5.39-4.53l12.09-10.13.04-.05.11.16.03.02l3.32,3.92c0,0,.02.02.02.04l35.1,41.81.04.01Z" fill="#a7a7a6"/><path d="M267.61,278.16l-7.63,61.55-.48,3.9h-.02l-2.55-.38-6.58-1.01-6.56-1-.04-1.41-.07-1.64-2.08-51.36l13.69-4.56l12.32-4.09Z" fill="#3c5fa2"/><path d="M261.27,341.38v7.83l-9.55-1.85-10.69-2.07v-7.84l4.44.87l6.89,1.32l8.91,1.74Z" fill="#4e4d4d"/><path d="M264.52,357.92c-.68355,5.351893-3.986671,10.012255-8.81,12.43-.66.33-1.37.48-2.05.48-1.66,0-3.28-.91-4.09-2.53-1.118261-2.262791-.208938-5.004134,2.04-6.15c2.12-1.04,3.53-3.05,3.85-5.4.087507-.726005.063903-1.461104-.07-2.18-.2-1.09-.66-2.12-1.37-3-.659445-.858487-1.508139-1.553184-2.48-2.03-.687222-.329957-1.423475-.546105-2.18-.64-3.85-.5-7.38,2.23-7.86,6.08-.3,2.3.54,4.61,2.3,6.15c1.87,1.66,2.03,4.55.36,6.45-1.68,1.89-4.58,2.05-6.47.36-3.973877-3.552704-5.947848-8.83158-5.28-14.12.71-5.46,4.05-9.94,8.61-12.29c1.39-.75,2.91-1.27,4.51-1.57c1.6-.29,3.28-.34,4.98-.14.62.07,1.21.18,1.8.34c2.37.57,4.53,1.66,6.4,3.21.93.76,1.79,1.62,2.55,2.6c2.09,2.71,3.25,5.92,3.37,9.29.04.9,0,1.78-.12,2.67l.01-.01Z" fill="#4e4d4d"/><path d="M267.61,278.16l-12.32,4.09-13.69,4.56l14.3-12l8.54-7.17l1.44,4.8l1.73,5.72Z" fill="#4e4d4d"/><path d="M267.61,278.16l-7.63,61.55h-9.43l.03-.21l4.71-57.25l12.32-4.09Z" fill="#34537d"/></g></g><g id="efXPptLgUGC9_to" transform="translate(166.729996,301.21759)"><g transform="translate(-166.729996,-383.21759)"><path d="M191.58,318.52l-6.78,3.4l6.61,8.27.17.21-6.5,6.52-.28.28l6.78,8.65-.15.14-7.26,6.66.06.04l7.35,7.52-6.05,6.7-.73.8l6.78,8.89-7.41,6.54.13.16l7.13,8.89.15.19-7.41,6.04.43.47l6.98,7.91-.43.38-7.6,6.66.12.07l7.91,4.69v4.55h-48.9v-4.55l7.9-4.69.13-.07-7.61-6.66-.42-.38l6.98-7.91.42-.47-7.4-6.04.15-.19l7.13-8.89.12-.16-7.4-6.54l6.77-8.89-.72-.8-6.05-6.7l7.35-7.52.05-.04-7.25-6.66-.15-.14l6.77-8.65-.27-.28-6.5-6.52.17-.21l6.6-8.27-6.77-3.4v-8.2h48.9v8.2Z" fill="#a7a7a6"/><path d="M191.58,330.4l-6.5,6.52h-35.9l-6.5-6.52.17-.21h48.56l.17.21Zm-7.41,22.25l.06.04h-34.2l.05-.04-7.25-6.66h48.6l-7.26,6.66Zm7.41,7.56l-6.05,6.7h-36.8l-6.05-6.7h48.9Zm-7.41,22.93l.13.16h-34.34l.12-.16-7.4-6.54h48.9l-7.41,6.54Zm0,15.28l.43.47h-34.94l.42-.47-7.4-6.04.15-.19h48.6l.15.19-7.41,6.04Zm-.62,15.42l.12.07h-33.09l.13-.07-7.61-6.66h48.05l-7.6,6.66Z" fill="#777676"/><path d="M127.06,503.28v3.41h-67.16v-3.41c0-15.1,12.23-27.32,27.32-27.32h12.52c15.1,0,27.32,12.22,27.32,27.32Z" transform="translate(73.25-57.49)" fill="#3c5fa2"/><rect width="67.329967" height="6.915157" rx="0" ry="0" transform="matrix(.994951 0 0 1 133.150008 449.2)" fill="#4e4d4d" stroke-width="0"/></g></g><g id="efXPptLgUGC14_to" transform="translate(93.395016,440.712585)"><g transform="translate(-93.395016,-440.712585)"><path d="M118.5,376.01l-6.78,3.41l6.61,8.27.17.21-6.5,6.52-.28.28l6.78,8.65-.15.13-7.25,6.67.05.04l7.35,7.52-6.05,6.7-.73.8l6.78,8.89-7.4,6.53.12.17l7.13,8.89.15.19-7.4,6.04.42.47l6.98,7.91-.43.38-7.6,6.66.12.07l7.91,4.69v4.55h-48.91v-4.55l7.91-4.69.13-.07-7.61-6.66-.43-.38l6.99-7.91.42-.47-7.41-6.04.16-.19l7.12-8.89.13-.17-7.41-6.53l6.78-8.89-.72-.8-6.06-6.7l7.36-7.52.05-.04-7.25-6.67-.16-.13l6.78-8.65-.27-.28-6.51-6.52.18-.21l6.6-8.27-6.78-3.41v-8.19h48.91v8.19Z" fill="#a7a7a6"/><path d="M118.5,387.9l-6.5,6.52h-35.9l-6.51-6.52.18-.21h48.56l.17.21Zm-7.4,22.25l.05.04h-34.2l.05-.04-7.25-6.67h48.6l-7.25,6.67Zm7.4,7.56l-6.05,6.7h-36.8l-6.06-6.7h48.91Zm-7.4,22.92l.12.17h-34.35l.13-.17-7.41-6.53h48.91l-7.4,6.53Zm0,15.29l.42.47h-34.94l.42-.47-7.41-6.04.16-.19h48.6l.15.19-7.4,6.04Zm-.63,15.42l.12.07h-33.09l.13-.07-7.61-6.66h48.05l-7.6,6.66Z" fill="#777676"/><path d="M127.06,503.28v3.41h-67.16v-3.41c0-15.1,12.23-27.32,27.32-27.32h12.52c15.1,0,27.32,12.22,27.32,27.32Z" fill="#3c5fa2"/><rect width="67.329967" height="6.915157" rx="0" ry="0" transform="translate(59.730033 506.69)" fill="#4e4d4d" stroke-width="0"/></g></g><path d="M111.27,213.42h43.76v14.23h-43.76v-14.23Z" fill="#4e4d4d"/><g id="efXPptLgUGC20_to" transform="translate(33.005001,296.265007)"><g id="efXPptLgUGC20_tr" transform="rotate(4.359041)"><g transform="translate(-33.005001,-296.265007)"><path d="M26.34,287.31L2.76,269.08l36.71-47.47l26.54,20.52-39.67,45.18Z" fill="#a7a7a6"/><path d="M26.34,287.31L2.76,269.08L0,279.71l26.34,7.6Z" fill="#4e4d4d"/><path d="M0,279.71l10.74,65.08l15.6-3.02v-54.46L0,279.71Z" fill="#3c5fa2"/><path d="M28.55,345.36L8.29,349.28v-7.84l20.26-3.91v7.83Z" fill="#4e4d4d"/><path d="M15.9,370.91c-.69,0-1.38-.15-2.04-.49-4.831657-2.404933-8.141496-7.065726-8.82-12.42-.55-4.29.61-8.54,3.25-11.95c2.65-3.42,6.46-5.61,10.75-6.15c8.84-1.12,16.96,5.16,18.1,14c.672387,5.28601-1.302629,10.563942-5.28,14.11-1.88,1.68-4.77,1.53-6.45-.36-.808189-.905436-1.223301-2.095007-1.153902-3.306686s.617619-2.346075,1.523902-3.153314c1.731872-1.541942,2.589171-3.840551,2.29-6.14-.49-3.84-4.02-6.57-7.87-6.08-1.851704.227818-3.534313,1.189824-4.67,2.67-1.292527,1.665332-1.770128,3.822519-1.301345,5.877804s1.834538,3.792028,3.721345,4.732196c1.892599.953753,2.883653,3.081419,2.395988,5.143884s-2.32666,3.520973-4.445988,3.526116v-.01Z" fill="#4e4d4d"/></g></g></g><path d="M192.66,232.14v111.35h-119.99v-111.35c0-3.97,3.21-7.42,7.97-9.22c2.28-.89,4.92-1.39,7.72-1.39h88.61c2.39,0,4.64.36,6.67,1c5.33,1.68,9.02,5.35,9.02,9.61Z" fill="#3c5fa2"/><path d="M192.66,232.14v111.35h-9.02v-120.96c5.33,1.68,9.02,5.35,9.02,9.61Zm-111.2-2.12v111.36h-8.79v-109.24c0-3.97,3.21-7.42,7.97-9.22.51,1.89.82,4.37.82,7.1Z" fill="#34537d"/><path d="M89.47,296.26l-1.62-3.72v-54.84h89.64v54.74l-1.68,3.82h-86.34Z" fill="#34537d"/><path d="M88.98,302.54h87.37v3.22h-87.37v-3.22Zm0-68.92h87.37v58.57h-87.37v-58.57Zm0,81.59h87.37v3.22h-87.37v-3.22Zm0,11.76h87.37v3.22h-87.37v-3.22ZM134.46,58.79" fill="#4e4d4d"/><path d="M192.65,341.35h-119.98v5.52h51.21l-3.22,10.46h24l-3.21-10.46h51.2v-5.52Z" fill="#a7a7a6"/><path d="M142.68,360.21h-20.16l-1.86-2.88h23.98l-1.96,2.88Z" fill="#777676"/><circle r="6.56" transform="translate(100.35 245.18)" fill="#323932"/><g id="efXPptLgUGC33_to" transform="translate(132.800019,95.675003)"><g transform="translate(-132.799995,-95.675003)"><g id="efXPptLgUGC34_to" transform="translate(133.16002,99.61)"><g transform="translate(-133.160011,-36.898014)"><rect width="2.955" height="55.511007" rx="0" ry="0" transform="matrix(-1 0 0 1.219597 134.4575 6.094975)" fill="#4e4d4d" stroke-width="0"/><path d="M133.16,0c3.37,0,6.1,2.73,6.1,6.1s-2.73,6.09-6.1,6.09-6.1-2.73-6.1-6.09s2.73-6.1,6.1-6.1Z" transform="matrix(-1 0 0 1 266.320014 0)" fill="#3c5fa2"/></g></g><path d="M186.66,191.35h-110.23l-5.76-6.89h124.26l-8.27,6.89Z" fill="#34537d"/><path d="M133.16,84.27c18.76,0,33.97,15.21,33.97,33.97s-15.21,33.97-33.97,33.97-33.97-15.21-33.97-33.97s15.21-33.97,33.97-33.97Z" fill="#e2d0b1"/><path d="M133.16,75.78c-23.43,0-42.46,19.04-42.46,42.46s19.03,42.46,42.46,42.46s42.46-19.06,42.46-42.46-19.05-42.46-42.46-42.46Zm0,82.3c-21.97,0-39.86-17.87-39.86-39.84s17.89-39.86,39.86-39.86s39.85,17.9,39.85,39.86-17.87,39.84-39.85,39.84Z" fill="#4e4d4d"/><path d="M137.73,108.43c0-2.85,1.35-5.37,3.45-6.98-2.500321-1.210423-5.2421-1.839459-8.02-1.84-10.28,0-18.62,8.34-18.62,18.62s8.34,18.61,18.62,18.61s18.62-8.34,18.62-18.61c0-.88-.08-1.73-.2-2.56-1.473176,1.033663-3.230368,1.585624-5.03,1.58-4.87,0-8.82-3.95-8.82-8.82Z" fill="#4e4d4d"/><path d="M70.67,60.49h123.96v123.96h-123.96v-123.96Z" fill="#3c5fa2"/><path d="M175.09,119.53c0,22.54-18.27,40.8-40.8,40.8-12.14,0-23.05-5.28-30.47-13.72c7.438843,6.674504,17.085749,10.357998,27.08,10.34c22.54,0,40.8-18.27,40.8-40.8c0-10.37-3.9-19.9-10.33-27.09c8.44,7.42,13.73,18.34,13.73,30.47" fill="#d3d3d3"/><path d="M171.7,116.14c0,22.54-18.26,40.8-40.8,40.8-10.4,0-19.89-3.9-27.08-10.33-6.666763-7.442836-10.346007-17.087939-10.33-27.08c0-22.53,18.27-40.8,40.81-40.8c10.4,0,19.9,3.9,27.07,10.34c6.45,7.18,10.34,16.71,10.34,27.08" fill="#fff"/><path d="M157.73,118.91c0,12.94-10.5,23.44-23.43,23.44s-23.43-10.5-23.43-23.44s10.49-23.43,23.43-23.43s23.43,10.49,23.43,23.43" fill="#010002"/><path d="M126.8,102c0,5.11968-4.15032,9.27-9.27,9.27s-9.27-4.15032-9.27-9.27c0-5.11,4.14-9.28,9.27-9.28s9.27,4.15,9.27,9.28" fill="#fff"/></g></g></svg>
