<?xml version="1.0" encoding="UTF-8"?>
<svg id="Layer_2" data-name="Layer 2" xmlns="http://www.w3.org/2000/svg" viewBox="0 0 332.44 439.22">
  <defs>
    <style>
      .cls-1 {
        fill: none;
      }

      .cls-2 {
        fill: #010002;
      }

      .cls-3, .cls-4 {
        fill: #fff;
      }

      .cls-5 {
        fill: #a6bcc3;
      }

      .cls-6 {
        fill: #a7a7a6;
      }

      .cls-7 {
        fill: #d3d3d3;
      }

      .cls-8 {
        fill: #34537d;
      }

      .cls-9 {
        fill: #3c5fa2;
      }

      .cls-10 {
        fill: #777676;
      }

      .cls-11 {
        fill: #4e4d4d;
      }

      .cls-4 {
        stroke: #010002;
        stroke-miterlimit: 10;
      }
    </style>
  </defs>
  <g id="Capa_1" data-name="Capa 1">
    <g>
      <ellipse class="cls-5" cx="102.59" cy="428.72" rx="102.59" ry="10.5"/>
      <path class="cls-1" d="M105.91,12.14c-.4,0-.79-.05-1.17-.13,.07,.08,.69,.13,1.11,.13,.02,0,.05,0,.06,0Z"/>
      <polygon class="cls-1" points="122.77 326.47 122.82 325.92 116.54 319.65 114.21 319.65 117.41 331.01 117.38 331.01 115.43 333.29 122.77 326.47"/>
      <path class="cls-1" d="M89.27,340.1l-.73,.52,6.76,8.57-7.39,6.59,.13,.23,7.12,9.09,.15,.17-7.39,6.01,.43,.63,6.96,8.3-.42,.79-6.82,4.99,7.56,5.27v5.64h-1.16c.13,.11,.25,.23,.37,.34,.08,.07,.16,.15,.25,.23,.64,.58,1.25,1.18,1.84,1.81,.24,.26,.47,.51,.7,.77,.46,.54,.9,1.09,1.33,1.66,.21,.27,.42,.54,.62,.82,1.21,1.72,2.22,3.57,3.03,5.52,.1,.23,.17,.47,.26,.7,.3,.76,.56,1.54,.78,2.32,.09,.31,.17,.61,.24,.91,.19,.76,.34,1.54,.47,2.31,.05,.31,.11,.6,.15,.9,.13,1.05,.22,2.11,.22,3.18v.04h0c0-8.88,4.74-17.19,11.36-22.22v-4.91l6.64-5.25-6.85-5.02-.43-.79,6.97-8.3,.43-.58-7.39-6.14,.15-.1,7.12-9.09,.12-.23-7.39-6.59,6.77-8.57-.73-.52-6.04-6.82h-20.12l-6.04,6.82Z"/>
      <path class="cls-1" d="M105.95,12.14c.38,0,.83-.05,.97-.11-.32,.05-.63,.11-.97,.11Z"/>
      <path class="cls-1" d="M49.75,334.44c.04-.65,.06-1.16,.05-1.16,0,0,0-.06,0-.1,0,.42-.01,.84-.05,1.26Z"/>
      <polygon class="cls-1" points="296.89 139.23 296.89 139.24 297.52 138.48 296.89 139.23"/>
      <polygon class="cls-1" points="87.97 326.47 95.31 333.29 93.46 331.01 96.66 319.65 94.2 319.65 87.92 325.92 87.97 326.47"/>
      <polygon class="cls-8" points="127.44 185.59 127.44 190.13 159.33 190.13 167.58 183.31 167.27 183.31 43.56 183.31 49.31 190.13 84.26 190.13 84.26 185.59 127.44 185.59"/>
      <polygon class="cls-6" points="115.43 380.22 115.85 381 163.81 381 164.24 380.22 157.27 371.91 122.39 371.91 115.43 380.22"/>
      <polygon class="cls-6" points="115.58 365.1 164.09 365.1 156.97 356.01 122.7 356.01 115.58 365.1"/>
      <polygon class="cls-6" points="115.43 333.29 164.24 333.29 156.9 326.47 122.77 326.47 115.43 333.29"/>
      <polygon class="cls-6" points="122.19 340.62 115.43 349.19 164.24 349.19 157.47 340.62 158.2 340.1 121.47 340.1 122.19 340.62"/>
      <path class="cls-6" d="M156.35,385.55h-33.03l.13,1.01-.73-.53-6.64,5.25v4.91c.39-.3,.76-.62,1.16-.89,4.36-2.95,10.13-5.2,15.79-5.2h12.5c5.66,0,10.96,2.25,15.31,5.2,.73,.49,1.41,1.05,2.09,1.62h.87v-5.64l-6.83-5.25-.74,.54,.12-1.01Z"/>
      <polygon class="cls-10" points="122.82 325.92 122.77 326.47 156.9 326.47 156.85 325.92 163.13 319.65 116.54 319.65 122.82 325.92"/>
      <polygon class="cls-10" points="121.47 340.1 158.2 340.1 164.24 333.29 115.43 333.29 121.47 340.1"/>
      <polygon class="cls-10" points="122.82 355.78 122.7 356.01 156.97 356.01 156.85 355.78 164.24 349.19 115.43 349.19 122.82 355.78"/>
      <polygon class="cls-10" points="115.43 365.19 122.82 371.33 122.39 371.91 157.27 371.91 156.85 371.28 164.24 365.27 164.09 365.1 115.58 365.1 115.43 365.19"/>
      <polygon class="cls-10" points="122.71 386.03 123.45 386.56 123.32 385.55 156.35 385.55 156.22 386.56 156.96 386.02 163.81 381 115.85 381 122.71 386.03"/>
      <polygon class="cls-11" points="139.84 421.9 138.8 421.9 104.71 421.9 70.63 421.9 36.54 421.9 36.54 428.72 104.71 428.72 172.88 428.72 172.88 421.9 172.78 421.9 139.84 421.9"/>
      <path class="cls-9" d="M104.71,418.41v3.49h34.08v-31.81h-5.78c-5.66,0-11.43,2.25-15.79,5.2-.4,.27-.77,.6-1.16,.89-6.63,5.03-11.36,13.34-11.36,22.23Z"/>
      <path class="cls-6" d="M49.81,332.99c0,.06,0,.12,0,.19,0,.04,0,.1,0,.1h45.5l-7.34-6.82H53.85l-4.31,3.93c.06,.28,.13,.56,.16,.85,.08,.58,.1,1.17,.12,1.75Z"/>
      <path class="cls-6" d="M64.09,390.09h12.5c.76,0,1.52,.05,2.28,.12,5.82,.52,11.24,2.97,15.6,6.69h1.16v-5.64l-7.56-5.27-.77,.56,.13-1.02H54.39l.13,1.01-.79-.58-8.1,5.29v5.64h.95c.67-.57,1.36-1.12,2.09-1.62,4.36-2.95,9.76-5.2,15.42-5.2Z"/>
      <polygon class="cls-6" points="95.31 380.22 88.35 371.91 53.47 371.91 46.5 380.22 46.93 381 94.89 381 95.31 380.22"/>
      <polygon class="cls-6" points="88.55 340.62 89.27 340.1 52.54 340.1 53.27 340.62 46.5 349.19 95.31 349.19 88.55 340.62"/>
      <polygon class="cls-6" points="88.05 356.01 53.77 356.01 46.65 365.1 95.16 365.1 88.05 356.01"/>
      <polygon class="cls-10" points="87.92 325.92 94.2 319.65 47.61 319.65 53.89 325.92 53.85 326.47 87.97 326.47 87.92 325.92"/>
      <path class="cls-10" d="M95.31,333.29H49.81s-.01,.51-.05,1.16c0,.12-.01,.24-.03,.35-.05,.66-.13,1.39-.22,1.89l3.03,3.42h36.73l6.04-6.82Z"/>
      <polygon class="cls-10" points="87.92 355.78 95.31 349.19 46.5 349.19 53.89 355.78 53.77 356.01 88.05 356.01 87.92 355.78"/>
      <polygon class="cls-10" points="87.92 371.28 95.31 365.27 95.16 365.1 46.65 365.1 46.5 365.19 53.89 371.33 53.47 371.91 88.35 371.91 87.92 371.28"/>
      <polygon class="cls-10" points="54.39 385.55 87.42 385.55 87.3 386.56 88.07 386 94.89 381 46.93 381 53.73 385.98 54.52 386.56 54.39 385.55"/>
      <polygon class="cls-11" points="127.44 190.96 127.44 190.13 127.44 185.59 84.26 185.59 84.26 190.13 84.26 190.96 84.26 194.67 127.44 194.67 127.44 190.96"/>
      <polygon class="cls-6" points="15.41 246.58 38.96 264.78 45.63 257.2 45.63 207.54 15.41 246.58"/>
      <path class="cls-9" d="M54.72,315.11h102.25v-59.08h-2.27v-56.81h2.27v-3.63c-2.27-.63-4.93-.91-7.32-.91H61.22c-2.78,0-5.21,.46-7.47,1.33,.5,1.88,.97,4.35,.97,7.06v112.04Zm6.82-49.99v-59.08h88.62v59.32l-1.66,4.3H62.33l-.79-4.21v-.34Zm0,11.36h88.62v2.27H61.54v-2.27Zm0,11.36h88.62v4.54H61.54v-4.54Zm0,11.36h88.62v4.54H61.54v-4.54Z"/>
      <rect class="cls-9" x="45.56" y="314.21" width="0" height="2.11"/>
      <path class="cls-8" d="M164.76,199.22c-.57-2.79-1.54-4.54-2.62-4.54h-5.16v4.54h7.78Z"/>
      <polygon class="cls-8" points="156.98 256.03 156.98 315.11 166.06 315.11 166.06 256.03 165.31 256.03 156.98 256.03"/>
      <path class="cls-8" d="M54.72,315.11v-112.04c0-2.71-.47-5.18-.97-7.06,0,0,0-.02,0-.03-4.75,1.79-8.11,5.25-8.11,9.2v109.93h9.09Z"/>
      <polygon class="cls-8" points="148.49 269.66 150.16 265.36 150.16 265.12 61.54 265.12 61.54 265.45 62.33 269.66 148.49 269.66"/>
      <rect class="cls-11" x="61.54" y="276.48" width="88.62" height="2.27"/>
      <polygon class="cls-11" points="150.16 210.72 150.16 210.58 150.16 206.04 61.54 206.04 61.54 210.58 61.54 210.72 61.54 265.12 150.16 265.12 150.16 210.72"/>
      <rect class="cls-11" x="61.54" y="287.84" width="88.62" height="4.54"/>
      <polygon class="cls-11" points="115.6 303.75 150.16 303.75 150.16 299.2 61.54 299.2 61.54 303.75 95.14 303.75 115.6 303.75"/>
      <path class="cls-11" d="M105.95,12.89h-.1c-.43,0-1.04-.43-1.11-.51,0,0-.02-.37-.02-.38V58.34h2.27V12.02s-.04,.38-.07,.38c-.14,.06-.59,.48-.97,.48Z"/>
      <path class="cls-9" d="M104.62,12s.06,0,.09,0c0,0,.02,.37,.02,.38,.38,.08,.77,.51,1.17,.51h.04c.33,0,.65-.43,.97-.48,.02,0,.05-.19,.07-.2,.08-.01,.17-.1,.24-.12,2.73-.6,4.78-3.07,4.78-5.98,0-3.36-2.72-6.11-6.08-6.11s-6.09,2.71-6.09,6.07c0,2.91,2.05,5.33,4.78,5.92Z"/>
      <polygon class="cls-11" points="15.37 246.58 12.62 257.19 38.91 264.78 15.37 246.58"/>
      <polygon class="cls-9" points="38.82 315.32 38.82 264.78 12.58 257.19 22.66 318.44 30.25 316.98 38.82 315.32"/>
      <path class="cls-11" d="M49.8,333.18c0-.06,0-.13,0-.19-.01-.58-.04-1.17-.12-1.75-.04-.29-.1-.57-.16-.85-.03-.14-.05-.28-.08-.43-1.02-4.86-3.82-8.82-8.36-10.99v-4.08l-2.19,.43-8.64,1.66-7.6,1.46h-.07s-1.95,.37-1.95,.37v4.6c-2.27,3.41-3.65,7.65-3.11,11.92,.68,5.35,4.03,9.98,8.86,12.4,.66,.33,1.39,.48,2.07,.48,1.67,0,3.3-.92,4.1-2.52,1.13-2.25,.23-4.99-2.03-6.12-2.1-1.05-3.53-3.07-3.83-5.39-.24-1.86,.26-3.7,1.41-5.18,1.14-1.48,2.8-2.43,4.66-2.67,3.84-.49,7.37,2.23,7.85,6.07,.29,2.3-.56,4.59-2.29,6.13-1.88,1.68-2.04,4.56-.36,6.44,1.68,1.88,4.57,2.04,6.44,.36,2.68-2.39,4.42-5.57,5.08-9.01,.1-.51,.17-1.01,.22-1.53,.01-.12,.02-.24,.03-.35,.03-.42,.05-.84,.05-1.26Z"/>
      <polygon class="cls-6" points="156.31 315.11 54.72 315.11 54.33 315.11 45.63 315.11 45.63 316.32 45.63 319.65 47.61 319.65 94.2 319.65 96.66 319.65 93.46 331.01 117.38 331.01 117.41 331.01 114.21 319.65 116.54 319.65 163.13 319.65 166.06 319.65 166.06 316.32 166.06 315.11 156.98 315.11 156.31 315.11"/>
      <path class="cls-9" d="M103.64,411.07c.09,.3,.17,.6,.24,.9-.07-.3-.15-.6-.24-.9Z"/>
      <path class="cls-9" d="M70.63,421.81v-31.72h-6.54c-5.66,0-11.06,2.25-15.42,5.2-.72,.49-1.41,1.05-2.09,1.62-6.06,5.09-10.04,13.03-10.04,21.49v3.5h34.08v-.09Z"/>
      <path class="cls-9" d="M96.92,399.28c.24,.26,.47,.51,.7,.77-.23-.26-.46-.52-.7-.77Z"/>
      <path class="cls-9" d="M104.35,414.29c.05,.3,.11,.6,.14,.9-.04-.3-.09-.6-.14-.9Z"/>
      <path class="cls-9" d="M98.95,401.71c.21,.28,.42,.54,.62,.83-.2-.28-.41-.55-.62-.83Z"/>
      <path class="cls-9" d="M94.83,397.25c.08,.07,.16,.15,.25,.23-.08-.07-.16-.15-.25-.23Z"/>
      <path class="cls-9" d="M102.59,408.05c.1,.23,.17,.46,.26,.69-.09-.23-.17-.47-.26-.69Z"/>
      <path class="cls-9" d="M104.71,418.4s0-.02,0-.04c0,.02,0,.03,0,.04h0Z"/>
      <path class="cls-9" d="M78.87,390.22c-.76-.07-1.52-.12-2.28-.12,.77,0,1.52,.06,2.28,.12Z"/>
      <polygon class="cls-10" points="115.43 333.29 117.38 331.01 93.46 331.01 95.31 333.29 115.43 333.29"/>
      <path class="cls-8" d="M145.52,390.09h-6.72v31.81h34.08v-3.49c0-8.46-3.91-16.42-9.96-21.5-.68-.57-1.36-1.13-2.09-1.62-4.35-2.95-9.66-5.2-15.31-5.2Z"/>
      <path class="cls-8" d="M104.71,418.41s0-.03,0-.04c0-1.07-.09-2.13-.22-3.18-.04-.3-.1-.6-.14-.9-.12-.78-.28-1.55-.47-2.31-.07-.3-.15-.6-.24-.91-.23-.79-.49-1.56-.78-2.32-.09-.23-.17-.47-.26-.7-.81-1.94-1.83-3.79-3.03-5.52-.2-.28-.41-.55-.62-.82-.42-.57-.86-1.12-1.33-1.66-.23-.26-.46-.52-.7-.77-.59-.63-1.2-1.23-1.84-1.81-.08-.08-.16-.15-.25-.23-.12-.11-.24-.24-.37-.34-4.36-3.73-9.78-6.18-15.6-6.69-.76-.07-1.52-.12-2.28-.12h-5.96v31.81h34.08v-3.49Z"/>
      <path class="cls-9" d="M167.58,183.31h.75V60.61H43.36v122.7h124.22Zm-60.52-23.32c-12.11,0-23-5.27-30.4-13.69,0,0,0,0-.01,0-6.43-7.17-10.31-16.68-10.31-27.03,0-6.16,1.41-11.99,3.86-17.22,7.79-.96,17.86-2.5,28.13-4.86,2.47-.57,4.95-1.18,7.41-1.85,8.92-2.41,17.57-5.5,24.59-9.42,1.3,.92,2.57,1.88,3.76,2.95,4.01,4.48,7.03,9.86,8.74,15.8-1.7-5.93-4.73-11.32-8.73-15.8,8.42,7.41,13.7,18.3,13.7,30.41,0,22.49-18.23,40.72-40.72,40.72Z"/>
      <path class="cls-9" d="M103.67,156.61c-8.72,0-16.79-2.77-23.4-7.46,6.61,4.69,14.68,7.46,23.4,7.46,22.49,0,40.73-18.23,40.73-40.72h0c0,22.49-18.23,40.72-40.72,40.72Z"/>
      <path class="cls-7" d="M134.08,88.86c4.01,4.48,7.03,9.87,8.73,15.8,0,0,0,.01,0,.02,.07,.23,.11,.47,.17,.71,.9,3.36,1.4,6.87,1.4,10.5h0c0,22.49-18.23,40.72-40.73,40.72-8.72,0-16.79-2.77-23.4-7.47-1.25-.89-2.47-1.82-3.62-2.84,7.41,8.42,18.3,13.69,30.4,13.69,22.49,0,40.72-18.23,40.72-40.72,0-12.1-5.28-23-13.7-30.41Z"/>
      <path class="cls-3" d="M103.67,156.61c22.49,0,40.72-18.23,40.72-40.72h0c0-3.63-.5-7.14-1.4-10.5-.06-.23-.1-.48-.17-.71,0,0,0-.01,0-.02-1.7-5.93-4.73-11.32-8.74-15.8-1.18-1.06-2.46-2.03-3.76-2.95-7.02,3.92-15.67,7.01-24.59,9.42,.44-.03,.88-.07,1.33-.07,12.91,0,23.39,10.47,23.39,23.39s-10.47,23.39-23.39,23.39-23.39-10.47-23.39-23.39c0-3.2,.64-6.25,1.81-9.03,1.41,.87,3.06,1.4,4.84,1.4,5.11,0,9.26-4.15,9.26-9.26,0-1.68-.48-3.23-1.26-4.59-10.27,2.36-20.34,3.9-28.13,4.86-2.45,5.24-3.86,11.06-3.86,17.22,0,10.35,3.89,19.86,10.31,27.03,0,0,0,0,.01,0,1.14,1.02,2.36,1.95,3.62,2.84,6.62,4.69,14.68,7.46,23.41,7.46Z"/>
      <path class="cls-2" d="M90.33,111.04c-1.78,0-3.43-.53-4.84-1.4-1.16,2.78-1.81,5.82-1.81,9.03,0,12.92,10.47,23.39,23.39,23.39s23.39-10.47,23.39-23.39-10.47-23.39-23.39-23.39c-.45,0-.89,.04-1.33,.07-2.46,.67-4.94,1.28-7.41,1.85,.78,1.36,1.26,2.91,1.26,4.59,0,5.11-4.14,9.26-9.26,9.26Z"/>
      <polygon class="cls-9" points="193.33 258.3 193.33 269.66 193.33 271.93 175.15 271.93 175.15 256.03 172.88 256.03 172.88 281.02 195.6 281.02 195.6 256.03 193.33 256.03 193.33 258.3"/>
      <path class="cls-6" d="M188.79,190.13h-13.63v9.09h-20.45v56.81h20.45v15.91h18.18v-2.27h-9.09v-11.36h9.09v-2.27h15.91v-56.81h-20.45v-9.09Zm14.26,36.71c0,11.4-9.24,20.64-20.64,20.64s-20.64-9.24-20.64-20.64,9.24-20.64,20.64-20.64,20.64,9.24,20.64,20.64Z"/>
      <path class="cls-11" d="M182.41,206.19c11.4,0,20.64,9.24,20.64,20.64s-9.24,20.64-20.64,20.64-20.64-9.24-20.64-20.64,9.24-20.64,20.64-20.64Z"/>
      <rect class="cls-11" x="184.24" y="258.3" width="9.09" height="11.36"/>
      <path class="cls-4" d="M306.95,65.15h-104.53c-13.81,0-24.99,11.18-24.99,25v54.54c0,2.02,.27,3.98,.71,5.86l-6.11,1.34c1.52,2.95,5.02,4.2,8.4,4.7,4.25,7.79,12.5,13.09,22,13.09h104.53c13.81,0,24.99-11.18,24.99-25v-54.54c0-13.82-11.18-25-25-25Zm-68.17,86.53v-.18h.84s-.84,.25-.84,.18Zm18.18,0v-.18h.75s-.75,.25-.75,.18Z"/>
      <rect class="cls-3" x="238.78" y="131.05" width="13.63" height="6.82"/>
      <rect class="cls-3" x="213.78" y="131.05" width="13.63" height="6.82"/>
      <rect class="cls-3" x="275.14" y="106.05" width="11.36" height="4.54"/>
      <rect class="cls-3" x="213.78" y="142.41" width="13.63" height="4.54"/>
      <rect class="cls-3" x="275.14" y="94.69" width="11.36" height="6.82"/>
      <rect class="cls-2" x="193.33" y="90.15" width="4.54" height="25"/>
      <path class="cls-2" d="M214.39,115.14h19.84v-4.54h-18.18v-19.71c0-.07,1-.74,.95-.74h-5.13s-.36,.65-.36,.74v23.6l.18-.14c.47,.77,1.47,.8,2.7,.8Z"/>
      <path class="cls-2" d="M239.19,115.14h20.04v-4.54h-18.18v-19.71c0-.07,.8-.74,.76-.74h-5.13s-.16,.65-.16,.74v23.6l.08-.14c.47,.77,1.37,.8,2.6,.8Z"/>
      <path class="cls-2" d="M291.58,114.34l-.54,.14v-22.35l.54-.52c-.47-.77-.75-1.46-1.98-1.46h-21.28v25h21.28c1.23,0,1.51-.03,1.98-.8Zm-5.08-3.74h-11.36v-4.54h11.36v4.54Zm0-9.09h-11.36v-6.82h11.36v6.82Z"/>
      <path class="cls-2" d="M293.5,91.61l-.19,.52v22.35l.19-.14c.47,.77,1.48,.8,2.71,.8h19.82v-4.54h-18.18v-4.54h18.18v-4.54h-18.18v-6.82h18.18v-4.54h-19.82c-1.22,0-2.24,.69-2.71,1.46Z"/>
      <path class="cls-2" d="M232.43,127.76c-.47-.77-.81-1.26-2.04-1.26h-21.16v25h21.16c1.23,0,1.57-.23,2.04-1l-.47-.06v-22.36l.47-.32Zm-5.02,19.2h-13.63v-4.54h13.63v4.54Zm0-9.09h-13.63v-6.82h13.63v6.82Z"/>
      <path class="cls-2" d="M255.37,126.64c-.13-.02,.14-.13-.02-.13h-18.34c-1.23,0-2.18,.49-2.65,1.26l-.13,.32v23.6c0,.09,.23-.18,.25-.18h4.29v-9.09h13.63v9.27c0,.09,.12-.18,.15-.18h4.4v-23.33c0-.69-.26-1.27-1.59-1.53Zm-2.96,11.23h-13.63v-6.82h13.63v6.82Z"/>
      <path class="cls-2" d="M239.62,151.5h-.85v.18c0,.07,.9-.18,.85-.18Z"/>
      <path class="cls-2" d="M256.96,151.68c0,.07,.79-.18,.75-.18h-.75v.18Z"/>
      <path class="cls-2" d="M259.26,127.76l-.03,.32v22.36l.03,.06c.46,.77,1.32,1,2.54,1h20.15v-4.54h-18.18v-15.91h18.18v-4.54h-20.15c-1.23,0-2.08,.49-2.54,1.26Z"/>
      <polygon class="cls-2" points="297.52 138.48 299.02 136.71 299.25 136.42 301.38 133.89 305.64 128.67 307.36 126.51 299.77 126.51 297.09 129.83 291.41 136.69 290.49 137.87 288.77 137.87 288.77 126.51 284.22 126.51 284.22 151.5 288.77 151.5 288.77 142.41 292.13 142.41 297.09 148.31 299.77 151.5 307.36 151.5 305.64 149.59 301.38 144.55 299.25 142.06 299.02 141.79 296.89 139.24 296.89 139.23 297.52 138.48"/>
      <polygon class="cls-2" points="203.75 92.42 208.86 83.9 202.8 88.06 203.75 92.42"/>
      <path class="cls-3" d="M239.62,151.5s-.84,.25-.84,.18v-.18h.84Z"/>
      <path class="cls-3" d="M257.71,151.5s-.75,.25-.75,.18v-.18h.75Z"/>
    </g>
  </g>
</svg>