<svg id="eS8NhuKHx1A1" xmlns="http://www.w3.org/2000/svg" xmlns:xlink="http://www.w3.org/1999/xlink" viewBox="0 0 390.58 429.41" shape-rendering="geometricPrecision" text-rendering="geometricPrecision">
<style><![CDATA[
#eS8NhuKHx1A22_tr {animation: eS8NhuKHx1A22_tr__tr 2400ms linear infinite alternate forwards}@keyframes eS8NhuKHx1A22_tr__tr { 0% {transform: translate(94.435003px,320.442995px) rotate(0deg)} 45.833333% {transform: translate(94.435003px,320.442995px) rotate(0deg)} 75% {transform: translate(94.435003px,320.442995px) rotate(2.293633deg)} 83.333333% {transform: translate(94.435003px,320.442995px) rotate(-0.200701deg)} 91.666667% {transform: translate(94.435003px,320.442995px) rotate(2.149605deg)} 100% {transform: translate(94.435003px,320.442995px) rotate(-0.70012deg)}} #eS8NhuKHx1A34_tr {animation: eS8NhuKHx1A34_tr__tr 2400ms linear infinite alternate forwards}@keyframes eS8NhuKHx1A34_tr__tr { 0% {transform: translate(38.79px,213.705px) rotate(0deg)} 45.833333% {transform: translate(38.79px,213.705px) rotate(0deg)} 75% {transform: translate(38.79px,213.705px) rotate(77.86865deg)} 100% {transform: translate(38.79px,213.705px) rotate(77.86865deg)}} #eS8NhuKHx1A35_tr {animation: eS8NhuKHx1A35_tr__tr 2400ms linear infinite alternate forwards}@keyframes eS8NhuKHx1A35_tr__tr { 0% {transform: translate(12.144243px,255.202688px) rotate(2.510475deg)} 54.166667% {transform: translate(12.144243px,255.202688px) rotate(2.510475deg)} 75% {transform: translate(12.144243px,255.202688px) rotate(115.191934deg)} 76.25% {transform: translate(12.144243px,255.202688px) rotate(104.377202deg)} 83.333333% {transform: translate(12.144243px,255.202688px) rotate(91.539895deg)} 91.666667% {transform: translate(12.144243px,255.202688px) rotate(107.309306deg)} 100% {transform: translate(12.144243px,255.202688px) rotate(88.685944deg)}} #eS8NhuKHx1A61 {animation: eS8NhuKHx1A61_c_o 2400ms linear infinite alternate forwards}@keyframes eS8NhuKHx1A61_c_o { 0% {opacity: 0} 4.166667% {opacity: 1} 8.333333% {opacity: 0} 12.5% {opacity: 1} 16.666667% {opacity: 0} 20.833333% {opacity: 1} 25% {opacity: 0} 29.166667% {opacity: 1} 100% {opacity: 1}}
]]></style>
<defs><filter id="eS8NhuKHx1A61-filter" x="-150%" width="400%" y="-150%" height="400%"><feGaussianBlur id="eS8NhuKHx1A61-filter-drop-shadow-0-blur" in="SourceAlpha" stdDeviation="2,2"/><feOffset id="eS8NhuKHx1A61-filter-drop-shadow-0-offset" dx="0" dy="0" result="tmp"/><feFlood id="eS8NhuKHx1A61-filter-drop-shadow-0-flood" flood-color="rgba(0,255,109,0.5)"/><feComposite id="eS8NhuKHx1A61-filter-drop-shadow-0-composite" operator="in" in2="tmp"/><feMerge id="eS8NhuKHx1A61-filter-drop-shadow-0-merge" result="result"><feMergeNode id="eS8NhuKHx1A61-filter-drop-shadow-0-merge-node-1"/><feMergeNode id="eS8NhuKHx1A61-filter-drop-shadow-0-merge-node-2" in="SourceGraphic"/></feMerge></filter></defs><polygon points="151.91,291.98 145.13,295.38 151.74,303.65 151.91,303.86 145.41,310.38 145.13,310.66 151.91,319.31 151.76,319.45 144.5,326.11 144.56,326.15 151.91,333.67 145.87,340.37 145.13,341.17 151.91,350.06 144.5,356.59 144.63,356.76 151.76,365.65 151.91,365.84 144.5,371.88 144.93,372.35 151.91,380.26 151.48,380.64 143.88,387.3 144,387.37 151.91,392.06 151.91,396.61 103.01,396.61 103.01,392.06 110.92,387.37 111.04,387.3 103.43,380.64 103.01,380.26 109.99,372.35 110.41,371.88 103.01,365.84 103.16,365.65 110.29,356.76 110.41,356.59 103.01,350.06 109.78,341.17 109.06,340.37 103.01,333.67 110.36,326.15 110.41,326.11 103.16,319.45 103.01,319.31 109.78,310.66 109.51,310.38 103.01,303.86 103.18,303.65 109.78,295.38 103.01,291.98 103.01,283.78 151.91,283.78 151.91,291.98" fill="#a7a7a6"/><polygon points="144.5,326.11 144.56,326.15 110.36,326.15 110.41,326.11 103.16,319.45 151.76,319.45 144.5,326.11" fill="#777676"/><polygon points="151.91,333.67 145.87,340.37 109.06,340.37 103.01,333.67 151.91,333.67" fill="#777676"/><polygon points="144.5,356.59 144.63,356.76 110.29,356.76 110.41,356.59 103.01,350.06 151.91,350.06 144.5,356.59" fill="#777676"/><polygon points="144.5,371.88 144.93,372.35 109.99,372.35 110.41,371.88 103.01,365.84 103.16,365.65 151.76,365.65 151.91,365.84 144.5,371.88" fill="#777676"/><polygon points="143.88,387.3 144,387.37 110.92,387.37 111.04,387.3 103.43,380.64 151.48,380.64 143.88,387.3" fill="#777676"/><rect width="67.17" height="6.75" rx="0" ry="0" transform="translate(93.31 422.66)" fill="#4e4d4d"/><path d="M127.46,391.93v30.74h-34.15v-3.41c0-15.09,12.22-27.32,27.32-27.32h6.83v-.01Z" fill="#3c5fa2"/><polygon points="82.85,291.98 76.07,295.38 82.68,303.65 82.85,303.86 76.35,310.38 76.07,310.66 82.85,319.31 82.7,319.45 75.45,326.11 75.5,326.15 82.85,333.67 76.8,340.37 76.07,341.17 82.85,350.06 75.45,356.59 75.57,356.76 82.7,365.65 82.85,365.84 75.45,371.88 75.87,372.35 82.85,380.26 82.43,380.64 74.82,387.3 74.94,387.37 82.85,392.06 82.85,396.61 33.95,396.61 33.95,392.06 41.85,387.37 41.98,387.3 34.37,380.64 33.95,380.26 40.93,372.35 41.35,371.88 33.95,365.84 34.1,365.65 41.23,356.76 41.35,356.59 33.95,350.06 40.73,341.17 40,340.37 33.95,333.67 41.3,326.15 41.35,326.11 34.1,319.45 33.95,319.31 40.73,310.66 40.45,310.38 33.95,303.86 34.12,303.65 40.73,295.38 33.95,291.98 33.95,283.78 82.85,283.78 82.85,291.98" fill="#a7a7a6"/><polygon points="75.45,326.11 75.5,326.15 41.3,326.15 41.35,326.11 34.1,319.45 82.7,319.45 75.45,326.11" fill="#777676"/><polygon points="82.85,333.67 76.8,340.37 40,340.37 33.95,333.67 82.85,333.67" fill="#777676"/><polygon points="75.45,356.59 75.57,356.76 41.23,356.76 41.35,356.59 33.95,350.06 82.85,350.06 75.45,356.59" fill="#777676"/><polygon points="75.45,371.88 75.87,372.35 40.93,372.35 41.35,371.88 33.95,365.84 34.1,365.65 82.7,365.65 82.85,365.84 75.45,371.88" fill="#777676"/><polygon points="74.82,387.3 74.94,387.37 41.85,387.37 41.98,387.3 34.37,380.64 82.43,380.64 74.82,387.3" fill="#777676"/><rect width="67.16" height="6.75" rx="0" ry="0" transform="translate(24.25 422.66)" fill="#4e4d4d"/><polygon points="152.98,314.81 33,314.81 33,320.33 84.21,320.33 80.99,330.79 104.99,330.79 101.78,320.33 152.98,320.33 152.98,314.81" fill="#a7a7a6"/><path d="M91.41,419.24v3.41h-67.16v-3.41c0-15.1,12.23-27.32,27.32-27.32h12.52c15.1,0,27.32,12.22,27.32,27.32Z" fill="#3c5fa2"/><polygon points="103.01,333.67 82.85,333.67 80.99,330.79 104.97,330.79 103.01,333.67" fill="#777676"/><path d="M160.48,419.25v3.41h-33.02v-30.74h5.7c15.09,0,27.32,12.23,27.32,27.32v.01Z" fill="#34537d"/><path d="M91.41,419.25v3.41h-33.01v-30.74h5.69c15.09,0,27.32,12.23,27.32,27.32v.01Z" fill="#34537d"/><g id="eS8NhuKHx1A22_tr" transform="translate(94.435003,320.442995) rotate(0)"><g transform="translate(-94.435003,-320.26)"><polygon points="146.99,191.35 36.76,191.35 31,184.46 155.26,184.46 146.99,191.35" fill="#34537d"/><g><path d="M187.41,244.28l-8.54,7.17-14.3,12-11.59-12.19-15.83-16.62-.48-.5-13.57-14.25l8.17-6.86l5.39-4.53l12.09-10.13.04-.05.11.16c0,0,.03.02.03.02l3.32,3.92c0,0,.02.02.02.04l35.1,41.81.04.01Z" fill="#a7a7a6"/><polygon points="190.58,254.8 182.95,316.36 182.47,320.26 182.45,320.26 179.9,319.88 173.32,318.87 166.76,317.86 166.71,316.46 166.65,314.81 164.57,263.45 178.26,258.9 190.58,254.8" fill="#3c5fa2"/><polygon points="184.24,318.02 184.24,325.85 174.69,324 164,321.93 164,314.1 168.44,314.97 175.33,316.29 184.24,318.02" fill="#4e4d4d"/><path d="M187.49,334.57c-.68,5.35-3.98,10-8.81,12.43-.66.33-1.37.48-2.05.48-1.66,0-3.28-.91-4.09-2.53-1.12-2.25-.21-5.01,2.04-6.15c2.12-1.04,3.53-3.05,3.85-5.4.09-.75.06-1.48-.07-2.18-.2-1.09-.66-2.12-1.37-3-.66-.87-1.53-1.56-2.48-2.03-.68-.32-1.41-.55-2.18-.64-3.85-.5-7.38,2.23-7.86,6.08-.3,2.3.54,4.61,2.3,6.15c1.87,1.66,2.03,4.55.36,6.45-1.68,1.89-4.58,2.05-6.47.36-3.98-3.55-5.94-8.83-5.28-14.12.71-5.46,4.05-9.94,8.61-12.29c1.39-.75,2.91-1.27,4.51-1.57c1.6-.29,3.28-.34,4.98-.14.62.07,1.21.18,1.8.34c2.37.57,4.53,1.66,6.4,3.21.93.76,1.79,1.62,2.55,2.6c2.09,2.71,3.25,5.92,3.37,9.29.04.9,0,1.78-.12,2.67l.01-.01Z" fill="#4e4d4d"/><polygon points="190.58,254.8 178.26,258.9 164.57,263.45 178.87,251.45 187.41,244.28 188.85,249.09 190.58,254.8" fill="#4e4d4d"/><polygon points="190.58,254.8 182.95,316.36 173.52,316.36 173.54,316.14 178.26,258.9 190.58,254.8" fill="#34537d"/></g><polygon points="151.91,303.86 145.41,310.38 109.51,310.38 103.01,303.86 103.18,303.65 151.74,303.65 151.91,303.86" fill="#777676"/><polygon points="82.85,303.86 76.35,310.38 40.45,310.38 33.95,303.86 34.12,303.65 82.68,303.65 82.85,303.86" fill="#777676"/><rect width="43.76" height="14.23" rx="0" ry="0" transform="translate(71.6 186.88)" fill="#4e4d4d"/><g id="eS8NhuKHx1A34_tr" transform="translate(38.79,213.705) rotate(0)"><g transform="translate(-41.79,-214.705)"><g id="eS8NhuKHx1A35_tr" transform="translate(12.144243,255.202688) rotate(2.510475)"><g transform="translate(-12.354397,-254.22502)"><ellipse rx="13.877149" ry="13.783065" transform="matrix(1.116921 0 0 1.079971 15.145218 255.708728)" fill="#4e4d4d" stroke-width="0"/><polygon points="26.34,265.32 2.76,247.09 0,257.71 26.34,265.32" fill="#4e4d4d"/><polygon points="0,257.71 10.74,322.8 26.34,319.78 26.34,265.32 0,257.71" fill="#3c5fa2"/><polygon points="28.55,323.36 8.29,327.29 8.29,319.45 28.55,315.54 28.55,323.36" fill="#4e4d4d"/><path d="M15.9,348.92c-.69,0-1.38-.15-2.04-.49-4.84-2.42-8.14-7.06-8.82-12.42-.55-4.29.61-8.54,3.25-11.95c2.65-3.42,6.46-5.61,10.75-6.15c8.84-1.12,16.96,5.16,18.1,14c.67,5.29-1.3,10.56-5.28,14.11-1.88,1.68-4.77,1.53-6.45-.36s-1.52-4.78.37-6.46c1.73-1.54,2.59-3.84,2.29-6.14-.49-3.84-4.02-6.57-7.87-6.08-1.87.24-3.52,1.18-4.67,2.67s-1.65,3.33-1.42,5.2c.3,2.34,1.73,4.35,3.84,5.41c2.26,1.13,3.17,3.88,2.04,6.14-.8,1.6-2.42,2.53-4.09,2.53v-.01Z" fill="#4e4d4d"/></g></g><polygon points="26.34,265.32 2.76,247.09 39.47,199.62 66.01,220.14 26.34,265.32" fill="#a7a7a6"/></g></g><path d="M152.99,205.6v111.35h-119.99v-111.35c0-3.97,3.21-7.42,7.97-9.22c2.28-.89,4.92-1.39,7.72-1.39h88.61c2.39,0,4.64.36,6.67,1c5.33,1.68,9.02,5.35,9.02,9.61Z" fill="#3c5fa2"/><path d="M152.99,205.6v111.35h-9.02v-120.96c5.33,1.68,9.02,5.35,9.02,9.61Z" fill="#34537d"/><path d="M41.79,203.48v111.36h-8.79v-109.24c0-3.97,3.21-7.42,7.97-9.22.51,1.89.82,4.37.82,7.1Z" fill="#34537d"/><path d="M93.49,84.27c18.76,0,33.97,15.21,33.97,33.97s-15.21,33.97-33.97,33.97-33.97-15.21-33.97-33.97s15.21-33.97,33.97-33.97Z" fill="#e2d0b1"/><path d="M93.49,75.78c-23.43,0-42.46,19.04-42.46,42.46s19.03,42.46,42.46,42.46s42.46-19.06,42.46-42.46-19.05-42.46-42.46-42.46Zm0,82.3c-21.97,0-39.86-17.87-39.86-39.84s17.9-39.86,39.86-39.86s39.85,17.9,39.85,39.86-17.87,39.84-39.85,39.84Z" fill="#4e4d4d"/><path d="M98.06,108.43c0-2.85,1.35-5.37,3.45-6.98-2.43-1.17-5.14-1.84-8.02-1.84-10.28,0-18.62,8.34-18.62,18.62s8.34,18.61,18.62,18.61s18.62-8.34,18.62-18.61c0-.88-.08-1.73-.2-2.56-1.42,1-3.16,1.58-5.03,1.58-4.87,0-8.82-3.95-8.82-8.82Z" fill="#4e4d4d"/><polygon points="49.81,269.72 48.18,266 48.18,211.16 137.82,211.16 137.82,265.9 136.14,269.72 49.81,269.72" fill="#34537d"/><rect width="87.37" height="3.22" rx="0" ry="0" transform="translate(49.31 276)" fill="#4e4d4d"/><rect width="87.37" height="58.57" rx="0" ry="0" transform="translate(49.31 207.08)" fill="#4e4d4d"/><rect width="87.37" height="3.22" rx="0" ry="0" transform="translate(49.31 288.67)" fill="#4e4d4d"/><rect width="87.37" height="3.22" rx="0" ry="0" transform="translate(49.31 300.43)" fill="#4e4d4d"/><rect width="2.61" height="52.69" rx="0" ry="0" transform="translate(91.869393 8.951523)" fill="#4e4d4d"/><path d="M93.49,0c3.37,0,6.1,2.73,6.1,6.1s-2.73,6.09-6.1,6.09-6.1-2.73-6.1-6.09s2.73-6.1,6.1-6.1Z" fill="#3c5fa2"/><rect width="123.96" height="123.96" rx="0" ry="0" transform="translate(31 60.5)" fill="#3c5fa2"/><path d="M135.42,119.53c0,22.54-18.27,40.8-40.8,40.8-12.14,0-23.05-5.28-30.47-13.72c7.19,6.44,16.68,10.34,27.08,10.34c22.54,0,40.8-18.27,40.8-40.8c0-10.37-3.9-19.9-10.33-27.09c8.44,7.42,13.73,18.34,13.73,30.47" fill="#d3d3d3"/><path d="M132.03,116.14c0,22.54-18.26,40.8-40.8,40.8-10.4,0-19.89-3.9-27.08-10.33-6.44-7.19-10.33-16.71-10.33-27.08c0-22.53,18.27-40.8,40.81-40.8c10.4,0,19.9,3.9,27.07,10.34c6.45,7.18,10.34,16.71,10.34,27.08" fill="#fff"/><g transform="translate(-.194997 0.299997)"><path d="M118.06,118.91c0,12.94-10.5,23.44-23.43,23.44s-23.43-10.5-23.43-23.44s10.49-23.43,23.43-23.43s23.43,10.49,23.43,23.43" fill="#010002"/><path d="M87.13,102c0,5.12-4.15,9.27-9.27,9.27s-9.27-4.16-9.27-9.27s4.15-9.28,9.27-9.28s9.27,4.15,9.27,9.28" fill="#fff"/></g><circle id="eS8NhuKHx1A61" r="6.56" transform="translate(58.4 215.94)" opacity="0" filter="url(#eS8NhuKHx1A61-filter)" fill="#00c417"/></g></g></svg>
