<?xml version="1.0" encoding="UTF-8"?>
<svg id="Layer_2" data-name="Layer 2" xmlns="http://www.w3.org/2000/svg" viewBox="0 0 370.12 434.15">
  <defs>
    <style>
      .cls-1 {
        fill: none;
      }

      .cls-2 {
        fill: #010002;
      }

      .cls-3 {
        fill: #fff;
      }

      .cls-4 {
        fill: #a7a7a6;
      }

      .cls-5 {
        fill: #d1d1d1;
      }

      .cls-6 {
        fill: #d3d3d3;
      }

      .cls-7 {
        fill: #34537d;
      }

      .cls-8, .cls-9 {
        fill: #3c5fa2;
      }

      .cls-10 {
        fill: #777676;
      }

      .cls-11 {
        fill: #4e4d4d;
      }

      .cls-9 {
        stroke: #3c5fa2;
        stroke-miterlimit: 10;
        stroke-width: 2px;
      }

      .cls-12 {
        opacity: .2;
      }
    </style>
  </defs>
  <g id="Capa_1" data-name="Capa 1">
    <g>
      <g class="cls-12">
        <ellipse cx="102.59" cy="423.65" rx="102.59" ry="10.5"/>
      </g>
      <path class="cls-1" d="M105.91,10.07c-.4,0-.79-.05-1.17-.13,.07,.08,.69,.13,1.11,.13,.02,0,.05,0,.06,0Z"/>
      <polygon class="cls-1" points="122.77 321.39 122.82 320.84 116.54 314.58 114.21 314.58 117.41 325.94 117.38 325.94 115.43 328.21 122.77 321.39"/>
      <path class="cls-1" d="M89.27,335.03l-.73,.52,6.76,8.57-7.39,6.59,.13,.23,7.12,9.09,.15,.17-7.39,6.01,.43,.63,6.96,8.3-.42,.79-6.82,4.99,7.56,5.27v5.64h-1.16c.13,.11,.25,.23,.37,.34,.08,.07,.16,.15,.25,.23,.64,.58,1.25,1.18,1.84,1.81,.24,.26,.47,.51,.7,.77,.46,.54,.9,1.09,1.33,1.66,.21,.27,.42,.54,.62,.82,1.21,1.72,2.22,3.57,3.03,5.52,.1,.23,.17,.47,.26,.7,.3,.76,.56,1.54,.78,2.32,.09,.31,.17,.61,.24,.91,.19,.76,.34,1.54,.47,2.31,.05,.31,.11,.6,.15,.9,.13,1.05,.22,2.11,.22,3.18v.04h0c0-8.88,4.74-17.19,11.36-22.22v-4.91l6.64-5.25-6.85-5.02-.43-.79,6.97-8.3,.43-.58-7.39-6.14,.15-.1,7.12-9.09,.12-.23-7.39-6.59,6.77-8.57-.73-.52-6.04-6.82h-20.12l-6.04,6.82Z"/>
      <path class="cls-1" d="M105.95,10.07c.38,0,.83-.05,.97-.11-.32,.05-.63,.11-.97,.11Z"/>
      <path class="cls-1" d="M49.75,329.37c.04-.65,.06-1.16,.05-1.16,0,0,0-.06,0-.1,0,.42-.01,.84-.05,1.26Z"/>
      <polygon class="cls-1" points="87.97 321.39 95.31 328.21 93.46 325.94 96.66 314.58 94.2 314.58 87.92 320.84 87.97 321.39"/>
      <polygon class="cls-7" points="127.44 180.51 127.44 185.06 159.33 185.06 167.58 178.24 167.27 178.24 43.56 178.24 49.31 185.06 84.26 185.06 84.26 180.51 127.44 180.51"/>
      <polygon class="cls-4" points="115.43 375.14 115.85 375.93 163.81 375.93 164.24 375.14 157.27 366.84 122.39 366.84 115.43 375.14"/>
      <polygon class="cls-4" points="115.58 360.02 164.09 360.02 156.97 350.93 122.7 350.93 115.58 360.02"/>
      <polygon class="cls-4" points="115.43 328.21 164.24 328.21 156.9 321.39 122.77 321.39 115.43 328.21"/>
      <polygon class="cls-4" points="122.19 335.54 115.43 344.12 164.24 344.12 157.47 335.54 158.2 335.03 121.47 335.03 122.19 335.54"/>
      <path class="cls-4" d="M156.35,380.47h-33.03l.13,1.01-.73-.53-6.64,5.25v4.91c.39-.3,.76-.62,1.16-.89,4.36-2.95,10.13-5.2,15.79-5.2h12.5c5.66,0,10.96,2.25,15.31,5.2,.73,.49,1.41,1.05,2.09,1.62h.87v-5.64l-6.83-5.25-.74,.54,.12-1.01Z"/>
      <polygon class="cls-10" points="122.82 320.84 122.77 321.39 156.9 321.39 156.85 320.84 163.13 314.58 116.54 314.58 122.82 320.84"/>
      <polygon class="cls-10" points="121.47 335.03 158.2 335.03 164.24 328.21 115.43 328.21 121.47 335.03"/>
      <polygon class="cls-10" points="122.82 350.7 122.7 350.93 156.97 350.93 156.85 350.7 164.24 344.12 115.43 344.12 122.82 350.7"/>
      <polygon class="cls-10" points="115.43 360.12 122.82 366.26 122.39 366.84 157.27 366.84 156.85 366.21 164.24 360.2 164.09 360.02 115.58 360.02 115.43 360.12"/>
      <polygon class="cls-10" points="122.71 380.95 123.45 381.49 123.32 380.47 156.35 380.47 156.22 381.49 156.96 380.95 163.81 375.93 115.85 375.93 122.71 380.95"/>
      <polygon class="cls-11" points="139.84 416.83 138.8 416.83 104.71 416.83 70.63 416.83 36.54 416.83 36.54 423.65 104.71 423.65 172.88 423.65 172.88 416.83 172.78 416.83 139.84 416.83"/>
      <path class="cls-8" d="M104.71,413.34v3.49h34.08v-31.81h-5.78c-5.66,0-11.43,2.25-15.79,5.2-.4,.27-.77,.6-1.16,.89-6.63,5.03-11.36,13.34-11.36,22.23Z"/>
      <path class="cls-4" d="M49.81,327.92c0,.06,0,.12,0,.19,0,.04,0,.1,0,.1h45.5l-7.34-6.82H53.85l-4.31,3.93c.06,.28,.13,.56,.16,.85,.08,.58,.1,1.17,.12,1.75Z"/>
      <path class="cls-4" d="M64.09,385.02h12.5c.76,0,1.52,.05,2.28,.12,5.82,.52,11.24,2.97,15.6,6.69h1.16v-5.64l-7.56-5.27-.77,.56,.13-1.02H54.39l.13,1.01-.79-.58-8.1,5.29v5.64h.95c.67-.57,1.36-1.12,2.09-1.62,4.36-2.95,9.76-5.2,15.42-5.2Z"/>
      <polygon class="cls-4" points="95.31 375.14 88.35 366.84 53.47 366.84 46.5 375.14 46.93 375.93 94.89 375.93 95.31 375.14"/>
      <polygon class="cls-4" points="88.55 335.54 89.27 335.03 52.54 335.03 53.27 335.54 46.5 344.12 95.31 344.12 88.55 335.54"/>
      <polygon class="cls-4" points="88.05 350.93 53.77 350.93 46.65 360.02 95.16 360.02 88.05 350.93"/>
      <polygon class="cls-10" points="87.92 320.84 94.2 314.58 47.61 314.58 53.89 320.84 53.85 321.39 87.97 321.39 87.92 320.84"/>
      <path class="cls-10" d="M95.31,328.21H49.81s-.01,.51-.05,1.16c0,.12-.01,.24-.03,.35-.05,.66-.13,1.39-.22,1.89l3.03,3.42h36.73l6.04-6.82Z"/>
      <polygon class="cls-10" points="87.92 350.7 95.31 344.12 46.5 344.12 53.89 350.7 53.77 350.93 88.05 350.93 87.92 350.7"/>
      <polygon class="cls-10" points="87.92 366.21 95.31 360.2 95.16 360.02 46.65 360.02 46.5 360.12 53.89 366.26 53.47 366.84 88.35 366.84 87.92 366.21"/>
      <polygon class="cls-10" points="54.39 380.47 87.42 380.47 87.3 381.49 88.07 380.92 94.89 375.93 46.93 375.93 53.73 380.91 54.52 381.49 54.39 380.47"/>
      <polygon class="cls-11" points="127.44 185.89 127.44 185.06 127.44 180.51 84.26 180.51 84.26 185.06 84.26 185.89 84.26 189.6 127.44 189.6 127.44 185.89"/>
      <polygon class="cls-4" points="15.41 241.51 38.96 259.71 45.63 252.13 45.63 202.47 15.41 241.51"/>
      <path class="cls-8" d="M54.72,310.03h102.25v-59.08h-2.27v-56.81h2.27v-3.63c-2.27-.63-4.93-.91-7.32-.91H61.22c-2.78,0-5.21,.46-7.47,1.33,.5,1.88,.97,4.35,.97,7.06v112.04Zm6.82-49.99v-59.08h88.62v59.32l-1.66,4.3H62.33l-.79-4.21v-.34Zm0,11.36h88.62v2.27H61.54v-2.27Zm0,11.36h88.62v4.54H61.54v-4.54Zm0,11.36h88.62v4.54H61.54v-4.54Z"/>
      <rect class="cls-8" x="45.56" y="309.13" width="0" height="2.11"/>
      <path class="cls-7" d="M164.76,194.15c-.57-2.79-1.54-4.54-2.62-4.54h-5.16v4.54h7.78Z"/>
      <polygon class="cls-7" points="156.98 250.95 156.98 310.03 166.06 310.03 166.06 250.95 165.31 250.95 156.98 250.95"/>
      <path class="cls-7" d="M54.72,310.03v-112.04c0-2.71-.47-5.18-.97-7.06,0,0,0-.02,0-.03-4.75,1.79-8.11,5.25-8.11,9.2v109.93h9.09Z"/>
      <polygon class="cls-7" points="148.49 264.59 150.16 260.29 150.16 260.04 61.54 260.04 61.54 260.38 62.33 264.59 148.49 264.59"/>
      <rect class="cls-11" x="61.54" y="271.4" width="88.62" height="2.27"/>
      <polygon class="cls-11" points="150.16 205.65 150.16 205.51 150.16 200.96 61.54 200.96 61.54 205.51 61.54 205.65 61.54 260.04 150.16 260.04 150.16 205.65"/>
      <rect class="cls-11" x="61.54" y="282.77" width="88.62" height="4.54"/>
      <polygon class="cls-11" points="115.6 298.67 150.16 298.67 150.16 294.13 61.54 294.13 61.54 298.67 95.14 298.67 115.6 298.67"/>
      <path class="cls-11" d="M105.95,11.82h-.1c-.43,0-1.04-.43-1.11-.51,0,0-.02-.37-.02-.38V57.26h2.27V10.95s-.04,.38-.07,.38c-.14,.06-.59,.48-.97,.48Z"/>
      <path class="cls-8" d="M104.62,12s.06,0,.09,0c0,0,.02,.37,.02,.38,.38,.08,.77,.51,1.17,.51h.04c.33,0,.65-.43,.97-.48,.02,0,.05-.19,.07-.2,.08-.01,.17-.1,.24-.12,2.73-.6,4.78-3.07,4.78-5.98,0-3.36-2.72-6.11-6.08-6.11s-6.09,2.71-6.09,6.07c0,2.91,2.05,5.33,4.78,5.92Z"/>
      <polygon class="cls-11" points="15.37 241.51 12.62 252.12 38.91 259.71 15.37 241.51"/>
      <polygon class="cls-8" points="38.82 310.25 38.82 259.71 12.58 252.12 22.66 313.36 30.25 311.91 38.82 310.25"/>
      <path class="cls-11" d="M49.8,328.11c0-.06,0-.13,0-.19-.01-.58-.04-1.17-.12-1.75-.04-.29-.1-.57-.16-.85-.03-.14-.05-.28-.08-.43-1.02-4.86-3.82-8.82-8.36-10.99v-4.08l-2.19,.43-8.64,1.66-7.6,1.46h-.07s-1.95,.37-1.95,.37v4.6c-2.27,3.41-3.65,7.65-3.11,11.92,.68,5.35,4.03,9.98,8.86,12.4,.66,.33,1.39,.48,2.07,.48,1.67,0,3.3-.92,4.1-2.52,1.13-2.25,.23-4.99-2.03-6.12-2.1-1.05-3.53-3.07-3.83-5.39-.24-1.86,.26-3.7,1.41-5.18,1.14-1.48,2.8-2.43,4.66-2.67,3.84-.49,7.37,2.23,7.85,6.07,.29,2.3-.56,4.59-2.29,6.13-1.88,1.68-2.04,4.56-.36,6.44,1.68,1.88,4.57,2.04,6.44,.36,2.68-2.39,4.42-5.57,5.08-9.01,.1-.51,.17-1.01,.22-1.53,.01-.12,.02-.24,.03-.35,.03-.42,.05-.84,.05-1.26Z"/>
      <polygon class="cls-4" points="156.31 310.03 54.72 310.03 54.33 310.03 45.63 310.03 45.63 311.24 45.63 314.58 47.61 314.58 94.2 314.58 96.66 314.58 93.46 325.94 117.38 325.94 117.41 325.94 114.21 314.58 116.54 314.58 163.13 314.58 166.06 314.58 166.06 311.24 166.06 310.03 156.98 310.03 156.31 310.03"/>
      <path class="cls-8" d="M103.64,406c.09,.3,.17,.6,.24,.9-.07-.3-.15-.6-.24-.9Z"/>
      <path class="cls-8" d="M70.63,416.74v-31.72h-6.54c-5.66,0-11.06,2.25-15.42,5.2-.72,.49-1.41,1.05-2.09,1.62-6.06,5.09-10.04,13.03-10.04,21.49v3.5h34.08v-.09Z"/>
      <path class="cls-8" d="M96.92,394.21c.24,.26,.47,.51,.7,.77-.23-.26-.46-.52-.7-.77Z"/>
      <path class="cls-8" d="M104.35,409.22c.05,.3,.11,.6,.14,.9-.04-.3-.09-.6-.14-.9Z"/>
      <path class="cls-8" d="M98.95,396.63c.21,.28,.42,.54,.62,.83-.2-.28-.41-.55-.62-.83Z"/>
      <path class="cls-8" d="M94.83,392.18c.08,.07,.16,.15,.25,.23-.08-.07-.16-.15-.25-.23Z"/>
      <path class="cls-8" d="M102.59,402.98c.1,.23,.17,.46,.26,.69-.09-.23-.17-.47-.26-.69Z"/>
      <path class="cls-8" d="M104.71,413.33s0-.02,0-.04c0,.02,0,.03,0,.04h0Z"/>
      <path class="cls-8" d="M78.87,385.14c-.76-.07-1.52-.12-2.28-.12,.77,0,1.52,.06,2.28,.12Z"/>
      <polygon class="cls-10" points="115.43 328.21 117.38 325.94 93.46 325.94 95.31 328.21 115.43 328.21"/>
      <path class="cls-7" d="M145.52,385.02h-6.72v31.81h34.08v-3.49c0-8.46-3.91-16.42-9.96-21.5-.68-.57-1.36-1.13-2.09-1.62-4.35-2.95-9.66-5.2-15.31-5.2Z"/>
      <path class="cls-7" d="M104.71,413.34s0-.03,0-.04c0-1.07-.09-2.13-.22-3.18-.04-.3-.1-.6-.14-.9-.12-.78-.28-1.55-.47-2.31-.07-.3-.15-.6-.24-.91-.23-.79-.49-1.56-.78-2.32-.09-.23-.17-.47-.26-.7-.81-1.94-1.83-3.79-3.03-5.52-.2-.28-.41-.55-.62-.82-.42-.57-.86-1.12-1.33-1.66-.23-.26-.46-.52-.7-.77-.59-.63-1.2-1.23-1.84-1.81-.08-.08-.16-.15-.25-.23-.12-.11-.24-.24-.37-.34-4.36-3.73-9.78-6.18-15.6-6.69-.76-.07-1.52-.12-2.28-.12h-5.96v31.81h34.08v-3.49Z"/>
      <path class="cls-8" d="M167.58,178.24h.75V55.53H43.36v122.7h124.22Zm-60.52-23.32c-12.11,0-23-5.27-30.4-13.69,0,0,0,0-.01,0-6.43-7.17-10.31-16.68-10.31-27.03,0-6.16,1.41-11.99,3.86-17.22,7.79-.96,17.86-2.5,28.13-4.86,2.47-.57,4.95-1.18,7.41-1.85,8.92-2.41,17.57-5.5,24.59-9.42,1.3,.92,2.57,1.88,3.76,2.95,4.01,4.48,7.03,9.86,8.74,15.8-1.7-5.93-4.73-11.32-8.73-15.8,8.42,7.41,13.7,18.3,13.7,30.41,0,22.49-18.23,40.72-40.72,40.72Z"/>
      <path class="cls-8" d="M103.67,151.54c-8.72,0-16.79-2.77-23.4-7.46,6.61,4.69,14.68,7.46,23.4,7.46,22.49,0,40.73-18.23,40.73-40.72h0c0,22.49-18.23,40.72-40.72,40.72Z"/>
      <path class="cls-6" d="M134.08,83.79c4.01,4.48,7.03,9.87,8.73,15.8,0,0,0,.01,0,.02,.07,.23,.11,.47,.17,.71,.9,3.36,1.4,6.87,1.4,10.5h0c0,22.49-18.23,40.72-40.73,40.72-8.72,0-16.79-2.77-23.4-7.47-1.25-.89-2.47-1.82-3.62-2.84,7.41,8.42,18.3,13.69,30.4,13.69,22.49,0,40.72-18.23,40.72-40.72,0-12.1-5.28-23-13.7-30.41Z"/>
      <path class="cls-3" d="M103.67,151.54c22.49,0,40.72-18.23,40.72-40.72h0c0-3.63-.5-7.14-1.4-10.5-.06-.23-.1-.48-.17-.71,0,0,0-.01,0-.02-1.7-5.93-4.73-11.32-8.74-15.8-1.18-1.06-2.46-2.03-3.76-2.95-7.02,3.92-15.67,7.01-24.59,9.42,.44-.03,.88-.07,1.33-.07,12.91,0,23.39,10.47,23.39,23.39s-10.47,23.39-23.39,23.39-23.39-10.47-23.39-23.39c0-3.2,.64-6.25,1.81-9.03,1.41,.87,3.06,1.4,4.84,1.4,5.11,0,9.26-4.15,9.26-9.26,0-1.68-.48-3.23-1.26-4.59-10.27,2.36-20.34,3.9-28.13,4.86-2.45,5.24-3.86,11.06-3.86,17.22,0,10.35,3.89,19.86,10.31,27.03,0,0,0,0,.01,0,1.14,1.02,2.36,1.95,3.62,2.84,6.62,4.69,14.68,7.46,23.41,7.46Z"/>
      <path class="cls-2" d="M90.33,105.96c-1.78,0-3.43-.53-4.84-1.4-1.16,2.78-1.81,5.82-1.81,9.03,0,12.92,10.47,23.39,23.39,23.39s23.39-10.47,23.39-23.39-10.47-23.39-23.39-23.39c-.45,0-.89,.04-1.33,.07-2.46,.67-4.94,1.28-7.41,1.85,.78,1.36,1.26,2.91,1.26,4.59,0,5.11-4.14,9.26-9.26,9.26Z"/>
      <polygon class="cls-8" points="193.33 253.23 193.33 264.59 193.33 266.86 175.15 266.86 175.15 250.95 172.88 250.95 172.88 275.95 195.6 275.95 195.6 250.95 193.33 250.95 193.33 253.23"/>
      <path class="cls-4" d="M188.79,185.06h-13.63v9.09h-20.45v56.81h20.45v15.91h18.18v-2.27h-9.09v-11.36h9.09v-2.27h15.91v-56.81h-20.45v-9.09Zm14.26,36.71c0,11.4-9.24,20.64-20.64,20.64s-20.64-9.24-20.64-20.64,9.24-20.64,20.64-20.64,20.64,9.24,20.64,20.64Z"/>
      <path class="cls-11" d="M182.41,201.12c11.4,0,20.64,9.24,20.64,20.64s-9.24,20.64-20.64,20.64-20.64-9.24-20.64-20.64,9.24-20.64,20.64-20.64Z"/>
      <rect class="cls-11" x="184.24" y="253.23" width="9.09" height="11.36"/>
      <g>
        <path class="cls-3" d="M338.74,60.08H209.58c-17.07,0-30.88,11.18-30.88,25v54.54c0,2.02,.34,3.98,.87,5.86l-7.55,1.34c1.88,2.95,6.2,4.2,10.38,4.7,5.25,7.79,15.44,13.09,27.18,13.09h129.15c17.07,0,30.88-11.18,30.88-25v-54.54c0-13.82-13.82-25-30.88-25Zm-84.23,86.53v-.18h1.04c.06,0-1.04,.25-1.04,.18Zm22.46,0v-.18h.92c.06,0-.92,.25-.92,.18Z"/>
        <path class="cls-5" d="M338.74,165.11H209.59c-11.4,0-21.9-5.02-27.47-13.12-5.34-.67-8.88-2.32-10.52-4.9l-.4-.63,7.75-1.38c-.5-1.91-.75-3.71-.75-5.47v-54.54c0-14.06,14.08-25.5,31.38-25.5h129.15c17.3,0,31.38,11.44,31.38,25.5v54.54c0,14.06-14.08,25.5-31.38,25.5Zm-165.84-17.94c1.67,2,4.88,3.29,9.57,3.85l.23,.03,.13,.19c5.35,7.94,15.61,12.87,26.77,12.87h129.15c16.75,0,30.38-10.99,30.38-24.5v-54.54c0-13.51-13.63-24.5-30.38-24.5H209.58c-16.75,0-30.38,10.99-30.38,24.5v54.54c0,1.83,.28,3.7,.85,5.73l.15,.53-7.3,1.3Zm104.11-.04h-.5l-.04-1.19h1.92v.5c0,.69-1.33,.69-1.39,.69Zm-22.46,0h-.5l-.04-1.19h2.04v.5c0,.66-1.25,.69-1.5,.69Z"/>
      </g>
      <path class="cls-2" d="M239.62,146.43h-.85v.18c0,.07,.9-.18,.85-.18Z"/>
      <path class="cls-2" d="M270.45,146.61c0,.07,.79-.18,.75-.18h-.75v.18Z"/>
      <path class="cls-3" d="M239.62,146.43s-.84,.25-.84,.18v-.18h.84Z"/>
      <path class="cls-3" d="M271.19,146.43s-.75,.25-.75,.18v-.18h.75Z"/>
      <g>
        <path class="cls-8" d="M197.43,97.72c0-1.17,.14-2.32,.41-3.45,.28-1.13,.66-2.2,1.16-3.21,.5-1.01,1.1-1.94,1.79-2.78s1.45-1.58,2.28-2.19,1.71-1.1,2.64-1.44c.93-.34,1.89-.51,2.88-.51,1.15,0,2.05,.24,2.69,.73,.64,.48,.96,1.16,.96,2.03,0,.33-.05,.68-.14,1.03-.09,.35-.23,.7-.4,1.04-.17,.34-.38,.67-.61,.99s-.49,.59-.78,.83c-.43-.07-.81-.26-1.13-.59-.32-.33-.52-.71-.6-1.14,.58-.48,1.05-.99,1.39-1.51,.34-.53,.51-1.01,.51-1.44,0-.73-.46-1.1-1.38-1.1-.38,0-.78,.08-1.19,.24-.41,.16-.82,.38-1.24,.66s-.82,.63-1.21,1.03c-.39,.4-.75,.84-1.09,1.33-2.32,3.34-3.48,6.75-3.48,10.24,0,1.24,.19,2.23,.58,2.98,.38,.75,.89,1.19,1.53,1.33,.72-.17,1.63-.63,2.73-1.38s2.3-1.73,3.61-2.93c.17,.17,.27,.34,.3,.53-.48,.63-.98,1.24-1.5,1.82s-1.03,1.11-1.54,1.6c-.51,.48-1.01,.91-1.5,1.27-.49,.36-.95,.65-1.37,.85-2.07,0-3.64-.58-4.71-1.73-1.07-1.15-1.6-2.85-1.6-5.09Z"/>
        <path class="cls-8" d="M223.06,84.39c.32,.13,.64,.3,.98,.51s.64,.42,.93,.64c.28,.22,.52,.43,.71,.64,.19,.21,.3,.38,.31,.51-.28-.07-.57-.11-.85-.14-.28-.03-.54-.04-.78-.04-.75,0-1.5,.18-2.24,.55-.74,.37-1.45,.87-2.12,1.5-.67,.63-1.29,1.38-1.85,2.23-.57,.85-1.06,1.76-1.46,2.73s-.73,1.97-.96,3c-.23,1.04-.35,2.05-.35,3.05,0,1.3,.22,2.27,.65,2.9,.43,.63,1.07,.95,1.9,.95,.4,0,.83-.08,1.3-.24,.47-.16,.94-.38,1.43-.66s.96-.63,1.43-1.03c.47-.4,.9-.84,1.3-1.33,.58-.7,1.11-1.5,1.58-2.39,.47-.89,.86-1.84,1.19-2.84s.58-2.03,.75-3.09c.18-1.06,.26-2.1,.26-3.12,0-.4,0-.74-.02-1.01s-.04-.51-.06-.7c-.03-.19-.05-.35-.06-.46-.02-.12-.03-.22-.05-.3,.2,.1,.42,.22,.66,.36,.24,.14,.47,.35,.68,.63,.21,.28,.38,.64,.53,1.09,.14,.45,.21,1.04,.21,1.75,0,1.17-.14,2.32-.41,3.44s-.66,2.2-1.15,3.22-1.07,1.97-1.74,2.85c-.67,.89-1.39,1.66-2.15,2.33-1,.88-2.07,1.57-3.21,2.05-1.13,.48-2.23,.73-3.28,.73-1.54,0-2.71-.49-3.52-1.46-.81-.98-1.21-2.42-1.21-4.32,0-1.02,.11-2.09,.34-3.23,.23-1.13,.54-2.25,.95-3.35s.9-2.15,1.46-3.14c.57-.99,1.19-1.87,1.87-2.63,.68-.76,1.4-1.36,2.18-1.81s1.57-.68,2.39-.68c.27,0,.52,.02,.75,.06,.23,.04,.48,.12,.75,.24Z"/>
        <path class="cls-8" d="M231.85,104.51c-.95-.28-1.59-.56-1.93-.81-.33-.26-.5-.61-.5-1.06,0-.5,.12-1.21,.35-2.12,.23-.91,.54-1.92,.91-3.04,.38-1.12,.8-2.29,1.29-3.5,.48-1.22,.98-2.39,1.48-3.5,.5-1.12,.99-2.14,1.46-3.07s.9-1.65,1.26-2.17l-.18-1.05c.23,0,.56,.06,.98,.18,.42,.12,.84,.26,1.26,.43,.42,.17,.8,.34,1.13,.51,.33,.18,.5,.32,.54,.44-.08,.4-.15,1.01-.2,1.81-.05,.81-.08,1.67-.08,2.59,0,1.82,.07,3.6,.21,5.34,.14,1.74,.47,3.52,.99,5.32,.27-1.33,.55-2.67,.86-3.99,.31-1.33,.63-2.6,.96-3.81,.33-1.21,.67-2.33,1-3.37,.33-1.03,.65-1.94,.96-2.72,.31-.78,.6-1.39,.86-1.83,.27-.44,.51-.68,.73-.71,.18,.03,.38,.1,.6,.21,.22,.11,.43,.24,.63,.39s.38,.32,.55,.5c.17,.18,.3,.37,.4,.55-.53,.22-1.06,.73-1.59,1.53s-1.03,1.77-1.5,2.92c-.48,1.14-.92,2.38-1.33,3.72-.41,1.34-.77,2.65-1.08,3.94-.31,1.29-.55,2.49-.73,3.59-.17,1.1-.27,1.99-.29,2.65,0,.03,0,.06,.02,.08-.05,.02-.1,.02-.16,.02h-.16c-.77,0-1.45-.1-2.04-.29-.59-.19-.98-.46-1.16-.81-.35-1.4-.64-2.75-.88-4.06-.23-1.3-.43-2.6-.59-3.91-.16-1.3-.28-2.62-.38-3.94s-.16-2.72-.21-4.17c-.32,.5-.65,1.16-1,1.97-.35,.81-.69,1.7-1.03,2.67-.33,.97-.66,1.99-.96,3.05s-.58,2.11-.81,3.13c-.23,1.02-.42,1.98-.55,2.89-.13,.91-.2,1.7-.2,2.37,0,.35,0,.6,.01,.75,0,.15,.03,.28,.06,.38Z"/>
        <path class="cls-8" d="M251.68,87.44c-.67,0-1.18-.19-1.54-.56-.36-.38-.54-.83-.54-1.37,0-.13,.02-.29,.06-.48,.04-.18,.1-.34,.16-.48,.22,.06,.54,.1,.96,.12s.92,.04,1.49,.04h2.89c1.08,0,2.11-.05,3.09-.15s1.85-.2,2.6-.29c.75-.09,1.24-.14,1.45-.14,.62,0,1.06,.23,1.34,.69s.48,1.07,.61,1.84c-.43-.05-.86-.08-1.29-.08h-2.7c-.54,0-1.09,.03-1.64,.1-.23,.49-.49,1.06-.78,1.72-.28,.66-.56,1.35-.84,2.07s-.54,1.44-.79,2.15c-.25,.71-.47,1.35-.65,1.92-.37,1.1-.69,2.13-.96,3.06s-.52,1.81-.73,2.62c-.21,.81-.39,1.59-.54,2.32-.15,.74-.28,1.46-.4,2.16-1.12-.17-2.05-.87-2.8-2.1,.13-.52,.3-1.08,.49-1.69,.19-.61,.42-1.3,.68-2.08,.26-.78,.56-1.66,.91-2.64s.75-2.1,1.2-3.35c.17-.47,.34-.96,.53-1.46,.18-.51,.36-1.01,.54-1.51s.33-.98,.48-1.45c.14-.47,.26-.89,.36-1.28-.7,.08-1.36,.15-1.99,.21-.63,.06-1.18,.09-1.67,.09Z"/>
        <path class="cls-8" d="M261.39,104.51c-.8-.23-1.36-.47-1.67-.7s-.46-.53-.46-.88c0-.27,.08-.64,.22-1.13,.15-.48,.37-1.06,.66-1.72,.29-.66,.64-1.39,1.05-2.19,.41-.8,.87-1.66,1.39-2.58h-2c.1-.25,.38-.47,.85-.65,.47-.18,1.08-.34,1.85-.48,.65-1.09,1.35-2.13,2.09-3.11,.74-.99,1.49-1.9,2.24-2.73,.75-.83,1.5-1.56,2.25-2.19s1.47-1.13,2.15-1.49c.02-.12,.03-.22,.04-.3,0-.08,.01-.14,.01-.18,.23,0,.55,.06,.94,.18,.39,.12,.78,.26,1.15,.43,.38,.17,.71,.34,1,.51s.46,.32,.49,.44c-.55,.97-1.09,2.42-1.63,4.34s-.98,4.23-1.33,6.92c-.08,.67-.15,1.43-.21,2.28s-.09,1.8-.09,2.85v1.13c0,.38,.02,.78,.05,1.2-.03,.02-.07,.02-.1,.02h-.2c-.23,0-.5-.04-.81-.11-.31-.07-.61-.17-.9-.27-.29-.11-.54-.23-.75-.36-.21-.13-.34-.25-.39-.34-.02-.21-.03-.42-.03-.63v-.65c0-1.02,.04-2.05,.11-3.1s.2-2.14,.39-3.25c-.23-.18-.54-.26-.93-.26h-4.41c-.4,.74-.78,1.48-1.13,2.21-.35,.73-.65,1.47-.9,2.21-.28,.79-.51,1.58-.69,2.37-.18,.79-.29,1.53-.34,2.22Zm9.66-15.04c.07-.23,.15-.56,.24-.97,.09-.41,.18-.84,.26-1.29-.42,.15-.88,.43-1.39,.83s-1.04,.9-1.58,1.49c-.54,.59-1.09,1.26-1.65,2.01-.56,.74-1.1,1.53-1.61,2.37,1.4-.14,3-.21,4.78-.21,.13-.7,.28-1.4,.44-2.1,.16-.7,.33-1.4,.51-2.12Z"/>
        <path class="cls-8" d="M276.99,97.72c0-1.17,.14-2.32,.41-3.45,.28-1.13,.66-2.2,1.16-3.21,.5-1.01,1.1-1.94,1.79-2.78s1.45-1.58,2.28-2.19,1.71-1.1,2.64-1.44c.93-.34,1.89-.51,2.88-.51,1.15,0,2.05,.24,2.69,.73,.64,.48,.96,1.16,.96,2.03,0,.33-.05,.68-.14,1.03-.09,.35-.23,.7-.4,1.04-.17,.34-.38,.67-.61,.99s-.49,.59-.78,.83c-.43-.07-.81-.26-1.13-.59-.32-.33-.52-.71-.6-1.14,.58-.48,1.05-.99,1.39-1.51,.34-.53,.51-1.01,.51-1.44,0-.73-.46-1.1-1.38-1.1-.38,0-.78,.08-1.19,.24-.41,.16-.82,.38-1.24,.66s-.82,.63-1.21,1.03c-.39,.4-.75,.84-1.09,1.33-2.32,3.34-3.48,6.75-3.48,10.24,0,1.24,.19,2.23,.58,2.98,.38,.75,.89,1.19,1.53,1.33,.72-.17,1.63-.63,2.73-1.38s2.3-1.73,3.61-2.93c.17,.17,.27,.34,.3,.53-.48,.63-.98,1.24-1.5,1.82s-1.03,1.11-1.54,1.6c-.51,.48-1.01,.91-1.5,1.27-.49,.36-.95,.65-1.37,.85-2.07,0-3.64-.58-4.71-1.73-1.07-1.15-1.6-2.85-1.6-5.09Z"/>
        <path class="cls-8" d="M295.74,87.44c-.67,0-1.18-.19-1.54-.56-.36-.38-.54-.83-.54-1.37,0-.13,.02-.29,.06-.48,.04-.18,.1-.34,.16-.48,.22,.06,.54,.1,.96,.12s.92,.04,1.49,.04h2.89c1.08,0,2.11-.05,3.09-.15s1.85-.2,2.6-.29c.75-.09,1.24-.14,1.45-.14,.62,0,1.06,.23,1.34,.69s.48,1.07,.61,1.84c-.43-.05-.86-.08-1.29-.08h-2.7c-.54,0-1.09,.03-1.64,.1-.23,.49-.49,1.06-.78,1.72-.28,.66-.56,1.35-.84,2.07s-.54,1.44-.79,2.15c-.25,.71-.47,1.35-.65,1.92-.37,1.1-.69,2.13-.96,3.06s-.52,1.81-.73,2.62c-.21,.81-.39,1.59-.54,2.32-.15,.74-.28,1.46-.4,2.16-1.12-.17-2.05-.87-2.8-2.1,.13-.52,.3-1.08,.49-1.69,.19-.61,.42-1.3,.68-2.08,.26-.78,.56-1.66,.91-2.64s.75-2.1,1.2-3.35c.17-.47,.34-.96,.53-1.46,.18-.51,.36-1.01,.54-1.51s.33-.98,.48-1.45c.14-.47,.26-.89,.36-1.28-.7,.08-1.36,.15-1.99,.21-.63,.06-1.18,.09-1.67,.09Z"/>
        <path class="cls-8" d="M321.8,104.46s-.07,.02-.1,.02h-.2c-.23,0-.5-.04-.81-.11-.31-.08-.61-.17-.9-.28-.29-.11-.54-.23-.75-.36-.21-.13-.34-.25-.39-.35-.02-.23-.03-.48-.03-.73v-.73c0-1.87,.14-3.82,.41-5.86,.28-2.04,.73-4.24,1.36-6.61,.07-.23,.14-.53,.21-.89,.08-.36,.15-.75,.24-1.16-.4,.32-.88,.82-1.43,1.51-.55,.69-1.13,1.51-1.74,2.45-.61,.94-1.22,1.98-1.83,3.1-.61,1.13-1.16,2.27-1.67,3.43-.5,1.16-.93,2.31-1.29,3.44-.36,1.14-.58,2.19-.66,3.15-.8-.23-1.36-.47-1.67-.7-.31-.23-.46-.52-.46-.85,0-.3,.09-.73,.28-1.28s.44-1.2,.78-1.95c.33-.75,.74-1.59,1.23-2.52,.48-.93,1.02-1.92,1.6-2.99,.67-1.22,1.32-2.36,1.97-3.43,.64-1.07,1.27-2.04,1.89-2.9s1.22-1.62,1.82-2.25c.59-.63,1.18-1.12,1.76-1.45,.23,0,.55,.06,.94,.18,.39,.12,.78,.26,1.15,.43,.38,.17,.71,.34,1,.51s.46,.32,.49,.44c-.23,.47-.51,1.17-.83,2.1-.32,.94-.64,1.99-.96,3.18-.33,1.19-.63,2.44-.93,3.77-.29,1.33-.52,2.6-.69,3.82,.38-.92,.83-1.87,1.34-2.87,.51-.99,1.05-1.98,1.62-2.95,.57-.98,1.15-1.92,1.74-2.84s1.17-1.76,1.74-2.52c.57-.76,1.1-1.42,1.59-1.99s.93-.98,1.31-1.25c.23,0,.55,.06,.94,.18,.39,.12,.78,.26,1.15,.43,.38,.17,.71,.34,1,.51,.29,.18,.45,.32,.49,.44-.54,.95-1,2.11-1.4,3.48-.4,1.37-.74,2.8-1.01,4.31-.28,1.5-.48,2.99-.63,4.47-.14,1.48-.21,2.8-.21,3.97v1.2c0,.42,.02,.85,.05,1.3-.23,0-.51-.03-.84-.09-.33-.06-.64-.14-.95-.24-.31-.1-.59-.21-.84-.34s-.42-.26-.53-.41c-.02-.23-.02-.48-.02-.73v-.73c0-1.87,.14-3.82,.41-5.86,.28-2.04,.73-4.24,1.37-6.61,.07-.23,.14-.55,.22-.95,.08-.4,.17-.82,.25-1.25-.47,.23-1,.68-1.59,1.34-.59,.66-1.19,1.46-1.8,2.4s-1.21,1.99-1.8,3.14c-.59,1.15-1.13,2.32-1.6,3.52-.48,1.19-.88,2.38-1.2,3.55-.33,1.18-.52,2.26-.59,3.24Z"/>
        <path class="cls-8" d="M345.16,91.95c.55,0,.98,.15,1.29,.45,.31,.3,.46,.72,.46,1.25,0,.13-.01,.27-.04,.41-.03,.14-.05,.26-.09,.36-.22-.03-.46-.06-.73-.09-.27-.02-.58-.04-.95-.04-.72,0-1.44,.06-2.18,.19-.73,.13-1.44,.23-2.1,.31-.38,.89-.74,1.74-1.05,2.57-.32,.83-.59,1.58-.81,2.27-.23,.69-.4,1.28-.53,1.78-.13,.5-.2,.88-.21,1.13,1.35-.31,2.72-.57,4.09-.79,1.38-.22,2.82-.33,4.34-.33,.18,.28,.34,.58,.46,.9s.19,.67,.19,1.05v.32c0,.11-.02,.23-.05,.34h-5.07c-.49,0-.99,.03-1.49,.08-.5,.05-1.03,.12-1.59,.21-.56,.09-1.19,.2-1.89,.32-.77-.3-1.51-1.04-2.23-2.2,.28-.6,.68-1.52,1.19-2.75,.51-1.23,1.16-2.87,1.94-4.93-.75-.23-1.24-.65-1.48-1.25,.08-.08,.33-.19,.73-.31,.4-.13,.89-.25,1.48-.39,.25-.65,.46-1.22,.64-1.7,.18-.48,.33-.94,.46-1.36,.13-.43,.25-.84,.36-1.25,.11-.41,.21-.86,.31-1.34-.58,0-1.04-.15-1.38-.44-.33-.3-.5-.68-.5-1.16,0-.14,.02-.3,.06-.48s.09-.35,.14-.48c.33,.03,.66,.04,.96,.04h4.17c.92,0,1.75-.04,2.49-.13,.74-.08,1.38-.16,1.92-.24,.53-.07,.94-.11,1.23-.11,.38,0,.73,.2,1.03,.6,.3,.4,.53,.97,.68,1.71-.52-.07-.94-.1-1.26-.1h-.86c-.92,0-1.76,.05-2.52,.14-.76,.09-1.49,.19-2.19,.29-.1,.15-.21,.34-.34,.57-.12,.23-.29,.56-.49,.97-.2,.42-.45,.94-.74,1.57s-.65,1.42-1.06,2.37c.63-.1,1.23-.18,1.79-.24,.56-.06,1.03-.09,1.42-.09Z"/>
      </g>
      <g>
        <path class="cls-9" d="M226.77,146.7c-1.4-.42-2.35-.82-2.85-1.2-.49-.38-.74-.91-.74-1.57,0-.74,.17-1.78,.52-3.12,.34-1.34,.79-2.84,1.35-4.49,.55-1.65,1.19-3.38,1.9-5.17,.71-1.8,1.44-3.52,2.18-5.17,.74-1.65,1.46-3.16,2.16-4.53,.7-1.37,1.32-2.43,1.87-3.2l-.26-1.55c.34,0,.83,.09,1.44,.26,.62,.17,1.24,.38,1.87,.63s1.18,.5,1.66,.76,.75,.47,.79,.65c-.12,.59-.22,1.48-.3,2.68-.07,1.2-.11,2.47-.11,3.82,0,2.69,.1,5.32,.31,7.89,.21,2.58,.7,5.19,1.46,7.85,.39-1.97,.82-3.94,1.27-5.89,.46-1.96,.93-3.83,1.42-5.62,.49-1.79,.99-3.44,1.48-4.97,.49-1.53,.97-2.86,1.42-4.01,.46-1.15,.88-2.04,1.28-2.7,.39-.65,.75-1,1.07-1.05,.27,.05,.57,.15,.89,.31,.32,.16,.63,.35,.92,.57,.3,.22,.57,.47,.81,.74,.25,.27,.44,.54,.59,.81-.79,.32-1.57,1.07-2.35,2.25-.78,1.18-1.51,2.62-2.22,4.31-.7,1.69-1.36,3.52-1.96,5.49-.6,1.97-1.13,3.91-1.59,5.82-.46,1.91-.81,3.68-1.07,5.3-.26,1.63-.4,2.93-.42,3.92,0,.05,.01,.09,.04,.11-.07,.02-.15,.04-.24,.04h-.24c-1.13,0-2.14-.14-3.01-.42-.88-.28-1.45-.68-1.72-1.2-.52-2.07-.95-4.06-1.29-5.99-.35-1.92-.63-3.84-.87-5.77s-.42-3.86-.55-5.82c-.14-1.96-.24-4.01-.31-6.15-.47,.74-.96,1.71-1.48,2.9-.52,1.2-1.02,2.51-1.51,3.94-.49,1.43-.97,2.93-1.42,4.51-.46,1.58-.86,3.12-1.2,4.62-.35,1.5-.62,2.93-.81,4.27-.2,1.34-.29,2.51-.29,3.49,0,.52,0,.89,.02,1.11,.01,.22,.04,.41,.09,.55Z"/>
        <path class="cls-9" d="M265.76,116.99c.47,.2,.95,.45,1.44,.76,.49,.31,.95,.62,1.37,.94,.42,.32,.77,.63,1.05,.94,.28,.31,.44,.56,.46,.76-.42-.1-.84-.17-1.26-.2-.42-.04-.8-.06-1.15-.06-1.11,0-2.21,.27-3.31,.81-1.1,.54-2.14,1.28-3.12,2.22-.99,.94-1.9,2.03-2.73,3.29-.84,1.26-1.56,2.6-2.16,4.03-.6,1.43-1.08,2.91-1.42,4.43-.35,1.53-.52,3.03-.52,4.51,0,1.92,.32,3.35,.96,4.29s1.58,1.4,2.81,1.4c.59,0,1.23-.12,1.92-.35,.69-.23,1.39-.56,2.11-.98,.71-.42,1.42-.92,2.11-1.52,.69-.59,1.33-1.24,1.92-1.96,.86-1.03,1.64-2.21,2.33-3.53,.69-1.32,1.27-2.72,1.75-4.19,.48-1.48,.85-3,1.11-4.56,.26-1.56,.39-3.1,.39-4.6,0-.59-.01-1.09-.04-1.5-.02-.41-.06-.75-.09-1.04-.04-.28-.07-.51-.09-.68-.02-.17-.05-.32-.07-.44,.3,.15,.62,.33,.98,.54,.36,.21,.69,.52,1,.92,.31,.41,.57,.94,.78,1.61,.21,.67,.31,1.53,.31,2.59,0,1.72-.2,3.42-.61,5.08s-.97,3.25-1.7,4.75c-.73,1.5-1.58,2.91-2.57,4.21-.99,1.31-2.04,2.45-3.18,3.44-1.48,1.31-3.05,2.32-4.73,3.03-1.68,.71-3.29,1.07-4.84,1.07-2.27,0-4-.72-5.19-2.16s-1.79-3.57-1.79-6.38c0-1.5,.17-3.09,.5-4.77,.33-1.68,.8-3.33,1.4-4.95,.6-1.63,1.32-3.17,2.16-4.64,.84-1.47,1.75-2.76,2.75-3.88,1-1.12,2.07-2.01,3.21-2.68,1.15-.67,2.32-1,3.53-1,.39,0,.76,.03,1.11,.09s.71,.18,1.11,.35Z"/>
        <path class="cls-9" d="M279.69,145.04c-.12-1.01-.22-2.11-.28-3.31-.06-1.19-.09-2.31-.09-3.34,0-1.65,.05-3.23,.17-4.75,.11-1.52,.25-3.1,.41-4.77,.16-1.66,.34-3.47,.54-5.43,.2-1.96,.37-4.22,.52-6.78,.32,0,.78,.09,1.39,.28,.6,.18,1.21,.4,1.83,.65,.62,.25,1.16,.5,1.63,.76s.74,.47,.81,.65c-.42,.96-.79,2.22-1.13,3.79-.33,1.56-.61,3.27-.83,5.12s-.39,3.75-.52,5.69-.18,3.77-.18,5.47c0,.79,.01,1.56,.04,2.33,.02,.76,.06,1.47,.11,2.11,.52-.76,1.12-1.85,1.79-3.27,.68-1.42,1.38-3,2.11-4.75,.73-1.75,1.45-3.58,2.18-5.49,.73-1.91,1.4-3.73,2.01-5.47,.62-1.74,1.14-3.3,1.57-4.69s.73-2.45,.91-3.16c.32,0,.79,.09,1.42,.28,.63,.18,1.24,.4,1.85,.65,.6,.25,1.14,.5,1.61,.76,.47,.26,.73,.47,.78,.65-.42,.96-.79,2.22-1.13,3.79-.33,1.56-.61,3.27-.83,5.12s-.39,3.75-.52,5.69c-.12,1.95-.18,3.77-.18,5.47,0,.71,0,1.42,.02,2.12,.01,.7,.04,1.34,.09,1.9,.79-2.04,1.61-4.07,2.46-6.08,.85-2.01,1.69-3.93,2.53-5.77,.84-1.84,1.65-3.55,2.44-5.14,.79-1.59,1.51-3.01,2.18-4.25,.67-1.24,1.24-2.27,1.74-3.09,.49-.81,.87-1.35,1.15-1.63,.57,.07,1.15,.28,1.76,.61,.6,.33,1.14,.76,1.61,1.27-.71,.57-1.53,1.5-2.44,2.79s-1.85,2.79-2.81,4.49c-.96,1.7-1.93,3.51-2.9,5.43-.97,1.92-1.88,3.79-2.72,5.62-.84,1.82-1.58,3.52-2.24,5.1-.65,1.58-1.15,2.85-1.5,3.81-.64,.3-1.27,.44-1.88,.44-.79-.1-1.53-.3-2.24-.59-.7-.3-1.2-.65-1.5-1.07-.07-.39-.14-.86-.18-1.39-.05-.53-.09-1.05-.11-1.57-.02-.52-.04-1.02-.06-1.5s-.02-.89-.02-1.24c0-2.19,.09-4.43,.26-6.71,.17-2.28,.38-4.72,.63-7.34-.57,1.68-1.2,3.47-1.88,5.4-.69,1.92-1.41,3.83-2.16,5.71-.75,1.88-1.52,3.68-2.29,5.4-.78,1.71-1.53,3.2-2.27,4.45-.64,.3-1.27,.44-1.88,.44-.79-.1-1.53-.3-2.24-.59-.7-.3-1.2-.65-1.5-1.07Z"/>
        <path class="cls-9" d="M310.91,146.74c-.3,0-.58-.07-.85-.2-.27-.14-.51-.3-.72-.48-.21-.19-.38-.38-.5-.59-.12-.21-.18-.38-.18-.5,0-.3,.04-.68,.11-1.15s.18-.92,.33-1.35c.15-.43,.33-.8,.55-1.11s.47-.46,.74-.46c.69,0,1.39,.24,2.09,.72s1.23,1.02,1.57,1.61c-.3,.32-.55,.68-.78,1.09-.22,.41-.44,.79-.67,1.15-.22,.36-.47,.66-.74,.91-.27,.25-.59,.37-.96,.37Zm.81-9.79c0-.67,.18-1.63,.54-2.9,.36-1.27,.82-2.67,1.39-4.21,.57-1.54,1.21-3.13,1.92-4.77,.71-1.64,1.44-3.17,2.16-4.6,.73-1.43,1.42-2.67,2.09-3.71,.67-1.05,1.24-1.74,1.74-2.09,.39,.07,.82,.25,1.27,.54s.88,.6,1.28,.96c.39,.36,.74,.73,1.04,1.13,.29,.39,.47,.74,.52,1.03-1.26,1.03-2.5,2.32-3.73,3.86-1.23,1.54-2.37,3.25-3.42,5.12-1.05,1.87-1.96,3.87-2.75,6.01-.79,2.13-1.38,4.31-1.77,6.52-.3-.07-.59-.17-.87-.28-.28-.11-.52-.26-.72-.46-.2-.2-.36-.47-.48-.81-.12-.34-.18-.79-.18-1.33Z"/>
      </g>
    </g>
  </g>
</svg>